<svg width="400" height="199" viewBox="0 0 400 199" fill="none" xmlns="http://www.w3.org/2000/svg">
<path d="M105.119 88.9034L97.859 79.4519C96.0681 82.4534 93.3179 86.2532 90.5996 88.9034L18.2286 88.8076V92.6074H96.0682V132.968H18.3566L18.2286 136.927H96.0682V177.096H18.2926L18.1647 180.832H95.8123L96.1641 198.936L85.7386 197.436L0.1599 197.563V158.991H77.9674V155.032H0.1599V114.863H78.3192L77.7755 110.904H0.19188L0 70.671L83.404 70.4795L89.0645 60.3575L89.4163 22.3281L17.3972 22.4558V26.511L83.3721 26.4472L83.436 66.552H0.415741L0.447721 48.5112H65.5911L65.0795 44.4879H0.12792L0.19188 4.41505H89.3843C90.6315 -1.20474 104.095 -1.52404 108.508 4.35119L196.006 4.44698L196.07 44.5199H130.958L130.383 48.7347L195.878 48.4473V66.5839H112.698V26.4472L177.713 26.4791L177.649 22.4239H107.229L107.197 61.7943L113.785 70.4795L196.038 70.6072V110.904H118.326L118.23 114.831H196.038V155H118.23L118.71 158.991H196.006V197.372L100.449 197.531L101.377 180.864L177.841 180.8L176.626 177.096L101.025 176.936L101.601 136.863H177.521L177.585 132.904H100.322L101.313 123.037L101.537 92.5116H177.585L177.617 88.7118L105.023 88.8076L105.119 88.9034Z" fill="black"/>
<path d="M344.233 44.4559L344.297 48.3834H377.429V110.776L344.041 110.872L344.393 114.831H377.397V132.936L344.073 132.872L344.009 154.936H325.845L326.005 132.904H292.841L292.554 115.086L326.101 114.575L326.932 111.063L292.681 110.712V48.543L326.165 48.1918L326.964 44.5836L292.809 44.392V27.0857L325.685 28.2032L326.868 22.2641L288.652 22.4557V136.927H321.783L321.719 155.063L270.231 154.968V4.4788L324.821 4.22336C329.714 -1.49222 342.059 -1.3645 344.329 4.35108H399.655V154.904L366.651 155L366.428 158.927L399.655 158.991L399.591 198.872H326.165L325.909 177.032H288.556V180.8L321.719 180.863L321.559 198.872H270.295V158.959H343.914L344.073 180.863L381.554 180.768C381.266 179.522 380.051 177 379.347 177L348.135 177.064L347.975 136.895H381.458V22.3599L344.009 22.4877C344.073 25.0421 343.946 26.8621 344.777 27.2772C345.608 27.6923 348.711 28.299 349.958 28.2671L377.205 26.9899L377.461 44.4559L344.265 44.5198L344.233 44.4559ZM326.42 70.7348C326.005 66.7754 325.813 65.115 326.005 66.6796L310.782 66.8073V70.7987L326.42 70.7667V70.7348ZM344.041 66.7435V70.7348H359.2V66.7435H344.041ZM310.814 88.1689V92.7669H326.484V88.1689H310.814ZM359.2 88.7437H344.009V92.735H359.2V88.7437Z" fill="black"/>
<path d="M225.715 159.151L247.91 158.863L248.038 154.968L225.811 154.936L225.843 114.863L248.006 114.799L247.91 110.904L220.279 110.648L220.503 199L203.617 198.425V92.8308L225.683 92.7031L225.843 88.8075L203.713 88.7437L203.617 70.671L225.843 70.7987V4.83008L244.008 4.92587L243.976 70.7029H266.202L266.106 88.6798L243.912 88.8075L243.72 92.7031L266.202 92.7989V132.776L243.912 132.968L243.848 136.799L266.17 136.991L266.266 176.585L243.848 177.415L242.985 180.768L266.17 180.863L265.914 198.84H225.907L225.715 159.151Z" fill="black"/>
<path d="M220.215 56.6856L221.718 66.6799L203.617 66.5522V4.54297H220.695L220.215 56.6856Z" fill="black"/>
<path d="M266.426 4.31934H248.038V66.7117H266.426V4.31934Z" fill="black"/>
</svg>
