<svg width="401" height="199" viewBox="0 0 401 199" fill="none" xmlns="http://www.w3.org/2000/svg">
<path d="M177.905 44.4395H84.8112V114.591H196.038V154.983H85.067V158.943H195.91V177.047H66.6785V136.911L178.001 136.847L176.466 132.919H66.6145V26.4307H195.974V110.664H88.8726V48.5266L173.748 48.4628L173.844 88.5995H111.323L111.035 70.463L153.217 70.6545C153.696 70.4949 154.72 68.9941 156.031 66.5994L107.005 66.5036V92.5589H177.841L177.937 44.4395H177.905Z" fill="black"/>
<path d="M62.8089 198.665L52.0636 197.356L0.1599 197.547L0.0319801 180.879L22.2581 180.752V23.0784C22.3861 22.0566 16.7895 22.5994 16.7895 23.9086L16.7256 176.505L0 176.728V4.75024L20.947 4.01583C25.8399 -1.41237 37.7685 -1.31658 40.5507 4.17549L62.585 4.84603V176.76L44.4203 176.792V22.4717L40.3589 22.2163V180.847L62.3931 180.816L62.7769 198.697L62.8089 198.665Z" fill="black"/>
<path d="M196.07 4.30273H66.6465V22.4074H196.07V4.30273Z" fill="black"/>
<path d="M66.6486 180.711L66.636 198.752L196.059 198.842L196.072 180.801L66.6486 180.711Z" fill="black"/>
<path d="M391.308 198.122H225.939V159.613H381.426V155.654H225.971V115.453H381.906L381.203 111.494H221.942V197.962H203.713V93.1656H292.714L292.65 89.2063H203.713V4.94141H399.879L399.943 89.1743L310.335 89.2382V93.1337L400.071 93.2614L399.783 133.526H244.68L245.447 137.485H399.911L399.879 177.654H244.616V181.39H399.463L400.071 197.068C400.135 199.048 394.346 198.026 391.404 198.026L391.308 198.122ZM221.846 21.5453V27.1012L382.738 27.6121V22.0562L221.846 21.5453ZM381.938 44.3118L221.846 45.142V50.5702L381.97 49.74V44.3118H381.938ZM221.846 67.1422V71.1974H381.938V67.1422H221.846Z" fill="black"/>
</svg>
