<svg width="505" height="150" viewBox="0 0 505 150" fill="none" xmlns="http://www.w3.org/2000/svg">
<path d="M540 132.435C505.495 139.025 445.219 146.056 423.011 127.935C417.693 123.596 428.878 116.711 430.833 106.572C432.441 98.2953 402.49 93.2058 380.791 103.211L312.786 134.525C249.429 163.696 216.84 134.404 207.383 135.181C204.638 135.409 199.735 140.86 197.458 142.601C175.035 155.874 146.264 150.704 127.324 131.779C114.197 144.342 102.369 148.641 85.7197 147.744C73.785 147.101 62.0647 137.9 52.8893 127.386C29.3549 131.792 5.40521 117.743 0.904602 95.4023C-4.17198 70.1557 12.6115 47.9493 38.8785 44.4269C48.1074 20.0776 71.9365 8.1574 97.7883 14.8407C113.42 -3.03952 138.334 -5.57089 155.734 11.6799C188.082 -7.78081 225.466 2.17053 243.857 34.8372C264.137 27.0556 284.872 31.0334 297.489 46.2886C306.236 56.856 311.487 67.7583 315.358 82.6384C331.833 55.2488 364.583 40.3954 394.962 50.4807C405.638 54.03 410.969 62.7089 408.826 73.9728C429.829 73.4103 448.206 78.4328 464.454 91.8397C469.678 96.1524 471.339 105.501 471.312 113.497C471.259 130.56 512.635 131.404 539.973 132.435H540ZM141.147 29.9485L186.622 31.0602C168.07 20.5731 144.549 21.725 126.841 35.1988C116.835 42.8197 114.639 56.923 123.466 66.1109C118.135 49.5432 125.756 37.4623 141.16 29.9485H141.147ZM50.8935 101.282C62.3326 122.645 92.9394 119.31 108.316 105.702C114.974 99.8088 114.813 86.0671 110.393 78.3525C107.312 72.9549 99.2215 68.1065 90.823 63.9411L88.5861 45.3912C84.3132 41.3999 83.7373 44.0385 85.8134 47.8958L88.1441 67.3699C98.6991 69.6735 109.817 78.8079 110.272 89.3083C110.46 93.5407 106.039 103.037 102.543 105.849C87.8092 117.676 64.3954 113.457 50.8801 101.295L50.8935 101.282ZM256.596 94.1835C271.45 88.6253 263.346 76.1693 260.828 68.4145C261.431 59.9767 261.578 51.2441 259.087 44.8153L255.457 70.3566C257.319 72.3656 263.869 79.4775 262.395 82.4509L256.596 94.1835ZM184.894 84.7813C186.086 78.7141 199.079 72.4728 205.508 73.638C225.185 77.214 223.484 96.8221 238.178 97.1837L223.872 80.1204C217.095 72.0442 205.522 69.0574 194.19 72.2317C185.363 74.7095 180.286 86.268 177.272 95.9113C169.651 98.0409 159.297 102.246 155.412 109.064L158.587 123.837L162.203 106.599C163.141 102.126 181.773 100.733 182.469 97.1435L184.894 84.7679V84.7813Z" fill="black"/>
</svg>
