<svg width="376" height="227" viewBox="0 0 376 227" fill="none" xmlns="http://www.w3.org/2000/svg">
<path d="M294.394 164.436C307.886 163.599 311.236 157.875 317.372 146.975C323.509 136.075 341.706 134.599 354.086 133.046C342.528 128.905 321.773 132.087 314.296 144.448C309.104 153.049 306.409 158.164 295.978 159.625C284.131 161.285 272.086 169.84 269.239 179.081C265.401 191.518 269.787 204.031 279.152 215.342C256.173 230.047 223.617 232.879 202.086 211.871L177.752 188.138C142.958 214.033 91.8547 210.44 58.9787 180.786C43.0966 185.337 23.5751 183.373 11.5911 170.906C-1.94604 156.84 -3.13378 135.71 5.4697 118.203C16.2659 96.267 41.9088 92.8266 65.7093 97.1956C66.562 82.612 69.5009 69.4288 78.3023 62.1217C94.4281 48.7711 126.375 46.5942 132.588 61.3301L160.911 48.3448L171.007 54.9364C165.403 32.0561 175.118 15.3869 194.32 6.84675C220.861 -4.93591 251.301 -2.24142 266.954 20.6541C272.512 4.5024 288.684 7.02942 300.302 6.05515C321.301 4.30449 335.508 14.3213 343.228 32.2845C347.66 35.2834 355.852 40.4593 356.903 44.9044C358.212 50.4456 354.512 60.4167 351.725 66.5516C371.277 52.7138 398.687 67.5411 412.193 88.6555C429.324 77.4513 460.434 91.5479 466.144 119.345C469.966 137.963 460.906 159.915 440.653 163.812C433.192 153.902 422.99 144.692 410.092 140.109V131.052L395.474 142.347C412.772 144.448 431.669 150.629 435.841 168.516C439.648 184.804 425.213 201.382 410.61 208.461C372.221 227.094 310.505 236.852 281.832 209.938C274.02 202.6 270.076 191.335 272.619 182.49C275.162 173.646 284.953 164.954 294.394 164.36V164.436ZM223.054 88.9447C220.206 69.7789 232.084 57.2503 246.809 53.8708L265.158 49.654C243.443 42.7275 217.8 59.3054 217.405 83.5101C217.161 99.0224 227.15 110.257 237.413 116.27C249.778 123.501 263.071 126.744 274.248 116.438C252.214 122.283 226.602 112.769 223.069 88.9752L223.054 88.9447ZM192.234 110.059C168.692 121.735 148.653 115.052 127.167 105.477C143.826 124.156 168.098 120.533 189.812 116.59C212.044 147.264 249.747 153.262 283.126 137.461C296.221 131.265 308.693 122.207 312.682 111.064C317.723 96.9673 318.575 80.3285 308.921 69.5201C302.48 62.3044 288.593 57.2351 278.466 55.8041C270.32 57.0981 257.087 62.0913 252.915 70.4792C268.919 60.3102 294.592 56.276 306.85 74.1784C320.981 94.8208 307.627 120.396 287.253 129.864C250.128 147.127 213.308 145.986 192.234 110.059ZM169.149 179.674C146.841 183.967 131.324 179.157 112.853 169.536C126.025 188.001 151.668 188.93 169.149 179.674Z" fill="black"/>
</svg>
