<svg width="1091" height="244" viewBox="0 0 1091 244" fill="none" xmlns="http://www.w3.org/2000/svg">
<g clip-path="url(#clip0_209_2952)">
<path d="M1087.22 103.01C1076.61 97.2195 1065.09 95.1395 1053.84 95.1795C1045.52 77.9995 1022.58 74.6095 1002.3 78.6795C994.9 80.1595 987.75 87.2995 983.47 91.9795L966.09 85.1295L975.55 84.2795C969.3 70.6295 952.69 67.8795 941.02 72.4795C953.63 76.9195 956.97 86.4495 965.74 87.4395L962.29 88.4395C961.42 88.6895 960.85 90.5895 960.3 91.8295C957.79 88.0595 951.4 80.0495 946.68 78.4995C927.84 72.3095 911.7 77.7095 896.96 88.9995L902.9 80.2395C894.11 66.6395 873.59 64.8495 860.7 73.3395L853.52 89.1395L861.91 104.01C867.41 99.8395 873.83 96.0395 879.9 95.9695C887.23 95.8895 895.83 98.7995 898.21 106.66C887.29 97.6495 869.89 95.3295 862.57 109.07C859.4 115.02 862.47 126.27 852.79 129.41C861.27 115.43 861.1 99.3195 847.43 89.7495C859.04 79.8495 861.12 62.5195 849.06 51.7295C843.67 46.9095 833.78 43.7895 827.25 40.8995C814.22 27.4095 796.28 24.0495 778.91 30.8995L791.95 37.2195C761.52 32.5095 756.86 35.5395 739.48 53.0995L738.16 51.5195C742.03 46.0295 749.41 38.9395 756.54 33.4795C741.25 29.4595 723.77 34.5395 715.42 49.9195L737.37 53.5395L738.16 54.5295L750.09 65.4495C764.36 54.8895 786.35 55.9095 793.37 72.8395C781.63 60.9995 765.4 56.8395 752.36 67.3595L753.59 76.6195C743.75 56.2195 719.33 47.3395 698.75 58.2395C710.22 61.4195 710.22 69.3995 712.43 77.5195C714.4 84.7795 716.21 89.7595 710.75 95.9195C695.54 113.07 684.96 100.67 672.15 109.99C660.54 118.44 642.15 119.03 632.12 107.09C645.73 113.6 660.24 114.49 674.54 107.21L669.79 98.5495C679.75 107.58 694.94 105.37 705.66 97.1295C712.9 91.5595 712.33 84.4495 708.25 77.5395C709.13 52.8895 684.48 69.1895 682.24 50.8695C672.94 42.0095 658.99 40.8195 647.13 46.7195C634.51 42.8295 622.24 45.7595 611.68 54.2195C604.24 61.8795 596.4 72.8695 598.09 84.8395C607.2 89.1095 588.04 86.0395 592.01 113.57C584.52 112.16 576.72 112.38 571.43 116.98C577.11 130.91 573.92 144.55 561.68 152.26C543.38 163.78 509.46 160.4 504.57 140.27C489.96 147.96 478.96 140.06 472.12 127.59L464.63 113.93C469.2 102.43 478.21 97.9995 490.52 100.57C499.38 89.6995 517.91 87.5695 525.5 100.44C515 94.3195 504.37 91.1395 495.51 99.4495C495.41 100.78 495.18 103.96 495.17 103.97C486.91 101.87 481.87 101.73 475.58 104.93C472.7 106.39 468.51 111.85 468.78 114.73C469.06 117.62 473.15 121.99 474.92 124.9C478.92 131.47 482.08 138.03 488.7 140.1C495.36 142.18 501.9 139.54 507.69 135.26C504.55 154.13 532.85 158.57 552.76 153.23C565.34 149.85 571.71 139.64 570.84 127.22C570.53 122.82 568.36 115.49 564.63 113.28C561.9 111.66 556.89 111.08 551.83 110.58C552.81 93.8595 539.75 82.9595 523.03 82.1095C527.69 78.7595 529.83 70.9995 526.29 65.3295C518.49 52.8595 500.59 47.8495 487.03 53.6495C480.93 56.2595 477 61.9795 475.74 66.7795C463.04 60.5095 449.49 61.6495 437.51 69.3995C442.07 59.1995 452.4 60.5695 462.82 60.6495C463.75 53.4595 460.35 46.2295 454.49 42.9295C448.17 39.3795 440.97 41.3195 433.65 40.9995C424.53 40.5895 415.5 34.9395 405.92 39.6895C399.27 42.9795 392.76 50.0495 390.03 58.8395L396.92 64.8195C385.69 63.1095 375.53 62.6095 367.06 68.5295L347.48 82.1895C351.36 71.3195 368.06 70.4495 364.06 53.6395C362.4 45.8595 356.69 41.5395 348.25 40.8795C333.18 23.6395 305.94 27.1795 287.66 41.2895L285.26 32.8195C284.72 30.9095 279.51 29.6095 277.54 29.6095H263.58C257.93 18.1095 249.79 9.69954 237.59 4.64954C216.3 -4.15046 190.43 -0.520462 173.88 16.0195C167.06 22.8295 164.23 32.0795 161.93 41.8295C151.23 33.6795 139.28 29.1795 126.28 33.6095C116.49 36.9495 106.9 44.1095 102.67 54.6195C91.6799 46.3295 78.5199 45.8095 65.4399 50.7395C55.2199 54.5895 47.2399 63.3295 41.8799 75.0395L41.7599 68.0095C11.2899 62.6495 -26.4001 72.8595 -28.9001 102.6C-30.2301 118.39 -17.5601 129.25 -1.91012 131.07C-3.04012 141.42 -0.480114 150.9 7.22989 157.24C17.1199 165.37 31.4999 169.21 44.6899 162.87C43.9099 182.55 56.3799 199.69 78.2899 201.24C86.4799 201.82 98.8799 203.19 105.15 197.97L122.46 183.57C129.76 177.5 131.24 170.8 131.73 160.29L133.1 173.71C144.81 178.8 159.79 175.16 165.29 164.5C172.11 151.29 170.72 139.3 159.71 129.31C167.8 131.09 169.39 136.98 172.98 145.54L180.93 132.11C184.18 126.62 192.31 123.74 198.49 122.6L200.36 121.22C213.79 126.87 233.84 142.07 235.95 152.51C237.56 160.48 234.81 167.79 230.49 174.81C241.22 188.38 260.71 191.54 275.83 182.82L277.79 170.99L267.51 169.46L268.54 168.23L281.85 169.1C278.79 178.8 278.31 188.68 284.5 193.68C298.89 205.3 315.61 201.82 327.05 188.74L325.18 195.26C323.2 202.13 351.31 215.38 376.77 201.69C378.78 211.43 388.57 218.54 397.38 214.13L410.31 207.67C413.4 201.88 417.33 194.7 421.86 192.44C428.97 188.88 438.78 188.07 443.65 193.05C436.09 192.25 430.5 191.27 423.58 194.32C418.99 196.34 415.56 204.42 412.98 210.47C409.26 211.95 402.69 214.02 400.37 216.46C397.79 219.17 398.64 229.07 401.8 231.29C409.74 236.86 420.18 236.32 429.62 234.01C441.11 245.16 456.89 245.43 468.9 237.65C480.52 245.11 493.4 236.68 498.5 225.4L510.07 219.61C517.03 212.08 518.18 200.94 514.16 192.52C509.72 183.23 500.39 179.44 490.06 176.83L505.08 177.15C502.42 169.87 498.63 162.29 494.55 155.57L495.61 154.64C500.87 159.51 504.25 166.88 507.77 175.18C514.98 176.79 525.57 173.9 533.96 169.81C544.07 182.51 558.1 191.39 574.25 185.8C595.03 193.97 617.88 191.5 636.15 179.76C642.91 173.99 648.56 166.94 651.23 159.05C668.73 169.32 689.32 168.37 701.13 150.44C716.38 167.26 747.46 159.06 763.26 144.59C771.67 136.89 775.26 125.39 767.78 116.82C761.25 108.41 750.59 104.64 740.13 113.04C730.87 104.87 715.44 106.41 708.78 115.17C706.88 117.8 706.91 125.45 706.71 129.46C700.44 122.96 703.64 114.66 710.67 109.21C719.67 102.24 730.48 107.53 740.01 107.97C746.97 108.29 754.72 103.29 762.69 107.57C767.87 110.35 774.79 117.63 775.17 125.79C775.65 136.03 769.07 143.94 761.51 150.46C776.14 151.25 787.14 144.46 794.71 132.71L792.85 141.77C804.84 148.69 818.53 146.02 832.54 141.12C827.84 146.55 820.3 148.05 812.38 149.05C817.64 160.64 829.97 162.81 841.99 163C852.28 163.17 861.16 160.4 864.06 150.45C870.33 157.47 876.6 161.83 884.08 162.57C891.23 163.28 899.43 156.95 905.43 154.05C914.41 154.55 924.35 155.49 931.5 149.57C937.63 144.5 941.78 133.54 938.46 124.59C936.96 120.54 930.91 116.12 926.8 115.5C922.24 114.81 916.7 118.02 912.04 120.73C916.5 108.9 934.61 111.75 939.58 121.47C943.66 129.45 941.72 138.82 938.05 146.71C950.37 153.11 969.95 152.82 976.11 143.65C987.97 156.36 1006.23 158.78 1021.99 150.8L1037.01 150.19C1042.96 145.46 1042.86 137.57 1044.5 129.08L1045.58 146.56C1066.68 151.67 1078.77 124.06 1075.75 119.79L1068.51 109.55C1077.01 111.76 1080.25 118.45 1078.42 129.26L1089.53 121.14C1091.11 113.67 1090.44 108.74 1087.21 103.01H1087.22ZM198.19 121.6C187.44 108.71 167.74 102.69 151.2 114.85C145.67 91.0795 130.66 95.3595 112.97 89.0095C130.04 88.2395 145.52 92.6795 154 108.58C171.08 102.29 190.08 106.44 199.96 119.97L198.19 121.59V121.6ZM256.4 151.39C255.52 158.17 261.91 165.32 267.28 167.43L266.43 168.55C256.99 167.26 252.49 157.76 253.8 148.22C256.54 128.15 274.97 134.95 282.29 126.29L287.16 133.82C272.77 130.43 258.38 136.17 256.4 151.38V151.39ZM493 155.06C481.02 144.95 466.86 142.39 450.81 149.22C462.71 138.14 480.82 140.99 493.88 153.07L493 155.07V155.06Z" fill="black"/>
<path d="M233.44 154.64C231.35 146.88 227.75 141.71 220.53 139.15C213.8 128.9 200.91 123.7 188.6 129.35C185.28 130.87 182.04 137.53 179.66 141.37C176.92 145.79 170.58 153.1 171.84 158.16C175.41 172.45 189.42 174.43 201.09 170.77C191.49 181.09 177.72 173.92 169.8 163.43C162.61 177.89 146.19 181.06 132.96 176.15C126.55 183.25 120.24 189.21 112.21 196.44C131.83 205.38 150.73 199.48 167.61 191.59C185.63 203.13 205.84 193.36 205.84 190.38V186.28C221.93 184.91 234.08 170.66 233.46 154.63L233.44 154.64Z" fill="black"/>
</g>
<defs>
<clipPath id="clip0_209_2952">
<rect width="1119.36" height="243.02" fill="white" transform="translate(-29)"/>
</clipPath>
</defs>
</svg>
