<svg width="754" height="414" viewBox="0 0 754 414" fill="none" xmlns="http://www.w3.org/2000/svg">
<path d="M717.015 371.454C705.202 371.974 692.883 385.007 682.29 389.034C659.26 397.801 634.742 370.28 607.769 384.546C569.043 405.023 527.535 412.349 483.587 411.814C469.87 411.651 457.878 408.812 444.92 401.412C412.904 422.706 369.938 417.03 348.187 384.011C317.718 382.986 293.437 370.459 290.016 342.507C288.959 333.814 298.912 320.886 303.792 313.129C304.521 297.451 306.039 282.428 318.952 269.96C336.538 252.975 360.654 252.232 384.904 251.534C411.714 230.18 433.583 227.446 459.917 251.311C486.027 234.267 518.221 240.879 531.165 267.612C558.406 258.28 587.908 269.307 598.753 293.662C609.138 316.977 590.541 338.643 568.522 345.85C564.818 357.516 559.864 368.482 546.786 375.734C585.096 386.27 611.176 337.648 642.672 365.807C661.164 382.347 678.616 378.959 699.37 368.393C714.872 360.502 737.947 367.293 754 369.82L717.044 371.469L717.015 371.454ZM499.015 336.682C487.961 357.902 467.95 359.299 449.339 353.147C436.053 348.763 426.353 341.571 425.059 328.672C421.786 296.055 462.505 292.874 499.149 292.013L512.122 271.417C505.129 274.686 499.327 281.908 494.403 289.635C473.812 289.293 452.79 288.327 434.089 298.506C423.08 304.51 418.17 318.865 420.194 330.842C422.039 341.794 430.98 351.066 443.611 358.422C411.074 374.575 367.751 363.4 359.746 333.056C355.938 318.582 361.041 305.728 369.372 294.019C383.61 274.032 408.292 270.287 431.59 268.133C407.414 262.233 385.47 271.803 366.903 287.822C347.368 279.575 322.419 286.871 318.298 307.556C331.613 292.444 345.821 284.122 363.168 292.161C359.375 301.315 353.81 313.277 353.379 321.376C351.966 348.585 373.716 364.158 398.309 369.849C416.251 373.029 434.461 366.877 451.436 359.18C471.357 363.504 490.505 360.309 503.597 342.968C522.848 353.919 544.822 342.284 549.613 325.165C550.595 321.688 543.275 311.955 542.621 313.931C544.912 323.605 544.852 330.738 538.529 335.76C527.386 344.617 514.577 343.963 498.97 336.712L499.015 336.682Z" fill="black"/>
<path d="M238.406 118.374C253.09 131.258 245.026 152.909 230.714 160.279C205.363 173.326 177.259 159.596 178.048 151.824L179.922 133.056C174.641 135.463 170.862 145.301 172.439 152.21C173.689 157.679 181.469 165.228 187.718 167.576C215.435 177.993 244.371 167.947 253.581 140.055C268.354 138.628 283.142 133.175 289.168 120.722C294.062 110.617 295.223 99.9181 290.596 90.2739C286.966 82.6805 274.305 77.0188 264.159 74.0171C262.745 58.4289 257.836 44.1187 244.535 36.9859C229.777 29.0655 213.218 31.1757 199.233 45.0103C188.477 35.9309 174.775 26.2719 163.036 36.2281C178.925 34.1328 189.578 42.4395 198.326 53.4805C209.915 41.325 224.168 34.5935 237.87 41.0576C251.87 47.6703 259.249 62.1885 256.184 79.114C265.468 81.67 275.108 84.0921 280.524 88.357C285.939 92.6218 289.778 105.238 287.055 111.479C280.777 125.923 269.827 135.671 253.015 136.905C251.691 97.7931 213.411 111.999 207.208 96.842C197.924 74.1211 176.902 68.1771 155.092 72.6945C138.146 76.2015 128.238 85.6227 121.29 101.241C109.819 104.748 93.7369 109.116 86.1196 120.588C81.0315 128.256 79.9157 143.651 85.1377 151.408C98.9886 171.945 130.157 158.184 152.072 185.749C122.986 214.935 77.9221 215.024 47.0959 188.721C26.6543 189.212 6.5399 185.645 -8.47149 172.806C-24.1077 159.432 -27.0684 138.257 -12.7116 123.159C-1.99978 111.88 13.8447 103.247 30.9687 105.327C11.5982 112.4 -4.32067 126.324 -1.37493 148.837C0.841816 165.822 21.0752 178.528 36.6073 173.237C21.7149 167.264 6.09357 163.95 4.76947 147.426C2.2403 115.774 40.892 111.494 50.1309 99.9626C61.5569 85.7119 74.2325 77.6726 92.2491 74.3737C97.7092 42.0829 129.116 27.4904 160.254 32.9143C172.469 15.5429 189.176 4.16016 206.657 0.890956C231.145 -3.68593 246.38 10.4459 266.405 18.827C278.605 20.8925 301.813 10.4757 310.07 29.9423C323.401 40.5077 323.773 59.9595 313.373 75.8151C322.523 99.1305 316.914 122.119 293.735 135.121C298.02 141.764 304.64 148.243 311.067 152.448C321.065 138.97 332.074 131.496 345.271 130.574C360.803 129.504 373.27 137.514 382.732 152.552C404.781 137.306 429.195 140.575 448.223 158.348C459.708 153.161 470.926 150.383 481.236 154.291C489.746 157.515 500.339 166.105 500.666 177.889C500.949 187.919 491.873 198.811 484.613 202.14C475.835 206.152 458.92 203.314 450.068 199.837C439.996 206.91 427.87 216.257 413.276 216.034C416.921 203.18 418.468 193.492 412.338 183.461C407.935 176.269 395.423 171.662 385.113 173.059C375.978 174.292 372.734 172.197 367.051 165.941C352.992 150.472 328.905 150.65 310.874 158.957C295.461 166.06 281.699 181.782 287.367 199.733C295.119 224.267 327.968 235.04 348.395 220.641C355.298 215.782 361.487 207.757 361.978 202.081C362.558 195.408 358.363 183.803 353.096 181.024C341.477 174.902 325.528 174.649 320.009 188.32C328.95 184.397 342.221 179.909 349.868 185.393C360.981 193.358 356.458 208.946 346.238 214.756C335.332 220.968 323.639 221.844 311.484 217.297C303.152 214.177 291.622 203.923 292.5 192.466C293.794 175.511 308.999 164.827 321.214 161.736C337.49 157.605 356.206 159.789 365.668 172.896C377.183 188.84 397.312 167.204 409.72 188.409C415.998 199.138 411.475 207.445 405.167 218.248C398.859 229.052 393.042 240.36 381.393 246.988C349.243 265.295 308.984 262.724 283.232 235.055C278.768 230.255 272.802 226.258 265.869 227.09C236.442 230.597 211.12 215.841 202.61 188.305C174.224 191.753 150.018 181.336 132.894 162.776C117.809 161.914 102.113 160.844 91.2523 150.665C85.9262 145.672 86.3577 131.035 90.7168 124.348C94.5254 118.493 104.791 112.178 113.271 110.142L126.214 107.036C129.532 106.234 129.711 96.8569 132.076 93.6768C142.595 79.4855 163.111 74.0171 181.157 79.8868C193.371 83.8544 201.286 98.9224 207.907 109.859C216.863 111.093 231.74 112.519 238.435 118.404L238.406 118.374Z" fill="black"/>
</svg>
