<svg width="1059" height="279" viewBox="0 0 1059 279" fill="none" xmlns="http://www.w3.org/2000/svg">
<path d="M350.946 224.269C342.506 218.569 358.186 204.539 339.496 194.749C327.766 188.609 315.856 187.389 302.976 191.259C298.636 185.179 293.256 179.289 288.596 178.099C281.406 176.269 272.926 176.859 268.676 183.619C276.156 181.909 283.166 180.149 289.366 183.099C294.906 185.739 299.846 193.799 301.416 199.039C301.836 199.449 304.546 200.009 304.586 199.269L304.856 193.869C325.206 187.499 348.796 200.409 345.856 210.699C345.026 213.599 342.516 217.839 340.416 221.349L347.596 225.869C349.216 226.889 351.716 230.789 352.056 232.659C352.456 234.899 348.526 238.169 345.666 239.709C339.886 260.919 321.636 275.189 298.456 270.569C292.316 269.339 281.676 268.149 275.726 268.569C259.476 278.159 242.606 281.829 224.556 276.359C210.166 271.999 198.436 254.599 198.206 237.539C185.876 240.539 178.036 234.069 169.816 225.129C172.686 236.689 183.696 240.839 195.086 241.389L199.046 256.149C186.226 266.309 168.296 269.609 152.716 262.439C139.536 256.379 135.496 244.139 134.276 229.209L121.346 237.839C108.376 241.849 93.5956 238.959 81.7356 231.219C66.3856 221.209 63.2256 201.059 70.2856 182.699C56.1956 187.609 45.7656 188.509 34.7556 180.819C27.8156 175.979 21.2456 166.999 25.7856 157.809C30.5756 148.099 44.1556 144.639 53.9656 151.269C53.7556 141.439 58.7356 130.219 70.2956 129.629L87.6356 128.739C80.9456 124.419 72.0256 123.759 63.2456 127.569C57.4656 130.079 52.4256 137.609 51.1256 145.959C37.1956 143.119 23.8456 148.609 20.1956 162.489C9.71559 162.489 3.49559 155.379 0.935592 146.889C-1.95441 137.329 2.06559 127.279 10.0356 120.039C20.9756 110.109 37.4556 109.299 53.3356 112.279L53.7056 105.769C73.1656 94.4989 99.1156 105.209 97.8956 111.519L96.1156 120.749C109.416 112.389 124.386 112.479 138.956 117.529C150.166 121.409 156.316 130.909 159.086 142.869C167.596 141.299 176.626 140.609 183.216 144.429C189.926 148.319 193.526 155.839 193.156 165.409C174.146 171.409 157.286 193.889 167.026 204.229C167.426 193.319 170.956 185.049 179.006 178.039C191.546 167.119 208.046 164.229 225.196 168.859L225.876 174.369C217.596 176.009 210.136 179.369 207.356 187.319C216.156 179.979 222.506 176.629 231.816 180.529C243.826 160.349 267.996 161.199 291.546 169.139C275.576 154.919 251.756 157.889 232.986 169.969C234.706 154.239 249.776 149.329 263.106 146.319L283.216 141.779C290.846 140.059 298.546 143.059 304.986 146.969C300.526 135.549 289.496 138.279 277.376 137.179C288.056 128.459 300.576 125.919 310.966 138.139C313.706 132.369 317.536 126.139 321.946 124.459C328.766 121.869 334.196 122.889 343.316 123.649C333.256 115.679 318.126 118.579 310.256 129.709L295.356 125.419C295.856 112.039 306.186 105.269 318.086 105.689C322.816 101.009 329.676 95.4289 335.146 94.8689C350.756 93.2689 363.596 104.629 367.696 122.159C383.566 112.679 404.356 117.059 411.796 134.159L413.346 147.839C420.326 141.389 437.076 131.039 445.076 139.799C454.626 150.259 464.066 159.359 480.816 157.089C484.076 163.349 489.116 170.339 493.846 172.629C500.896 176.049 509.856 173.409 516.216 171.279C540.346 185.709 564.606 191.439 582.116 169.249C598.316 170.909 616.856 173.669 631.106 163.819C639.616 157.939 640.036 150.269 640.136 141.899C645.786 135.789 659.616 129.839 659.376 117.809C657.026 110.659 656.136 103.279 656.686 94.2289C652.116 85.6489 640.016 76.8389 629.766 77.8489L618.946 78.9189C616.296 79.1789 613.486 72.5089 614.006 69.8489C623.806 56.8689 631.956 69.2289 640.926 68.1989C646.956 49.9589 654.616 50.1489 673.766 48.6089L660.236 44.7489C655.176 32.3989 659.806 22.4089 668.256 15.5089C676.676 8.63893 691.936 7.06893 698.716 17.0189C698.956 22.0089 695.576 32.2089 705.256 32.5089L700.736 25.1689C699.696 23.4789 702.356 18.7489 703.636 17.0089C718.286 -3.02107 751.766 -4.48107 776.416 8.02893C783.086 11.4189 796.306 3.71893 805.346 32.1289C792.776 33.6589 783.446 35.3689 775.256 45.5589C754.586 24.1789 729.026 35.1489 710.486 51.8189C700.286 56.1589 677.866 55.8689 681.216 77.1589C685.816 67.0089 690.326 59.8089 699.666 58.0689C708.986 56.3289 717.646 59.6489 728.126 62.6989C725.676 59.8589 722.266 57.6989 715.716 54.2389C726.756 38.8289 750.466 32.8889 768.126 43.4089C771.576 45.4689 772.786 49.6289 772.636 53.7889C782.276 36.0489 807.016 32.7089 826.686 42.8889L818.376 34.8089C822.676 18.3489 842.186 9.94893 859.656 17.5589C878.336 2.08893 903.796 3.76893 920.116 20.2689C924.846 28.4089 927.876 35.6889 931.196 45.1389C942.356 39.7089 952.256 40.1589 962.516 48.6389C960.486 41.1889 953.116 38.9989 944.666 37.3689C968.466 22.1989 1003 31.1989 1022.77 52.0389C1040.58 52.6089 1058.61 57.1689 1059.44 72.1789C1059.63 75.6389 1054.74 82.1289 1050.81 82.9689L1020.45 89.4689C1018.91 105.589 998.106 110.779 980.676 106.709C980.396 94.8389 976.936 86.3689 966.396 80.9089C958.186 76.6589 943.256 78.2889 935.726 85.0389C929.346 90.7489 932.036 102.849 938.676 107.209C942.006 109.399 948.196 107.899 949.386 105.439C942.926 104.689 938.476 103.739 936.186 98.9189C934.506 95.3589 936.076 87.7989 940.546 85.8089C946.936 82.9689 957.626 81.3989 964.026 84.3189C977.556 90.4989 981.396 110.349 972.206 121.209C961.396 133.969 923.706 135.059 902.876 119.419C897.446 115.339 896.806 109.369 897.006 101.689L892.116 108.719C886.556 111.739 876.186 117.299 869.206 117.479L829.116 118.509C829.756 138.929 810.066 151.139 790.026 154.049C786.106 177.609 768.216 185.189 746.686 188.979C752.796 199.969 734.776 215.789 720.906 221.429C707.226 238.959 688.026 234.769 670.756 226.809C655.396 232.609 633.566 243.989 615.396 230.709C610.566 227.179 610.046 219.129 612.736 212.589C616.586 203.239 635.896 199.259 643.366 203.619C646.456 205.419 648.926 210.709 651.446 216.129C653.236 210.099 650.486 202.579 642.696 199.669C630.346 195.049 615.116 200.889 608.606 213.199C606.956 216.329 606.576 225.379 608.346 228.689C610.116 231.999 615.636 235.829 620.196 237.709L626.996 240.509C631.206 242.239 618.616 265.979 584.446 271.539C565.836 274.569 545.826 268.859 535.536 252.579C532.026 247.029 530.816 238.449 532.456 232.269C533.866 226.939 539.596 222.479 545.146 217.779C531.356 218.979 525.006 231.749 527.976 246.459C518.046 245.499 507.836 241.049 503.346 234.039C497.536 224.959 497.596 212.319 504.096 204.549C510.716 196.649 520.946 194.869 531.436 193.459C515.606 188.499 498.936 197.189 495.266 214.049C491.976 229.189 501.946 246.279 520.326 248.009C527.996 248.729 535.366 253.439 534.946 261.739C519.726 271.019 502.166 276.969 485.246 271.659C477.556 269.249 470.356 271.459 464.546 274.979C452.436 282.309 445.366 275.709 437.516 268.189C431.746 263.439 420.086 262.959 416.766 253.799C414.036 246.279 417.296 239.359 422.536 234.749C427.296 230.559 438.636 229.289 442.476 233.769C444.136 235.709 442.696 243.339 442.436 245.329C446.576 244.729 448.426 238.099 446.766 235.079C445.336 232.479 441.436 229.149 438.086 226.479C438.106 217.609 447.896 211.959 456.886 212.209C467.286 212.509 475.786 216.969 480.126 226.259C481.216 213.739 468.446 209.509 459.366 208.179C444.186 205.959 439.096 216.489 432.846 225.559C426.156 230.249 412.386 232.229 411.596 244.469C410.896 255.499 417.296 264.579 430.736 269.009C414.916 275.989 397.836 276.599 383.286 267.869C372.366 261.319 373.756 249.349 371.636 236.979L371.146 257.789C363.296 262.049 345.796 255.259 348.136 244.039C350.186 241.749 354.646 238.219 355.646 235.749C356.916 232.629 353.956 226.319 350.846 224.219L350.946 224.269ZM899.576 88.1889C898.536 71.7089 883.176 61.0789 867.036 62.8189L851.536 48.4189C866.016 37.3189 883.906 42.7389 894.406 58.4889C894.436 46.3689 881.326 41.3589 873.746 38.6189C862.016 34.3889 855.016 44.4289 845.886 46.8189C832.306 48.5189 816.176 46.5989 809.936 62.4889C821.246 55.2589 828.946 49.6189 840.716 51.1189C850.386 52.3589 859.286 58.0889 865.126 67.3189C883.046 64.5789 889.396 72.4089 899.566 88.1789L899.576 88.1889ZM1013.61 75.6989C1015.6 65.1289 1007.97 57.1589 999.936 54.7289C991.466 52.1689 979.676 52.2789 976.306 61.0589C984.296 57.8689 992.976 55.6489 1001.13 59.4389C1006.08 61.7389 1010.28 69.1289 1013.61 75.6989ZM801.946 98.1589C815.196 95.5689 824.576 103.329 829.186 116.919C831.156 109.169 826.036 101.749 820.396 97.4089C805.886 86.2489 795.236 103.399 784.226 92.0389C774.876 82.3989 761.006 81.0689 749.066 86.3989C738.656 91.0389 728.766 100.979 729.386 114.429C733.966 104.259 740.856 93.6589 749.536 90.5689C761.056 86.4789 775.006 87.2189 781.936 95.7289C784.436 98.8089 787.116 101.279 790.636 101.029C799.256 100.419 805.166 105.059 806.296 112.199C807.206 117.959 803.956 123.749 800.776 130.359C806.636 128.129 810.016 121.279 810.436 114.939C810.796 109.469 807.076 104.099 801.946 98.1489V98.1589ZM691.636 160.469C696.816 150.519 705.416 142.149 714.046 141.209C726.866 139.799 733.326 143.269 743.896 152.119C740.976 145.779 734.736 140.399 728.956 138.039C711.456 134.629 697.836 140.599 689.206 155.869C674.366 153.259 658.216 157.369 654.546 173.349C664.236 160.299 676.816 157.189 691.646 160.469H691.636ZM91.4356 172.949L99.8656 182.399L124.176 182.959C131.676 187.509 139.916 190.919 147.396 186.599C153.406 183.129 157.166 174.669 156.896 167.339C156.386 153.679 146.166 151.249 135.296 147.949C131.016 146.649 125.576 140.579 120.896 142.259C116.266 143.919 110.846 149.319 109.606 153.329C109.266 154.439 111.786 158.379 112.106 157.349L113.456 152.969C114.416 149.839 119.956 145.849 124.106 145.819C126.926 145.799 130.736 150.399 134.016 151.969C139.086 154.399 148.696 155.359 150.776 159.639C153.636 165.519 153.226 174.149 149.736 178.789C146.066 183.689 138.646 186.089 132.516 183.019C115.416 174.479 106.296 183.659 91.4356 172.959V172.949ZM383.616 177.029C389.036 172.769 392.116 167.879 398.746 167.109C408.656 165.969 419.266 168.699 426.196 175.259C432.426 181.159 434.496 190.449 436.576 200.459C439.266 190.679 436.016 180.019 428.776 172.839C422.086 166.199 412.566 162.489 402.386 162.679C392.606 162.309 385.566 167.029 381.136 175.269C369.366 175.859 360.216 183.669 359.136 193.699C357.946 204.219 365.076 216.739 377.576 215.189C372.096 211.039 367.146 208.029 364.966 204.499C362.186 199.989 361.846 190.139 365.276 186.869C369.996 182.379 379.016 180.629 383.616 177.019V177.029ZM290.846 218.719C277.926 210.629 269.446 220.509 262.126 229.109C255.906 235.139 240.856 225.509 240.316 218.469C237.196 207.319 242.916 199.209 254.066 195.369C244.746 193.609 236.016 202.249 235.256 212.529C234.756 219.269 239.546 227.389 244.276 230.509C250.386 234.539 259.406 236.189 265.386 234.009C269.216 222.149 277.396 218.429 290.846 218.729V218.719Z" fill="black"/>
<path d="M526.585 115.399C536.405 112.919 544.515 110.329 553.235 114.319C560.845 117.799 564.385 126.909 565.685 136.439C573.085 132.859 580.235 132.199 585.265 138.809C588.025 142.439 590.445 148.909 589.335 153.319C588.435 156.899 581.805 161.229 578.905 163.869C573.915 172.719 568.705 179.069 556.835 179.759C542.505 180.589 528.385 174.349 516.575 166.689C510.375 169.599 502.385 172.229 496.305 170.279C491.855 168.859 486.665 162.789 483.615 156.849C492.765 152.759 500.285 146.689 496.075 136.369C493.405 146.339 489.765 152.139 480.205 153.129C470.045 154.169 458.435 151.389 452.805 141.809C447.175 132.229 449.385 117.099 457.855 109.499C468.445 99.9885 483.655 100.419 495.665 105.669C493.845 96.2186 495.275 83.9885 504.805 77.5985C512.235 72.6285 523.625 74.6885 532.675 76.5685C542.875 59.7085 564.715 49.5885 583.295 58.3985L603.585 68.0285C610.475 71.2985 614.125 79.6085 616.785 88.1085C627.515 75.3985 647.755 85.0485 651.745 93.3386C653.285 96.5285 651.765 104.819 651.535 108.319L654.865 119.049C655.665 121.629 651.905 127.319 649.685 128.929L634.795 139.709C635.505 142.319 637.445 151.669 635.475 154.419C623.625 167.269 601.715 172.509 585.265 165.759C588.975 160.649 593.535 154.459 593.775 150.349C594.105 144.739 590.035 138.099 585.945 132.729C594.025 126.269 601.845 116.359 595.435 105.479C593.745 114.249 592.395 124.539 584.715 128.659C581.465 130.399 572.705 129.879 569.275 129.429C566.185 120.199 560.285 113.339 553.255 110.339C544.305 106.519 533.685 107.649 526.585 115.359V115.399Z" fill="black"/>
</svg>
