<svg width="971" height="169" viewBox="0 0 971 169" fill="none" xmlns="http://www.w3.org/2000/svg">
<g clip-path="url(#clip0_215_3657)">
<path d="M967.22 103.01C956.61 97.2195 945.09 95.1395 933.84 95.1795C925.52 77.9995 902.58 74.6095 882.3 78.6795C874.9 80.1595 867.75 87.2995 863.47 91.9795L846.09 85.1295L855.55 84.2795C849.3 70.6295 832.69 67.8795 821.02 72.4795C833.63 76.9195 836.97 86.4495 845.74 87.4395L842.29 88.4395C841.42 88.6895 840.85 90.5895 840.3 91.8295C837.79 88.0595 831.4 80.0495 826.68 78.4995C807.84 72.3095 791.7 77.7095 776.96 88.9995L782.9 80.2395C774.11 66.6395 753.59 64.8495 740.7 73.3395L733.52 89.1395L741.91 104.01C747.41 99.8395 753.83 96.0395 759.9 95.9695C767.23 95.8895 775.83 98.7995 778.21 106.66C767.29 97.6495 749.89 95.3295 742.57 109.07C739.4 115.02 742.47 126.27 732.79 129.41C741.27 115.43 741.1 99.3195 727.43 89.7495C739.04 79.8495 741.12 62.5195 729.06 51.7295C723.67 46.9095 713.78 43.7895 707.25 40.8995C694.22 27.4095 676.28 24.0495 658.91 30.8995L671.95 37.2195C641.52 32.5095 636.86 35.5395 619.48 53.0995L618.16 51.5195C622.03 46.0295 629.41 38.9395 636.54 33.4795C621.25 29.4595 603.77 34.5395 595.42 49.9195L617.37 53.5395L618.16 54.5295L630.09 65.4495C644.36 54.8895 666.35 55.9095 673.37 72.8395C661.63 60.9995 645.4 56.8395 632.36 67.3595L633.59 76.6195C623.75 56.2195 599.33 47.3395 578.75 58.2395C590.22 61.4195 590.22 69.3995 592.43 77.5195C594.4 84.7795 596.21 89.7595 590.75 95.9195C575.54 113.07 564.96 100.67 552.15 109.99C540.54 118.44 522.15 119.03 512.12 107.09C525.73 113.6 540.24 114.49 554.54 107.21L549.79 98.5495C559.75 107.58 574.94 105.37 585.66 97.1295C592.9 91.5595 592.33 84.4495 588.25 77.5395C589.13 52.8895 564.48 69.1895 562.24 50.8695C552.94 42.0095 538.99 40.8195 527.13 46.7195C514.51 42.8295 502.24 45.7595 491.68 54.2195C484.24 61.8795 476.4 72.8695 478.09 84.8395C487.2 89.1095 468.04 86.0395 472.01 113.57C464.52 112.16 456.72 112.38 451.43 116.98C457.11 130.91 453.92 144.55 441.68 152.26C423.38 163.78 389.46 160.4 384.57 140.27C369.96 147.96 358.96 140.06 352.12 127.59L344.63 113.93C349.2 102.43 358.21 97.9995 370.52 100.57C379.38 89.6995 397.91 87.5695 405.5 100.44C395 94.3195 384.37 91.1395 375.51 99.4495C375.41 100.78 375.18 103.96 375.17 103.97C366.91 101.87 361.87 101.73 355.58 104.93C352.7 106.39 348.51 111.85 348.78 114.73C349.06 117.62 353.15 121.99 354.92 124.9C358.92 131.47 362.08 138.03 368.7 140.1C375.36 142.18 381.9 139.54 387.69 135.26C384.55 154.13 412.85 158.57 432.76 153.23C445.34 149.85 451.71 139.64 450.84 127.22C450.53 122.82 448.36 115.49 444.63 113.28C441.9 111.66 436.89 111.08 431.83 110.58C432.81 93.8595 419.75 82.9595 403.03 82.1095C407.69 78.7595 409.83 70.9995 406.29 65.3295C398.49 52.8595 380.59 47.8495 367.03 53.6495C360.93 56.2595 357 61.9795 355.74 66.7795C343.04 60.5095 329.49 61.6495 317.51 69.3995C322.07 59.1995 332.4 60.5695 342.82 60.6495C343.75 53.4595 340.35 46.2295 334.49 42.9295C328.17 39.3795 320.97 41.3195 313.65 40.9995C304.53 40.5895 295.5 34.9395 285.92 39.6895C279.27 42.9795 272.76 50.0495 270.03 58.8395L276.92 64.8195C265.69 63.1095 255.53 62.6095 247.06 68.5295L227.48 82.1895C231.36 71.3195 248.06 70.4495 244.06 53.6395C242.4 45.8595 236.69 41.5395 228.25 40.8795C213.18 23.6395 185.94 27.1795 167.66 41.2895L165.26 32.8195C164.72 30.9095 159.51 29.6095 157.54 29.6095H143.58C137.93 18.1095 129.79 9.69954 117.59 4.64954C96.2999 -4.15046 70.4299 -0.520462 53.8799 16.0195C47.0599 22.8295 44.2299 32.0795 41.9299 41.8295C31.2299 33.6795 19.2799 29.1795 6.27988 33.6095C-3.51012 36.9495 -13.1001 44.1095 -17.3301 54.6195C-28.3201 46.3295 -41.4801 45.8095 -54.5601 50.7395C-64.7801 54.5895 -72.7601 63.3295 -78.1201 75.0395L-78.2401 68.0095C-108.71 62.6495 -146.4 72.8595 -148.9 102.6C-150.23 118.39 -137.56 129.25 -121.91 131.07C-123.04 141.42 -120.48 150.9 -112.77 157.24C-102.88 165.37 -88.5001 169.21 -75.3101 162.87C-76.0901 182.55 -63.6201 199.69 -41.7101 201.24C-33.5201 201.82 -21.1201 203.19 -14.8501 197.97L2.45988 183.57C9.75989 177.5 11.2399 170.8 11.7299 160.29L13.0999 173.71C24.8099 178.8 39.7899 175.16 45.2899 164.5C52.1099 151.29 50.7199 139.3 39.7099 129.31C47.7999 131.09 49.3899 136.98 52.9799 145.54L60.9299 132.11C64.1799 126.62 72.3099 123.74 78.4899 122.6L80.3599 121.22C93.7899 126.87 113.84 142.07 115.95 152.51C117.56 160.48 114.81 167.79 110.49 174.81C121.22 188.38 140.71 191.54 155.83 182.82L157.79 170.99L147.51 169.46L148.54 168.23L161.85 169.1C158.79 178.8 158.31 188.68 164.5 193.68C178.89 205.3 195.61 201.82 207.05 188.74L205.18 195.26C203.2 202.13 231.31 215.38 256.77 201.69C258.78 211.43 268.57 218.54 277.38 214.13L290.31 207.67C293.4 201.88 297.33 194.7 301.86 192.44C308.97 188.88 318.78 188.07 323.65 193.05C316.09 192.25 310.5 191.27 303.58 194.32C298.99 196.34 295.56 204.42 292.98 210.47C289.26 211.95 282.69 214.02 280.37 216.46C277.79 219.17 278.64 229.07 281.8 231.29C289.74 236.86 300.18 236.32 309.62 234.01C321.11 245.16 336.89 245.43 348.9 237.65C360.52 245.11 373.4 236.68 378.5 225.4L390.07 219.61C397.03 212.08 398.18 200.94 394.16 192.52C389.72 183.23 380.39 179.44 370.06 176.83L385.08 177.15C382.42 169.87 378.63 162.29 374.55 155.57L375.61 154.64C380.87 159.51 384.25 166.88 387.77 175.18C394.98 176.79 405.57 173.9 413.96 169.81C424.07 182.51 438.1 191.39 454.25 185.8C475.03 193.97 497.88 191.5 516.15 179.76C522.91 173.99 528.56 166.94 531.23 159.05C548.73 169.32 569.32 168.37 581.13 150.44C596.38 167.26 627.46 159.06 643.26 144.59C651.67 136.89 655.26 125.39 647.78 116.82C641.25 108.41 630.59 104.64 620.13 113.04C610.87 104.87 595.44 106.41 588.78 115.17C586.88 117.8 586.91 125.45 586.71 129.46C580.44 122.96 583.64 114.66 590.67 109.21C599.67 102.24 610.48 107.53 620.01 107.97C626.97 108.29 634.72 103.29 642.69 107.57C647.87 110.35 654.79 117.63 655.17 125.79C655.65 136.03 649.07 143.94 641.51 150.46C656.14 151.25 667.14 144.46 674.71 132.71L672.85 141.77C684.84 148.69 698.53 146.02 712.54 141.12C707.84 146.55 700.3 148.05 692.38 149.05C697.64 160.64 709.97 162.81 721.99 163C732.28 163.17 741.16 160.4 744.06 150.45C750.33 157.47 756.6 161.83 764.08 162.57C771.23 163.28 779.43 156.95 785.43 154.05C794.41 154.55 804.35 155.49 811.5 149.57C817.63 144.5 821.78 133.54 818.46 124.59C816.96 120.54 810.91 116.12 806.8 115.5C802.24 114.81 796.7 118.02 792.04 120.73C796.5 108.9 814.61 111.75 819.58 121.47C823.66 129.45 821.72 138.82 818.05 146.71C830.37 153.11 849.95 152.82 856.11 143.65C867.97 156.36 886.23 158.78 901.99 150.8L917.01 150.19C922.96 145.46 922.86 137.57 924.5 129.08L925.58 146.56C946.68 151.67 958.77 124.06 955.75 119.79L948.51 109.55C957.01 111.76 960.25 118.45 958.42 129.26L969.53 121.14C971.11 113.67 970.44 108.74 967.21 103.01H967.22ZM78.1899 121.6C67.4399 108.71 47.7399 102.69 31.1999 114.85C25.6699 91.0795 10.6599 95.3595 -7.03012 89.0095C10.0399 88.2395 25.5199 92.6795 33.9999 108.58C51.0799 102.29 70.0799 106.44 79.9599 119.97L78.1899 121.59V121.6ZM136.4 151.39C135.52 158.17 141.91 165.32 147.28 167.43L146.43 168.55C136.99 167.26 132.49 157.76 133.8 148.22C136.54 128.15 154.97 134.95 162.29 126.29L167.16 133.82C152.77 130.43 138.38 136.17 136.4 151.38V151.39ZM373 155.06C361.02 144.95 346.86 142.39 330.81 149.22C342.71 138.14 360.82 140.99 373.88 153.07L373 155.07V155.06Z" fill="black"/>
<path d="M113.44 154.639C111.35 146.879 107.75 141.709 100.53 139.149C93.7999 128.899 80.91 123.699 68.6 129.349C65.28 130.869 62.04 137.529 59.66 141.369C56.92 145.789 50.58 153.099 51.84 158.159C55.41 172.449 69.42 174.429 81.09 170.769C71.49 181.089 57.72 173.919 49.8 163.429C42.61 177.889 26.19 181.059 12.96 176.149C6.54996 183.249 0.239961 189.209 -7.79004 196.439C11.83 205.379 30.73 199.479 47.61 191.589C65.63 203.129 85.84 193.359 85.84 190.379V186.279C101.93 184.909 114.08 170.659 113.46 154.629L113.44 154.639Z" fill="black"/>
</g>
<defs>
<clipPath id="clip0_215_3657">
<rect width="1119.36" height="243.02" fill="white" transform="translate(-149)"/>
</clipPath>
</defs>
</svg>
