<svg width="859" height="560" viewBox="0 0 859 560" fill="none" xmlns="http://www.w3.org/2000/svg">
<path d="M444.014 308.988L453.272 318.338C445.146 325.928 435.558 333.063 425.357 334.147C393.088 337.604 351.797 328.254 340.291 300.376C328.676 296.605 314.891 291.718 309.044 283.562C300.383 271.462 299.079 255.716 307.095 244.071C317.657 228.702 335.434 226.235 351.058 227.225C341.454 210.222 332.432 200.652 314.828 201.186C251.06 203.119 191.992 243.301 135.769 213.192C140.94 201.72 143.313 194.774 142.575 184.214L133.49 205.366C118.369 220.295 99.7117 223.705 78.6024 220.562C47.0564 233.605 8.40589 232.709 -18.4404 210.913C-26.488 204.392 -31.8636 199.803 -42.3632 197.242C-50.9609 195.136 -60.3917 188.551 -63.4096 182.501C-67.2291 174.848 -66.7418 159.841 -63.221 154.011C-42.0174 151.292 -25.6393 144.88 -10.3614 132.733C2.98318 130.863 20.6188 129.983 32.5801 126.369C48.2824 121.623 59.7251 116.186 75.2859 124.53C85.4554 129.999 96.7095 141.596 97.6055 156.839C98.3914 170.338 91.3654 181.716 82.0604 189.227C61.9099 205.539 3.53331 201.202 5.02652 176.341C5.49806 168.547 18.8741 151.371 26.7802 148.636C32.0457 146.813 41.3036 150.428 50.4043 152.958C47.4965 147.898 37.4684 143.639 30.7569 143.828C14.5673 144.299 -1.38641 164.697 0.56262 179.563C1.36424 185.691 7.80861 193.879 15.7305 199.174C22.9607 204.015 37.8614 202.553 47.5122 203.182C66.641 204.439 81.1959 201.123 92.7643 187.546C102.934 175.618 107.712 157.688 99.7903 141.816C91.4283 125.049 74.1857 116.563 55.5756 115.321C64.1261 99.7638 66.4367 85.385 60.4953 69.8589C51.3632 45.9885 23.6523 44.1813 -2.10944 45.2499L-34.6771 37.6597C-61.7906 39.6555 -86.2164 44.6213 -92.3307 67.706C-95.8672 81.0635 -91.1204 95.9609 -79.662 102.514C-65.2014 110.78 -50.065 113.31 -35.3687 107.763C-24.3818 103.63 -14.5424 95.8823 -17.8274 82.3521C-22.8729 100.33 -35.7616 105.924 -53.5387 105.39C-70.1212 104.887 -86.0278 97.6738 -87.7567 81.7706C-89.6272 64.5788 -80.7151 50.0585 -61.8221 47.3085C-43.1019 40.7869 -24.0518 41.9969 -6.14897 52.5886C13.2942 46.5228 33.5547 50.1685 49.1312 63.5731C62.2243 79.4134 60.6367 103.504 43.7556 115.824C26.8745 128.144 3.78481 121.199 -12.2318 127.987C-30.3547 135.672 -42.4889 149.909 -66.6789 147.442C-78.6718 146.216 -99.2937 145.949 -106.917 133.975C-112.607 125.049 -115.75 120.366 -126.014 118.731C-150.974 114.803 -167.51 94.7037 -165.891 70.5975C-164.319 49.3985 -146.023 28.6552 -122.289 29.111C-108.835 12.5949 -90.476 3.19759 -68.8009 0.306098C-29.9617 -1.57965 10.7164 4.59619 29.7195 37.2197C63.7175 17.2307 102.604 29.0638 127.517 59.2359C114.235 24.2237 66.6725 16.2879 36.3525 27.0209C33.3503 28.0895 25.0827 24.9309 26.513 23.2809L33.2089 15.565C80.9287 -4.81686 138.472 7.88054 172.439 49.6185C160.399 53.1229 149.349 56.313 139.887 64.1231C170.474 53.7672 203.938 48.6599 233.157 67.1875C237.103 77.1191 244.411 82.9021 255.555 83.9707C267.014 88.5279 278.158 97.3281 280.468 107.213C283.455 119.989 277.388 134.415 266.291 142.13C251.893 152.141 234.823 149.438 216.198 148.699L235.908 156.902C238.989 162.449 247.932 170.165 255.257 170.794L345.667 178.541C367.137 180.38 386.156 188.803 401.858 205.083C413.836 191.537 429.192 185.283 446.592 188.064C461.1 190.374 466.632 198.184 473.784 213.255L472.401 197.556C504.245 182.596 553.018 190.814 571.676 224.836C577.554 235.569 577.633 240.598 590.663 244.527C604.526 248.707 609.147 266.684 606.852 280.545C604.746 293.321 591.936 304.651 576.752 308.36C565.876 320.271 553.38 329.071 536.923 332.387C526.298 345.587 510.721 351.418 493.149 349.642C474.9 350.962 456.714 344.597 447.849 330.171C452.816 320.397 462.247 318.841 472.102 322.188C490.335 328.411 524.034 324.121 527.209 308.36C505.456 324.718 472.982 324.231 446.623 308.061L444.077 308.988H444.014ZM110.306 119.753C109.221 111.786 112.773 101.917 115.115 92.0008C103.861 100.707 103.327 116.956 108.954 130.674C119.108 155.409 158.481 144.252 157.475 161.428C157.208 165.875 155.385 172.114 153.593 179.295C166.733 173.638 164.438 159.464 158.733 150.538L189.886 142.225C209.69 145.148 235.232 130.926 231.02 108.47C226.964 86.8622 181.492 82.7449 170.175 97.0766C166.875 101.241 166.623 113.498 168.918 119.784C170.474 124.027 183.504 123.619 185.972 121.906L171.983 117.223C168.918 116.201 170.678 105.343 172.737 102.875C182.105 91.6237 200.81 91.5451 214.249 97.5481C224.104 101.948 228.332 108.045 225.566 119.36C216.968 132.482 202.523 140.229 186.789 136.253C154.19 152.282 113.795 145.43 110.29 119.753H110.306ZM267.926 197.839L309.091 194.884C320.235 194.083 332.872 197.163 342.869 195.717C316.856 187.53 291.895 190.579 266.071 193.423L207.647 199.834C198.122 200.872 189.807 198.892 182.325 206.497L267.941 197.854L267.926 197.839ZM583.291 291.199C590.993 269.387 575.637 246.617 553.899 243.442C573.405 256.266 584.391 269.827 583.291 291.199ZM444.376 305.405C429.601 287.223 430.041 261.876 451.009 246.255C435.762 247.78 432.446 261.986 429.805 273.725C427.416 284.379 433.184 298.239 441.263 306.254L444.376 305.389V305.405ZM429.082 314.017C402.943 320.601 374.729 316.578 362.611 290.586C346.72 283.515 343.45 268.382 348.763 251.787C335.749 266.134 344.111 287.255 360.646 295.678C367.295 308.674 377.763 316.453 392.522 319.077C404.499 321.796 418.897 323.477 429.066 314.032L429.082 314.017Z" fill="black"/>
<path d="M583.37 508.627C561.176 518.574 540.633 521.78 517.543 520.114C506.98 517.616 494.736 510.466 491.985 503.52L519.02 496.165H481.109C471.882 496.149 460.549 483.499 458.192 475.862C454.639 464.327 457.877 450.954 465.579 442.751C455.598 446.036 448.965 448.063 441.232 448.534L330.263 455.354C280.359 458.419 161.263 464.783 158.418 431.672C157.24 418.016 199.207 437 221.447 413.161L236.27 397.273C243.17 410.945 246.125 418.142 256.467 424.821C296.187 450.514 380.545 442.736 434.52 436.607L446.938 439.483C442.647 432.427 439.472 424.648 441.311 417.136C444.816 402.789 469.572 403.968 470.09 401.516L471.882 393.093C512.387 371.988 591.449 392.983 580.368 429.142C588.793 431.107 600.927 435.02 605.626 441.588C612.417 451.064 607.748 460.54 601.524 472.782C610.798 470.315 614.947 454.553 612.464 444.464C609.713 433.291 599.858 429.048 585.838 423.689C606.397 415.439 625.007 422.982 636.779 440.976C641.526 448.22 639.043 461.122 634.768 469.309L659.366 473.206C665.653 474.196 674.173 483.075 674.22 490.147C674.267 495.851 664.506 503.457 658.517 505.594L648.537 509.145C649.197 508.91 645.047 525.646 647.389 534.069C651.947 550.396 698.771 547.662 729.641 544.268C774.045 539.396 816.892 538.186 859 548.652L797.103 546.232C776.465 545.43 756.095 548.416 735.866 552.738C698.991 560.611 645.99 567.902 633.604 541.36C630.398 534.493 631.373 521.67 631.467 510.701C617.053 518.26 600.125 517.961 583.338 508.627H583.37ZM555.203 418.189C536.593 397.76 500.332 395.89 481.344 417.985C508.332 403.166 533.512 401.72 553.238 420.971L555.203 418.205V418.189ZM556.256 420.861L555.093 422.479L553.113 436.324C538.731 435.491 526.895 437.943 520.812 448.314C534.518 441.604 549.922 439.31 564.477 445.234C570.088 447.513 575.935 462.064 572.839 467.046L561.113 485.919C572.792 482.729 577.145 470.975 576.517 459.283C575.982 449.351 569.884 441.966 558.551 438.445L556.241 420.861H556.256Z" fill="black"/>
<path d="M180.046 419.508C195.764 407.754 201.47 392.432 198.106 373.7C195.356 358.41 179.779 346.216 160.886 344.44C143.612 342.821 110.824 320.475 91.4125 351.071C88.5518 355.566 86.9172 366.77 88.206 372.317C89.4949 377.865 99.5387 384.842 105.339 383.946C100.985 379.845 94.8704 373.889 92.0569 368.656C89.6992 364.272 95.7507 353.884 99.6959 349.264C108.797 338.625 124.436 338.61 138.504 343.748C147.761 347.127 159.959 358.489 161.122 371.767C164.281 407.88 111.139 407.88 64.3618 391.898C49.7127 386.901 42.1681 370.825 41.335 357.954C38.9773 321.559 86.0998 306.489 128.083 309.318L130.22 300.25C147.164 289.627 173.79 286.704 189.414 300.47L196.959 310.842C197.792 311.973 265.206 308.108 298.198 299.307C308.053 296.683 313.162 295.536 322.766 299.26C334.114 303.66 341.8 309.821 345.808 321.512L253.842 323.351C239.602 323.634 226.446 326.902 214.94 333.22C232.513 337.494 243.751 341.533 248.372 353.963C253.842 368.64 249.205 381.495 235.153 390.515C216.528 402.474 214.862 426.879 180.046 419.508Z" fill="black"/>
<path d="M65.1007 410.772C61.1712 410.238 54.6325 399.332 53.5637 395.482L95.7665 404.722C123.839 410.866 154.457 408.195 163.794 387.436C168.902 376.09 165.444 362.544 158.764 350.239C172.942 348.558 188.188 358.018 191.599 371.595C197.195 393.785 186.711 412.186 166.513 419.824C143.643 428.451 122.629 421.489 99.4445 415.502L65.1007 410.788V410.772Z" fill="black"/>
<path d="M679.831 529.197L717.884 539.977L668.294 540.543C661.755 540.622 650.847 532.639 651.319 527.139C653.079 505.939 682.676 508.124 679.658 487.538C678.086 476.899 669.158 471.336 656.238 465.836C661.237 462.504 673.166 463.761 678.023 468.806C692.154 483.483 709.145 475.783 711.597 493.163C714.395 512.995 685.159 509.334 679.847 529.197H679.831Z" fill="black"/>
<path d="M245.103 339.364C240.969 337.699 236.159 334.839 230.422 329.936L306.152 328.38L339.694 326.148C348.936 325.536 358.885 325.316 365.817 333.22C323.756 334.572 286.111 334.98 245.103 339.38V339.364Z" fill="black"/>
</svg>
