<svg width="356" height="222" viewBox="0 0 356 222" fill="none" xmlns="http://www.w3.org/2000/svg">
<path d="M139.039 182.987C102.659 201.45 67.4139 207.051 48.2627 175.181C36.9258 156.354 21.3984 152.552 0 148.386C39.4969 144.766 79.3379 180.681 98.894 139.387C92.9826 126.283 81.4028 107.132 84.318 91.6421C90.5128 58.6392 120.616 45.6361 156.267 43.1892C164.931 21.8344 181.613 6.93045 198.355 2.50174C224.025 -4.31321 243.439 3.57353 263.501 16.7585C283.159 8.36624 304.031 -2.99876 324.741 6.20244C346.504 15.8688 358.792 32.7949 360.067 55.4036C383.652 39.6908 409.686 59.266 420.639 77.264C433.959 99.1042 425.032 125.191 406.164 141.733L402.297 169.822C390.839 192.431 366.424 204.402 339.904 200.762C320.611 217.082 297.998 221.773 274.211 213.179C249.128 227.881 220.057 224.2 201.25 202.178C177.868 211.601 157.947 196.657 139.039 183.027V182.987ZM180.135 139.832C176.025 127.537 175.215 116.839 176.612 103.674L179.892 72.6937C182.342 65.8585 200.278 60.4592 207.607 58.7807C213.882 41.7737 224.754 32.35 240.868 28.9122C256.983 25.4744 269.048 35.1407 281.114 44.1801C303.626 42.6634 328.729 47.8404 329.761 74.8575C329.923 79.1447 328.81 88.8919 332.393 90.2266L348.528 96.2731L337.252 83.5734C335.369 68.0021 330.774 54.5138 320.773 45.6564C311.38 37.3247 292.613 38.801 282.41 34.6958C264.534 27.5169 254.857 16.6372 234.592 23.2904C220.259 28.0022 210.279 40.6614 200.298 53.7453C192.464 57.1225 177.442 63.5127 174.062 70.5299C170.235 78.4369 171.571 91.7635 172.422 100.014C164.203 113.947 171.106 134.129 178.779 142.643L180.135 139.873V139.832ZM399.342 121.875C397.823 111.056 386.507 101.693 381.668 95.7877C380.312 84.3216 378.449 70.267 375.048 63.4116L369.704 98.9829L399.321 121.875H399.342ZM121.203 122.967C117.276 114.17 114.017 99.2255 119.847 88.5076C123.714 81.4096 132.682 74.5542 141.083 68.629C126.791 68.4268 113.652 79.5896 112.336 88.3459C110.656 99.5895 112.114 113.826 113.247 123.553C105.453 136.94 103.105 154.918 118.653 162.582C113.268 145.009 115.636 134.959 121.203 122.987V122.967ZM184.548 144.301L183.354 147.699L215.117 158.376L241.293 171.379C253.946 177.668 270.243 176.657 277.652 162.057C254.553 172.977 232.608 166.101 220.462 148.204C208.882 149.215 193.78 147.699 184.568 144.322L184.548 144.301Z" fill="black"/>
</svg>
