<svg width="717" height="799" viewBox="0 0 717 799" fill="none" xmlns="http://www.w3.org/2000/svg">
<circle cx="431" cy="415" r="273" fill="black"/>
<path d="M262.25 135.625C257.417 118.458 255.333 104.458 256 93.625C255.667 93.875 254.375 94.75 252.125 96.25C249.958 97.6667 247.958 99.1667 246.125 100.75C244.375 102.333 242.875 104.208 241.625 106.375C240.375 108.542 239.75 110.875 239.75 113.375C239.917 119.292 242.542 124.292 247.625 128.375C252.708 132.458 257.583 134.875 262.25 135.625ZM206.25 81.125C206.25 79.9583 206.042 79 205.625 78.25C205.208 77.5 204.625 76.75 203.875 76C203.208 75.1667 202.625 74.5 202.125 74C201.708 73.5 201.417 73 201.25 72.5C201.167 68.1667 201.75 65.5417 203 64.625C202.917 64.125 203.333 63.5833 204.25 63C205.25 62.3333 206.458 61.7917 207.875 61.375C209.375 60.9583 210.875 60.625 212.375 60.375C213.875 60.125 215.083 60.1667 216 60.5C216.25 60.5 217.125 60.7083 218.625 61.125C220.208 61.5417 221.875 61.9583 223.625 62.375C225.375 62.7917 227.708 63.2083 230.625 63.625C233.542 63.9583 237 64.2917 241 64.625C249.667 65.875 262.208 63.375 278.625 57.125L287.375 57.875C288.125 56.5417 289.458 55.8333 291.375 55.75C293.292 55.6667 295.208 56.2083 297.125 57.375C299.042 58.4583 300.542 59.9583 301.625 61.875C302.792 63.7917 303.167 65.8333 302.75 68C299.75 69.8333 297.292 72.625 295.375 76.375C293.458 80.0417 292.5 84 292.5 88.25C292.167 93.9167 293.375 99.5 296.125 105C298.958 110.5 302.667 116.25 307.25 122.25C298.667 119.583 291.792 113.542 286.625 104.125C281.458 94.625 279.417 84.9167 280.5 75C277.167 75.4167 274.25 80.2917 271.75 89.625C271.417 92.375 271.208 95.0833 271.125 97.75C271.042 100.417 271.083 102.917 271.25 105.25C271.417 107.583 271.708 110.458 272.125 113.875C272.625 117.208 273 119.958 273.25 122.125C273.583 124.292 274.042 126.708 274.625 129.375C275.208 132.042 276.292 135.458 277.875 139.625C279.542 143.792 282.042 148.917 285.375 155C288.708 161.083 293.167 168.292 298.75 176.625C292.333 176.542 286.167 173.542 280.25 167.625C274.333 161.708 269.417 154.75 265.5 146.75C255.417 146.167 246.292 142.583 238.125 136C230.042 129.333 226.125 120.542 226.375 109.625C226.542 105.875 227.208 102.542 228.375 99.625C229.625 96.625 231.25 94.0833 233.25 92C235.333 89.8333 237.542 87.9583 239.875 86.375C242.208 84.7917 245.083 82.8333 248.5 80.5C246.333 80.0833 243.292 79.75 239.375 79.5C235.542 79.1667 232.542 78.8333 230.375 78.5C228.292 78.1667 225.958 77.7083 223.375 77.125C220.792 76.4583 218.458 75.5417 216.375 74.375C217.458 77.125 218.042 79.8333 218.125 82.5C218.542 87.3333 218.083 91.875 216.75 96.125C215.417 100.292 213.417 104.25 210.75 108C212.333 117.083 213.125 123.167 213.125 126.25C213.125 128.917 212.833 131.875 212.25 135.125C211.75 138.292 210.917 141.417 209.75 144.5C208.583 147.5 207.042 149.917 205.125 151.75C203.208 153.583 200.917 154.458 198.25 154.375C197.083 154.125 195.792 151 194.375 145C194.625 142.583 195.583 139.667 197.25 136.25C199 132.75 200.333 129.958 201.25 127.875C202.25 125.792 202.917 123.375 203.25 120.625C203.583 117.875 203.083 114.958 201.75 111.875C198.167 113.625 195.583 114.417 194 114.25C192.5 113.917 191.167 113.5 190 113C188.917 112.417 188 111.792 187.25 111.125C186.5 110.375 185.792 109.583 185.125 108.75C184.458 107.917 183.75 106.917 183 105.75C189.25 102.75 194.5 99.4167 198.75 95.75C203.083 92.0833 205.583 87.2083 206.25 81.125ZM269.625 188C270.875 188 273.167 189.042 276.5 191.125C279.667 187.292 281.917 185.292 283.25 185.125C285.75 186.042 288.167 187.708 290.5 190.125C292.833 192.458 294.208 195.375 294.625 198.875C290.875 200.042 287.917 201.875 285.75 204.375C283.667 206.792 282.75 210.083 283 214.25C283.25 217.667 283.875 221 284.875 224.25C285.875 227.5 287.125 230.583 288.625 233.5C290.125 236.417 291.75 239.208 293.5 241.875C295.25 244.458 297.417 247.625 300 251.375C291.583 247.708 285.125 241.875 280.625 233.875C276.208 225.792 273.708 216.583 273.125 206.25C269.625 207.167 264 208.583 256.25 210.5C248.5 212.417 242.167 214.208 237.25 215.875C232.417 217.542 227.917 219.75 223.75 222.5C219.583 225.167 216.458 228.583 214.375 232.75C210.792 238 214.333 243.917 225 250.5C226.833 243.917 229.542 238.042 233.125 232.875C236.792 227.625 241.292 224.875 246.625 224.625C251.042 224.375 255.083 226.208 258.75 230.125C262.5 234.042 264.833 238 265.75 242C266.75 246 267.292 249.292 267.375 251.875C267.458 254.375 267.5 257.458 267.5 261.125C267.5 264.708 267.583 267.833 267.75 270.5C268 273.083 268.5 275.542 269.25 277.875C270 280.208 271.083 282.5 272.5 284.75C273.917 287 275.333 289 276.75 290.75C278.167 292.5 279.875 294.542 281.875 296.875C283.958 299.208 285.375 300.917 286.125 302C280.208 300.75 274.833 297.625 270 292.625C265.167 287.542 262 282.375 260.5 277.125C259 271.792 257.75 266.417 256.75 261C255.833 255.5 254.958 251.333 254.125 248.5C253.375 245.667 252.125 243.5 250.375 242C248.708 240.417 246.25 240.167 243 241.25C241.417 242 240.208 243.25 239.375 245C238.542 246.75 237.917 248.833 237.5 251.25C237.083 253.667 236.792 256.125 236.625 258.625C236.542 261.042 236.458 263.875 236.375 267.125C236.375 271.958 236.375 276.833 236.375 281.75C234.542 283.583 232.167 284.75 229.25 285.25C223.833 282.417 221.167 279.708 221.25 277.125C222.583 271.208 222.375 266.625 220.625 263.375C218.958 260.125 216.042 257.208 211.875 254.625C207.792 252.042 204.375 249.667 201.625 247.5C198.958 245.25 197.417 242.208 197 238.375C197.083 234.625 197.833 231.333 199.25 228.5C200.75 225.667 202.583 223.208 204.75 221.125C206.917 219.042 209.833 216.75 213.5 214.25C217.167 211.667 219.542 210 220.625 209.25C215.208 203.167 212.5 199.125 212.5 197.125C215.5 193.375 218.417 191.375 221.25 191.125C226.083 192.125 232.083 193.083 239.25 194C244.917 194 250.292 193.542 255.375 192.625C260.458 191.625 265.208 190.083 269.625 188ZM236.125 357.75C238.292 358.417 242.458 360.917 248.625 365.25C251.958 361 255.167 357.458 258.25 354.625C261.417 351.792 264.875 349.917 268.625 349C270.208 349 272 349.583 274 350.75C274.25 350.917 274.583 351.375 275 352.125C275.5 352.792 275.958 353.625 276.375 354.625C276.875 355.625 277.375 356.583 277.875 357.5C278.375 358.417 278.875 359.25 279.375 360C279.375 361.5 278.917 362.5 278 363C276.75 363.583 275.667 363.583 274.75 363C267.167 364.917 261.25 368.75 257 374.5C252.833 380.167 251.083 386.792 251.75 394.375C252.167 397.292 252.833 399.958 253.75 402.375C254.75 404.708 256.042 407.375 257.625 410.375C259.292 413.292 260.583 415.625 261.5 417.375C262.5 419.042 263.25 420.708 263.75 422.375C255.417 416.625 249.083 409.583 244.75 401.25C240.417 392.917 239.542 384.542 242.125 376.125C238.375 372.625 234.292 370.25 229.875 369C225.458 367.667 220.25 366.667 214.25 366C214.083 365.333 213.667 364.375 213 363.125C212.417 361.875 211.917 360.917 211.5 360.25C211.167 359.5 211.083 358.792 211.25 358.125C211.417 357.375 211.958 356.667 212.875 356C219.042 354.167 224.542 350.375 229.375 344.625C234.208 338.792 237.542 332.75 239.375 326.5C238.125 324.167 237.542 322.833 237.625 322.5C239.292 320.167 240.792 319.167 242.125 319.5C245.208 319.75 248.042 321.417 250.625 324.5C253.292 327.583 254.875 331.083 255.375 335C254.625 336.75 253.542 338.5 252.125 340.25C250.708 341.917 248.833 343.917 246.5 346.25C244.167 348.5 242.167 350.5 240.5 352.25C238.833 353.917 237.375 355.75 236.125 357.75Z" fill="#55FF00"/>
<g clip-path="url(#clip0_274_19329)">
<path d="M715.07 201.28C714.51 201.98 712.37 202.05 711.28 202.06L638.94 202.28C635.22 202.29 631.93 202.77 628.21 202.29C626.66 202.09 625.35 199.51 625.35 197.86L625.31 79.07L625.12 60.06L625 4.23C625 2.87 626.66 0.05 628.32 0.05L712.61 0C714.27 0 715.26 2.63 715.34 3.74L715.75 9.73L716.11 73.32L716.44 148.75C716.84 151.82 716.69 154.43 716.69 157.41L716.81 197.1C716.81 198.38 716.01 200.1 715.07 201.28ZM712.26 3.6L629 3.78L629.51 198.43L712.77 198.25L712.26 3.6Z" fill="black"/>
<path d="M678.66 46.6998C678.48 44.2998 676.09 45.1298 674.82 45.1598L664.47 45.4098C664.69 50.2798 662.66 54.4998 658.26 56.1798C656.09 57.0098 653.77 57.3798 651.45 57.3498C647.88 57.2998 645.05 59.8398 644.6 63.4198C643.34 73.6098 643.42 81.6298 643.48 91.7498C643.49 94.3898 643.24 96.8998 642 99.3698C641.62 100.12 639.08 99.7798 638.84 98.9698C638.18 96.8198 637.89 94.9098 637.92 92.7398L638.23 71.0298L638.6 63.9898C638.99 56.6398 644.36 51.1398 652.01 51.4098C653.44 51.4598 655.84 51.1898 656.83 50.1498C657.94 48.9998 658.57 47.2998 659.03 45.3098L652.87 45.6098C648.02 45.8498 643.45 45.8498 638.52 45.7998C637.51 45.7898 635.99 44.3898 635.9 43.5498C635.57 40.3898 643.24 39.8298 648.76 39.5998L668.29 38.8198C669.16 38.2698 668.83 35.6298 667.94 35.2898C664.38 35.3098 660.99 35.2898 657.64 35.5898L651.28 36.1598C646.14 36.6198 640.32 36.9698 639.84 34.0098C639.24 30.3598 646.2 30.0398 651.42 29.6798L657.9 29.2298L668.39 28.7798V24.7798L662.32 25.1698L654.1 25.6598C650.85 25.8498 647.34 26.0998 644.19 25.6598C639.89 25.0598 637.86 21.4398 637.85 17.3398C637.85 15.2798 638.09 12.4198 639.57 11.0398C640.03 10.6098 641.71 11.0698 642.08 11.5398C643.95 13.8798 641.75 17.3298 644.83 19.8998C650.24 19.9298 655.13 19.9798 660.39 19.6898L668.25 19.2598L668.93 12.4698C669.04 11.3998 670.61 9.29983 671.62 9.63983C673.2 10.1798 673.5 12.4098 673.71 13.8698L674.48 19.2498L686.98 19.6698C694.07 19.9098 699.39 21.2498 699.48 15.9898C699.51 14.4298 700.15 10.8798 701.69 10.6398C704.64 10.4198 704.56 13.9498 704.78 15.7998C705.35 20.6598 703.21 24.5898 698.17 25.4698C693.88 26.2198 689.25 25.7198 684.79 25.5298L674.95 25.0998C674.17 25.6598 674.06 28.2498 674.62 28.7398L684.25 29.1398C691.13 29.4298 702.28 29.3298 702.33 33.6598C702.34 34.6398 700.9 35.8298 699.75 35.8698L692.21 36.1198C690.92 36.1598 688.72 35.8298 687.28 35.7198L680.77 35.1898C678.51 35.0098 676.7 34.9998 674.3 35.2698L674.34 38.8098L684.26 38.9598L688.71 39.2998C694.84 39.7698 706.95 38.7098 706.57 43.5698C706.51 44.3898 705.04 45.7198 704.07 45.7098L694.19 45.6598L684.4 45.3798C684.36 49.5498 687.41 52.0598 691.19 51.7998C697.66 51.3498 702.43 55.6798 703.68 61.9198C704.78 67.4698 704.65 73.0198 704.87 78.7798L705.29 89.2798C705.49 94.2198 705 100.77 702.47 100.3C700.63 99.9598 699.83 97.5298 699.78 94.9898L699.5 80.4798L699.07 71.4198C698.91 68.1098 698.71 64.6198 697.53 61.5698C696.35 58.5198 693.33 57.6298 690.38 57.6398C683.81 57.6698 679.12 53.2398 678.62 46.7098L678.66 46.6998Z" fill="black"/>
<path d="M688.68 189.58C688.67 191.4 687.66 193.97 685.79 193.83C684.49 193.73 683.37 191.37 683.35 190.06L683.17 181.55L682.85 171.94L672.54 172.21L666.06 171.94C664.84 171.89 663.23 169.79 664.08 168.75C665.79 166.62 668.78 166.05 671.38 165.95L682.93 165.49L682.89 157.15C676.07 157 668.5 157.36 667.76 151.19C667.16 146.2 666.69 138.42 668.96 136.21C669.47 135.71 671.56 136.03 671.81 136.74C673.49 141.48 672.42 145.31 673.6 149.79C676.61 151.37 679.53 151.35 682.93 151.02L682.89 135.76L674.92 135.24C669.51 134.89 667.06 130.63 667.33 125.59C667.6 120.55 667.46 112.63 670.62 114.03C674.13 115.58 671.82 125.47 673.86 127.95C674.91 129.21 679.93 130.11 682.89 129.16L682.86 111.12L670.36 111.69C668.42 111.78 665.5 111.43 665.06 108.96C664.35 105.02 679.46 104.44 686.36 104.69L695.79 105.03C700.78 105.21 706.76 106.42 706.25 109.34C705.67 112.65 699.64 111.63 694.86 111.4L688.42 111.09L688.4 129.18L694.92 129.21C696.06 129.21 698.68 127.88 698.7 126.74L698.84 117.66C698.87 115.99 700.33 113.24 702.13 113.76C704.73 116.59 704.38 120.98 704.49 124.46C704.58 127.27 704.43 129.77 702.74 131.85C701.39 133.52 698.73 134.85 696.24 135L688.54 135.45V150.11C689.48 151.18 691.39 151.18 693.03 150.84C694.44 150.55 697.44 150.8 698.02 148.8C699.56 143.58 697.55 136.5 701.63 135.26C704.33 134.43 704.29 142.14 704.34 147.1C704.37 150.02 704 152.21 702.12 154.19C700.38 156.02 698.07 156.53 695.29 156.75L688.61 157.27L688.59 165.47L698.36 165.72C701.19 165.79 704.66 166.74 706.93 168.46C707.54 168.92 706.94 170.99 706.32 171.42C705.7 171.85 704.12 172.67 703.3 172.6L695.83 172L688.85 171.71L688.7 189.61L688.68 189.58Z" fill="black"/>
<path d="M651.59 174.75C652.04 182.83 646.04 193.77 639.07 193.12C637.36 192.16 638.03 189.32 639.25 188.2C643.29 184.48 646.03 179.82 646 174.1C638.68 174.46 636.36 164.43 636.35 157.34V151.47C636.33 147.91 637.08 143.27 639.3 143C640.29 142.88 641.74 144.22 641.76 145.44L641.96 156.58C642.05 161.85 642.5 168.43 646.45 167.51V143.08C637.32 142.18 636.71 133.83 636.33 125.19C636.26 123.65 636.06 122.02 636.3 120.53L637.25 114.48C637.33 113.96 638.3 113.09 638.79 113.03C641.13 112.74 642.51 118.32 641.79 122.41C640.86 127.7 641.42 135.77 646.27 136.8L646.33 126.12L646.28 120.67L646.32 114.64C646.34 111.47 647.27 107.74 650.24 105.98C654.07 103.71 661.97 103.29 662.06 106.4C662.1 107.74 661.35 108.79 659.88 109.21L653.41 111.06C652.74 111.25 651.95 113.05 651.88 113.65L651.95 136.72C660.57 134.09 654.32 119.37 658.82 113.54C659.69 112.42 661.96 114.35 662.07 115.54L662.69 122.02L662.73 125.77C662.81 133.29 660.03 142.55 651.95 142.83V167.7C653.57 168 654.95 166.67 655.41 164.98C657.87 155.74 654.59 143.89 659.25 142.97C662.63 142.3 662.49 155.35 661.51 162.11C660.89 166.36 659.56 170.5 655.94 173.15L651.58 174.75H651.59Z" fill="black"/>
<path d="M674.43 92.0701C674.36 97.1601 672.94 100.09 671.57 99.2401L669.84 98.1601C669.48 96.7701 668.95 95.0801 668.94 93.7901L668.82 79.2101L651.7 80.5901L649.66 79.3201C649.13 78.9901 648.9 77.2501 649.45 76.8301C652.5 74.4701 656.63 73.8601 660.35 73.6401L668.63 73.1701L668.92 68.2001L662.35 68.4101L656.93 68.9601C653.46 69.3101 649.36 69.9901 649.03 66.9501C648.6 63.0101 659.87 62.9401 664.78 62.1201L668.82 61.4401C668.84 56.9701 668.63 51.9601 671.23 51.3001C673.83 50.6401 674.77 56.3201 674.34 61.5201C680.39 62.9801 686.73 61.8101 692.65 64.4201C693.56 64.8201 694.34 66.5701 694.11 67.3701C693.88 68.1701 692.14 69.3101 691.21 69.2101C685.33 68.5901 680.34 68.2001 674.39 68.2101L674.57 73.2001L681.85 73.5701C686.39 73.8001 692.86 74.4901 694.28 77.1301C694.64 77.8001 693.8 79.8801 693.05 80.0101C689.98 80.5501 686.87 80.1401 683.86 79.9001L678.57 79.4901L674.46 79.2901L674.54 85.7801L674.46 92.0701H674.43Z" fill="black"/>
</g>
<g clip-path="url(#clip1_274_19329)">
<path d="M72.2446 585.052L67.2554 578.557C66.0246 580.619 64.1344 583.231 62.2662 585.052L12.528 584.987V587.598H66.0246V615.337H12.6159L12.528 618.059H66.0246V645.666H12.5719L12.484 648.234H65.8488L66.0905 660.677L58.9254 659.645L0.109894 659.733V633.223H53.5845V630.502H0.109894V602.894H53.8263L53.4527 600.173H0.131873L0 572.522L57.321 572.39L61.2112 565.433L61.453 539.296L11.9565 539.384V542.171L57.299 542.127L57.3429 569.691H0.285726L0.307705 557.291H45.0787L44.727 554.526H0.0879156L0.131873 526.984H61.431C62.2882 523.122 71.5413 522.903 74.5744 526.941L134.709 527.006L134.753 554.548H90.0036L89.6079 557.445L134.621 557.247V569.712H77.4536V542.127L122.137 542.149L122.093 539.362H73.6952L73.6733 566.421L78.2009 572.39L134.731 572.478V600.173H81.3219L81.256 602.872H134.731V630.48H81.256L81.5856 633.223H134.709V659.602L69.0357 659.711L69.6731 648.256L122.225 648.212L121.389 645.666L69.4313 645.556L69.8269 618.015H122.005L122.049 615.293H68.9478L69.6291 608.512L69.783 587.532H122.049L122.071 584.921L72.1787 584.987L72.2446 585.052Z" fill="#55FF00"/>
<path d="M264.296 554.614H200.316V602.829H276.758V630.59H200.513V633.311H276.692V645.754H187.919V618.169L264.428 618.125L263.373 615.425H187.875V542.237H276.78V600.129H203.107V557.423L261.439 557.379L261.505 584.965H218.536L218.338 572.5L247.328 572.631C247.658 572.522 248.361 571.49 249.263 569.844L215.569 569.779V587.686H264.252L264.318 554.614H264.296Z" fill="#55FF00"/>
<path d="M185.194 660.633L177.809 659.733L142.137 659.865L142.05 648.409L157.325 648.322V539.932C157.413 539.23 153.567 539.603 153.567 540.503L153.523 645.381L142.028 645.534V527.336L156.424 526.831C159.787 523.1 167.985 523.166 169.897 526.941L185.04 527.401V645.556L172.556 645.578V539.515L169.765 539.34V648.365L184.908 648.343L185.172 660.633H185.194Z" fill="#55FF00"/>
<path d="M276.78 527.028H187.832V539.471H276.78V527.028Z" fill="#55FF00"/>
<path d="M187.844 648.25L187.835 660.649L276.784 660.711L276.793 648.312L187.844 648.25Z" fill="#55FF00"/>
<path d="M96.6411 692.805L96.6851 695.504H119.455V738.386L96.5093 738.452L96.751 741.173H119.433V753.616L96.5312 753.572L96.4873 768.737H84.0033L84.1132 753.594H61.3211L61.1233 741.349L84.1791 740.998L84.7506 738.584L61.2112 738.342V695.614L84.2231 695.373L84.7725 692.893L61.2991 692.761V680.867L83.8934 681.635L84.7066 677.553L58.4418 677.685V756.36H81.212L81.168 768.825L45.782 768.759V665.373L83.3 665.198C86.6627 661.269 95.1466 661.357 96.7071 665.285H134.731V768.759L112.048 768.825L111.895 771.524L134.731 771.568L134.687 798.978H84.2231L84.0472 783.967H58.3759V786.557L81.168 786.601L81.0581 798.978H45.8259V771.546H96.4214L96.5312 786.601L122.291 786.535C122.093 785.679 121.258 783.945 120.774 783.945L99.3226 783.989L99.2127 756.381H122.225V677.663L96.4873 677.75C96.5313 679.506 96.4433 680.757 97.0148 681.042C97.5862 681.328 99.7182 681.745 100.575 681.723L119.301 680.845L119.477 692.849L96.6631 692.893L96.6411 692.805ZM84.3989 710.844C84.1132 708.123 83.9813 706.982 84.1132 708.057L73.6512 708.145V710.888L84.3989 710.866V710.844ZM96.5093 708.101V710.844H106.927V708.101H96.5093ZM73.6732 722.827V725.987H84.4429V722.827H73.6732ZM106.927 723.244H96.4873V725.987H106.927V723.244Z" fill="#55FF00"/>
<path d="M15.2094 771.634L30.4408 771.414L30.5287 768.759L15.2753 768.715V741.173L30.5067 741.129L30.4627 738.474L11.451 738.276L11.6049 799L0 798.627V726.053L15.1874 725.965L15.2753 723.288L0.0659367 723.222L0 710.801L15.2753 710.888V665.549L27.7593 665.615L27.7374 710.823L43.0127 710.844L42.9468 723.2L27.6934 723.288L27.5615 725.965L43.0127 726.031V753.507L27.6934 753.616L27.6494 756.272L42.9907 756.382L43.0786 783.616L27.6494 784.165L27.056 786.469L42.9907 786.557L42.8149 798.89L15.3193 798.912L15.2094 771.634Z" fill="#55FF00"/>
<path d="M11.407 701.21L12.4401 708.079L0 707.991V665.373L11.7367 665.351L11.407 701.21Z" fill="#55FF00"/>
<path d="M43.1664 665.22H30.5286V708.101H43.1664V665.22Z" fill="#55FF00"/>
<path d="M271.022 798.561H157.369V772.094H264.23V769.373H157.391V741.744H264.56L264.076 739.022H154.621V798.451H142.094V726.426H203.261L203.217 723.704H142.094V665.79H276.912L276.956 723.682L215.371 723.726V726.404L277.044 726.491L276.846 754.165H170.248L170.776 756.886H276.934L276.912 784.494H170.205V787.061H276.626L277.044 797.837C277.088 799.197 273.11 798.495 271.088 798.495L271.022 798.561ZM154.578 677.18V680.998L265.153 681.349V677.531L154.578 677.18ZM264.582 692.849L154.556 693.42V697.15L264.604 696.58V692.849H264.582ZM154.578 708.54V711.327H264.604V708.54H154.578Z" fill="#55FF00"/>
</g>
<defs>
<clipPath id="clip0_274_19329">
<rect width="91.8" height="202.49" fill="white" transform="translate(625)"/>
</clipPath>
<clipPath id="clip1_274_19329">
<rect width="277" height="275" fill="white" transform="translate(0 524)"/>
</clipPath>
</defs>
</svg>
