<svg width="64" height="64" viewBox="0 0 64 64" fill="none" xmlns="http://www.w3.org/2000/svg">
<path d="M42.8071 49.7188C43.3367 49.7332 43.85 50.1133 43.8663 50.6177C43.8951 51.4949 41.8542 52.1236 40.7121 52.1073L39.4494 52.0623C38.7631 52.8315 38.2768 53.6421 37.6535 54.5787C37.2266 53.5358 37.3401 52.4172 37.6517 51.376C36.5979 50.3204 36.5259 48.4759 37.2572 47.1177C37.9904 45.7559 39.0693 44.6949 40.1465 43.5727C40.3843 43.2755 40.2726 42.6504 40.1033 42.3154C39.4638 41.0562 38.066 40.0133 36.688 40.3627C35.7747 40.8239 35.056 41.4904 34.3715 42.2433C32.8656 43.9023 31.8767 45.9144 31.5903 48.1534C31.2012 51.1977 32.9557 53.7483 35.818 54.8129C38.2588 55.719 41.3732 55.7064 43.7438 54.6742C44.4733 54.3572 45.1038 53.9411 45.7018 53.3935C47.0132 52.1938 47.6706 49.9782 46.226 48.6596C45.7018 48.1805 45.0191 47.8112 44.277 47.7355C43.7996 47.6869 43.2286 47.6563 42.7566 47.7427C40.287 48.1913 37.522 50.7473 37.7652 53.4547C37.9201 53.3989 37.9507 53.3034 38.039 53.1449C38.9451 51.5399 41.0472 49.672 42.8071 49.7206V49.7188Z" fill="black"/>
<path d="M41.4002 15.6958C43.3583 15.2401 46.7573 16.4254 45.5415 17.6413C44.9975 18.1853 44.077 18.0448 43.324 17.6971C41.7731 16.9802 40.595 15.7823 39.716 14.2098C39.4782 15.9732 40.6076 17.6539 41.9911 18.7257C43.1241 19.6029 44.4823 20.1901 45.9269 20.0442C47.042 19.9307 48.0345 19.3976 48.6289 18.4771C49.353 17.3531 48.8307 15.6832 47.912 14.6529C46.7645 13.3649 45.1578 12.7075 43.4537 12.4192C41.1805 12.0338 38.8604 12.2931 36.8177 13.3379C34.2274 14.6619 33.0511 17.2792 33.5879 20.1271C34.1247 22.975 35.7963 25.4698 38.156 27.1306C39.4692 28.0547 41.2201 26.8838 42.0019 25.4464C42.1982 25.0861 42.3297 24.3998 42.0217 24.1008C41.6074 23.6973 41.2147 23.3496 40.8598 22.9137L39.8079 21.6222C38.5577 20.0893 38.1795 17.7728 39.5737 16.3839C39.2422 15.3212 39.1504 14.2098 39.5737 13.1326L40.9445 15.1771C41.0598 15.3482 41.2561 15.5355 41.402 15.6976L41.4002 15.6958Z" fill="black"/>
<path d="M43.5078 50.6281C43.5114 50.7038 43.4609 50.7993 43.3637 50.9001C43.2772 50.9884 43.1619 51.0712 43.0286 51.1505C42.6612 50.8857 42.2937 50.5453 41.9749 50.1994C42.2577 50.1147 42.5351 50.0697 42.7981 50.0769C43.1673 50.0877 43.4988 50.3435 43.5078 50.6281Z" fill="black"/>
<path d="M44.2389 48.0919C44.8442 48.1549 45.4638 48.4503 45.9826 48.9241C46.4473 49.3474 46.6815 49.8914 46.6833 50.5381C46.6833 51.0785 46.5068 51.6639 46.2024 52.1935H45.9106L44.8226 52.0314C44.5524 51.9917 44.32 51.8819 44.0804 51.7648L43.8066 51.6315L43.6967 51.5666C43.7616 51.5144 43.8246 51.4621 43.8787 51.4063C44.1795 51.0983 44.2371 50.8011 44.2299 50.6047C44.2083 49.9382 43.576 49.378 42.8195 49.3582C42.398 49.3474 41.9567 49.4375 41.5153 49.6014L41.3226 49.2789L41.0686 48.7368C41.6036 48.4359 42.1908 48.209 42.8231 48.0955C43.1761 48.0306 43.6391 48.0306 44.2407 48.0919H44.2389Z" fill="black"/>
<path d="M40.031 46.7738C40.0076 47.0746 40.0508 47.3592 40.1805 47.6204C40.1517 47.8906 40.1895 48.1554 40.33 48.3734C39.8418 48.694 39.3825 49.0759 38.9808 49.5046C38.7539 49.746 38.5521 49.9946 38.3738 50.2504L38.1486 50.1909L37.4443 49.9027L37.2119 49.7748C37.0408 48.9804 37.1543 48.0708 37.5758 47.2872C37.7325 46.9972 37.9054 46.7234 38.0892 46.4568C38.1342 46.4514 38.181 46.4442 38.2261 46.4316C38.5503 46.5198 38.8439 46.4568 39.1393 46.3433L39.4978 46.2064L39.9751 45.9902C40.0292 46.2352 40.04 46.5018 40.0328 46.772L40.031 46.7738Z" fill="black"/>
<path d="M40.5608 43.8007L40.3716 44.1826L40.2221 44.6743C40.1501 44.9103 40.1176 45.2075 39.9483 45.3732C39.5898 45.7245 39.1629 45.8236 38.7144 45.9226C38.6225 45.9424 38.5397 45.9533 38.4586 45.9605C38.9612 45.3228 39.5304 44.7302 40.1212 44.1177L40.4293 43.7953C40.5337 43.6638 40.595 43.5053 40.6238 43.3359L40.6616 43.3612C40.6995 43.4746 40.6238 43.6764 40.5626 43.8007H40.5608Z" fill="black"/>
<path d="M39.8709 43.3371L39.6007 43.6181C38.9216 44.3224 38.2281 45.0465 37.6337 45.8589C37.5346 45.8391 37.4373 45.8175 37.3509 45.7743L36.6069 45.4032C36.2791 45.2393 36.0701 44.897 35.8774 44.5854L35.5153 44.5962C35.346 44.8844 35.5892 45.1402 35.7513 45.3636C35.8197 45.4572 35.8468 45.5797 35.9602 45.6446L36.9203 46.1994C37.0464 46.2732 37.1563 46.3237 37.3166 46.3165C37.1833 46.52 37.0554 46.7272 36.9384 46.9451C36.5475 47.6693 36.3781 48.4744 36.4124 49.24C36.0071 48.896 35.6036 48.451 35.4415 48.1088L34.8452 46.8551L34.7624 46.4101L34.6327 45.4374C34.4994 45.2249 34.1733 45.3185 34.0076 45.2591L33.5609 45.0952L32.9971 44.8394C33.4276 44.0018 33.977 43.211 34.6363 42.4851C34.8182 42.2833 34.9947 42.1014 35.1641 41.9339L35.1983 41.9537L35.5621 42.1194L36.9131 42.114L37.1779 42.0419L37.6084 41.9483C37.8354 41.8978 38.3794 41.2584 38.5469 41.5376C38.6298 41.6745 38.7271 41.7519 38.8333 41.8366L39.3918 42.458L39.8925 42.8435C39.9303 43.0507 39.9249 43.2524 39.8655 43.3389L39.8709 43.3371Z" fill="black"/>
<path d="M39.1503 50.4391L39.1359 50.4355C39.5195 49.9203 40.0005 49.4466 40.5571 49.0557C40.6544 49.2682 40.7805 49.4664 40.912 49.6753L41.0038 49.8212C40.6544 49.996 40.3103 50.2121 39.9771 50.4589C39.7051 50.4877 39.3898 50.4985 39.1485 50.4409L39.1503 50.4391Z" fill="black"/>
<path d="M38.055 40.8255C38.0893 40.9336 38.0875 41.0326 37.9686 41.1299C37.792 41.2758 37.5849 41.4253 37.3579 41.5082L36.967 41.6523C36.5924 41.7135 36.1853 41.746 35.8322 41.6289L35.5836 41.546C35.9943 41.1893 36.3906 40.9173 36.8121 40.6994C37.2336 40.6021 37.6569 40.6616 38.0532 40.8237L38.055 40.8255Z" fill="black"/>
<path d="M38.5722 26.9555C38.8947 26.7268 39.2711 26.5737 39.6782 26.5232C39.8764 26.498 39.9394 26.3647 40.6185 26.5268C40.2853 26.7844 39.9286 26.9699 39.5828 27.051C39.2153 27.1375 38.8749 27.1032 38.5704 26.9555H38.5722Z" fill="black"/>
<path d="M40.5805 23.1387C40.8723 23.4954 41.1785 23.789 41.5028 24.0988C41.591 24.1835 41.6811 24.2681 41.7712 24.3564C41.8991 24.4807 41.8558 24.9617 41.6865 25.2733C41.5208 25.5777 41.3118 25.8605 41.0777 26.1091L40.8525 26.0388C40.3571 25.8839 39.7627 25.9506 39.2475 26.0316C39.1683 26.0478 38.9827 26.1073 38.9107 26.1505L38.2298 26.5522C38.1847 26.5792 38.1451 26.6099 38.1037 26.6405C36.5617 25.4894 35.3783 23.9961 34.6379 22.3011C34.6848 22.2218 34.7298 22.1444 34.7802 22.0687C35.6016 20.8384 36.9869 19.8405 38.4207 19.5181C38.5936 20.3683 38.9953 21.1897 39.5303 21.8472L40.5823 23.1387H40.5805Z" fill="black"/>
<path d="M37.6139 27.175L37.3563 27.5371C37.2536 27.683 37.1888 27.8253 37.1401 28.009L37.0267 28.4323C36.9996 28.5332 36.9294 28.7656 36.8339 28.7962L36.2034 28.87C36.0089 29.0159 35.836 29.0952 35.6288 29.1907C35.3496 29.3186 35.1281 29.5257 34.8903 29.6968C34.5877 29.9166 34.3337 30.194 34.1301 30.511L33.8419 30.9578L33.6456 31.4045L33.5303 31.7341C33.4763 31.889 33.3988 32.17 33.3988 32.343L33.4024 33.5481C33.4024 33.6525 33.4438 33.8597 33.4853 33.9479C33.6276 34.2452 33.6114 34.4829 33.8815 34.9531L34.0977 35.3278L34.5588 35.8249C34.73 36.0105 34.984 36.1708 35.2415 36.1726C35.301 36.1726 35.4001 36.0663 35.4001 36.0087C35.4001 35.951 35.3388 35.8357 35.2938 35.7961L34.9227 35.4611C34.3949 34.9855 34.0581 34.2848 33.9392 33.5751C33.6996 32.161 34.1896 31.0514 35.1947 30.0625C35.3118 29.949 35.3676 29.895 35.5442 29.8391L35.9224 29.6068L36.2881 29.4519L36.6322 29.3077C37.1185 29.2951 37.4986 29.2123 37.54 28.7637C37.5869 28.2774 37.767 27.8379 38.039 27.4776C38.5434 27.8 39.1324 27.8955 39.752 27.7514C40.3159 27.6199 40.8887 27.2849 41.3858 26.8219L41.7119 27.0651C42.0379 27.3065 42.2469 27.6091 42.3964 27.9946C42.427 28.0756 42.5477 28.2342 42.5225 28.3152C42.4991 28.3945 42.418 28.499 42.355 28.5818L42.101 28.9115C41.7947 29.432 41.575 29.9418 41.3804 30.511C41.3174 30.6948 41.2976 30.9415 41.2868 31.1433L41.2507 31.7846L40.3843 32.2583L39.8115 32.6708L39.5665 32.8311C39.4548 32.905 39.3594 32.986 39.2657 33.0833L38.9739 33.3859C38.646 33.7246 38.3596 34.0488 38.1453 34.4685C38.0336 34.6865 37.8679 34.9026 37.7832 35.144L37.5148 35.9096C37.2482 36.6661 37.2969 37.4857 37.2788 38.2855C37.2752 38.4927 37.3257 38.6584 37.3635 38.8529L37.4752 39.442L37.6031 39.7716L37.6913 39.9716C37.3383 39.9121 36.9726 39.9175 36.6033 40.0112L36.5295 40.0382C35.9026 40.3552 35.3676 40.7659 34.9155 41.1802C34.5642 40.9136 34.2724 40.566 34.1211 40.1661C34.0599 40.004 33.9986 39.5302 33.7176 39.5735C33.6582 39.5825 33.5987 39.6906 33.5753 39.7626C33.4907 40.0166 33.5879 40.1823 33.6564 40.4021C33.7392 40.6705 33.8203 40.8632 34.0473 41.0271C34.1121 41.137 34.2148 41.3081 34.3229 41.391L34.53 41.5513C34.3787 41.7044 34.2364 41.8557 34.1085 41.998C33.4186 42.76 32.8404 43.5886 32.3847 44.464C32.1 44.2641 31.8551 44.0101 31.6353 43.7345L31.1922 43.1797C30.9958 42.9329 30.8409 42.7168 30.7418 42.4196L30.4536 41.5585C30.0772 40.2688 30.1888 38.9358 30.8769 37.7631C30.9274 37.6785 30.9832 37.4371 30.9274 37.356C30.6031 36.976 30.3402 36.5527 30.124 36.1077L29.8754 35.5998L29.652 35.0792L29.5188 34.5568L29.4269 34.1515C29.371 33.9065 29.281 33.6399 29.2648 33.3823C29.2359 32.9194 29.2161 32.4619 29.2576 31.9953L29.3098 31.3955C29.3332 31.1253 29.3927 30.8389 29.4737 30.5795L29.6502 30.0139C29.8124 29.4969 30.0141 29.0231 30.2951 28.5584L30.7094 27.8739L30.949 27.5497C31.6587 26.7301 32.4297 25.9915 33.3772 25.4421C33.9068 25.1341 33.6564 25.1251 33.8077 24.437L33.9068 23.9848C33.9482 23.7957 33.9896 23.5796 34.0797 23.3976C34.1283 23.3003 34.1752 23.2013 34.2238 23.104C35.0092 24.6802 36.162 26.0708 37.6193 27.1732L37.6139 27.175Z" fill="black"/>
<path d="M47.0185 52.1847C47.5751 52.1379 48.0849 51.9361 48.6253 51.738L49.0648 51.5776C49.1873 51.5326 49.2449 51.4227 49.3584 51.3579L49.8844 51.0535L50.4698 50.4824C50.695 50.2627 51.0408 50.3798 51.2804 50.4824L51.6317 50.6301L52.0694 50.7454C52.4603 50.8499 52.9376 50.8751 53.3231 50.7833L54.004 50.6211C54.9209 50.4032 55.9386 49.6971 56.4015 48.827L56.8879 47.912L56.9798 47.5661L57.1311 46.7987C57.2121 46.388 57.0194 45.6297 56.769 45.2118C56.7222 45.0623 56.76 44.7164 56.8591 44.5993L57.2788 44.1148L57.884 43.3798L58.4334 42.3693C58.5307 42.1892 58.5956 41.9316 58.6334 41.737L58.7234 41.2723C58.7523 41.1246 58.8297 40.8292 58.8153 40.6851L58.7306 39.7826C58.7162 39.6223 58.6172 39.3737 58.5613 39.2242L58.4226 38.8531L58.2803 38.4478L58.075 38.0101L57.639 37.041C57.4085 36.5276 57.3022 35.708 57.4643 35.2415C57.567 34.9407 57.83 34.5354 58.147 34.4165C58.428 34.312 58.9198 34.3084 59.2008 34.4021C59.689 34.566 60.0024 35.0451 60.1735 35.5207C60.2744 35.7999 60.3176 36.1764 60.3158 36.4988L60.3122 39.1774L60.2077 39.8168L60.1105 40.1519L60.0222 40.5518L59.8457 41.2201L59.6673 41.8145L59.6205 42.4666C59.6043 42.6845 59.5791 42.8791 59.6205 43.088L59.7502 43.7581C59.8259 44.1508 59.8295 45.1253 59.7124 45.4441L59.5773 45.8098C59.4584 46.1304 59.498 46.5664 59.5719 46.4493L59.6655 46.3016L60.0474 45.6855C60.1969 45.4423 60.359 45.2118 60.3789 44.9128L60.4995 44.6948L60.894 43.7923L61.3624 42.9583L61.6524 42.4972L62.2847 41.5893L62.7728 40.876L63.1745 40.2221C63.3492 39.9375 63.5168 39.6061 63.6212 39.2854L63.7834 38.7901L63.9275 38.2839C64.0427 37.8822 64.0157 36.5186 63.8806 36.007L63.6897 35.2847C63.5888 34.901 63.4051 34.5318 63.1043 34.294L63.1727 34.2255C63.1727 34.2255 63.1295 34.1769 63.1115 34.1553C63.0628 34.0976 63.0916 33.9265 63.1547 33.8743C63.3078 33.7428 63.3528 33.6077 63.4375 33.442C63.7347 32.8583 63.7996 32.5323 63.8842 31.9126C63.9076 31.7469 63.9311 31.6208 63.9004 31.4389L63.8068 30.8679L63.6501 30.2572L63.4861 29.8015C63.4267 29.6376 63.3132 29.47 63.2123 29.3259L63.0286 29.0648L62.4432 28.4361C62.3063 28.2884 62.0487 28.1533 62.0415 27.9101C62.0289 27.4436 62.0865 26.9698 61.964 26.5213C61.9262 26.3826 61.8722 26.2619 61.8595 26.1034C61.8325 25.7936 61.2669 24.7884 60.9463 24.4516L60.2185 23.6842C59.8096 23.2537 59.2062 23.0988 58.6712 22.906C58.4496 22.8268 58.3866 22.6376 58.2803 22.4755L57.8714 21.8451L57.5328 21.3803L57.3779 21.1912L56.6916 20.5175C56.2052 20.0401 55.355 19.5466 54.6975 19.3214L54.3228 19.1917C53.8707 19.0368 53.4834 18.9161 53.0007 18.9161H51.8046C51.4713 18.9161 51.1867 18.9521 50.8535 19.0152C50.6553 18.9143 50.4428 18.7234 50.2807 18.5523L50.0933 18.437C49.8483 18.2442 49.5583 18.0659 49.2449 17.9092C49.1783 18.1974 49.072 18.4586 48.9297 18.6801C48.564 19.2476 48.0578 19.6925 47.4526 19.9915C47.6129 20.0095 47.7732 20.0383 47.8885 20.1446C47.9443 20.1951 47.9209 20.4022 47.8615 20.4454C47.5985 20.6418 47.4814 20.4184 47.1157 20.4184C46.9518 20.4184 46.8491 20.3806 46.696 20.3446C46.6402 20.332 46.5826 20.3229 46.5231 20.3175C46.3412 20.359 46.1556 20.3896 45.9629 20.4094C45.7035 20.4364 45.4423 20.44 45.1793 20.4238C44.7524 20.4869 44.3651 20.6094 43.9869 20.8399L43.2465 21.2921C42.9277 21.4866 42.8178 21.8072 42.5908 21.71C42.5008 21.6721 42.3855 21.4218 42.4359 21.3389C42.5062 21.2236 42.6809 21.0813 42.8016 21.0038L43.5942 20.4995C43.7653 20.3914 43.9364 20.3067 44.1201 20.2437C43.3438 20.0275 42.571 19.6294 41.8235 19.0602L41.5136 19.3484C41.456 19.4007 41.2939 19.4277 41.2308 19.4223L40.4779 19.3466C40.3698 19.3358 40.159 19.2404 40.033 19.2566L39.2728 19.3538L39.1089 19.3863C39.2332 20.0437 39.543 20.7373 40.0852 21.4037L41.1372 22.6953C41.4002 23.0177 41.6902 23.2951 41.9982 23.5887C42.0883 23.6752 42.1783 23.7617 42.272 23.8517C42.7277 24.2949 42.5728 25.1577 42.317 25.6278C42.1603 25.9178 41.9694 26.1898 41.7568 26.4384C41.955 26.5681 42.1513 26.723 42.2792 26.8491C42.6881 27.2526 42.7908 27.6849 43.097 27.9515C43.2501 27.7552 43.3816 27.6687 43.5581 27.6021L43.8031 27.4003L44.1634 27.2346L44.5903 27.0905C44.7992 27.0203 45.0821 27.0419 45.3198 27.0058C45.4117 26.9914 45.59 26.8906 45.6927 26.896L46.5357 26.941L46.8546 27.0365C47.0095 27.0833 47.2022 27.0653 47.3211 27.0995L47.6688 27.2292L48.0074 27.3679L48.6072 27.6975C48.7045 27.7516 48.8702 27.8813 48.9567 27.9695L49.6304 28.6504L49.969 29.0539L50.1564 29.407C50.1798 29.5565 50.2302 29.6916 50.3203 29.7745C50.3419 30.0951 50.5671 30.1618 50.8193 30.2266C50.9832 30.2698 51.1183 30.3311 51.3092 30.3221C51.4641 30.3167 51.5884 30.3815 51.7163 30.4446L52.3234 30.7436C52.653 30.9057 52.9664 31.1561 53.2024 31.4173L53.7914 32.0657C54.04 32.3395 54.2237 32.6818 54.3751 33.006L54.5444 33.6041C54.5372 33.8869 54.5678 34.1229 54.6669 34.366L54.629 35.1964L54.5264 35.7621C54.503 35.8954 54.4345 36.1313 54.3679 36.2664L53.8779 37.2644C53.7914 37.4427 53.5627 37.6985 53.4059 37.839L52.9214 38.2767C52.8385 38.3506 52.7214 38.4838 52.725 38.5721C52.7287 38.6694 52.8313 38.8315 52.8547 38.9234L52.9736 39.3773C53.0547 39.6853 53.0223 40.0978 52.9862 40.4275C52.8187 40.6436 52.97 40.9084 52.7485 41.3335L52.372 42.0595C52.1018 42.4431 51.7487 42.744 51.347 42.9889L50.7796 43.2627L50.3689 43.4033C49.9636 43.542 48.9819 43.5257 48.5388 43.3744L48.1317 43.2339C47.9281 43.1637 47.7678 43.0952 47.6003 42.9565L47.2148 42.6359C46.9374 42.4053 46.7068 42.2342 46.2943 42.2936C46.1286 42.2702 45.826 42.1693 45.6621 42.1009L45.3216 41.9568C45.237 41.9208 45.0803 41.8541 45.0154 41.7983L44.7704 41.5875C44.6137 41.4542 44.3885 41.2651 44.2805 41.0868L43.904 40.3824L43.7959 39.9753C43.6824 39.5484 43.7167 39.0675 43.7437 38.6316C43.9652 38.4766 43.7959 38.3469 43.9923 37.9831L44.1346 37.7183C44.2643 37.4787 44.4426 37.304 44.6407 37.1275L44.9488 36.8519C44.9488 36.6519 44.8911 36.4862 44.8461 36.2934C44.7902 36.0467 44.7776 35.6774 44.8515 35.4558C45.0478 34.865 45.3126 34.2994 45.8044 33.9625L46.2529 33.6563L46.6078 33.514L46.932 33.3717L47.9948 33.3771L48.2938 33.4834L48.5802 33.5861C49.0738 33.7626 49.6808 34.384 49.5349 34.5354C49.443 34.6308 49.1494 34.7173 49.0377 34.6434C48.9477 34.4057 48.818 34.2814 48.5784 34.2057L48.2344 34.031C48.0867 33.9571 47.9534 33.9193 47.7768 33.8887L47.5841 33.7932C47.53 33.7662 47.4058 33.8815 47.3427 33.8905C47.1608 33.9121 46.8978 33.9211 46.7321 33.9914C46.1953 34.2183 45.8476 34.5264 45.6387 35.0505L45.4892 35.3387C45.3541 35.5999 45.3396 36.27 45.4387 36.5456C45.4982 36.715 45.6765 36.9906 45.4549 37.1455C45.2027 37.322 44.9614 37.5129 44.7794 37.7813C44.5849 38.0677 44.3687 38.3506 44.3291 38.7144C44.2985 38.9972 44.0967 39.3089 44.2354 39.725L44.3651 40.114C44.457 40.3914 44.6569 40.6941 44.8371 40.9174C45.0893 41.2255 45.4063 41.4218 45.763 41.5533L46.4186 41.7965C46.6258 41.8739 47.0059 41.665 47.2905 41.9694C47.5841 42.281 47.8849 42.5656 48.2902 42.7187L48.6721 42.8629L49.1747 42.9853C49.4719 43.0574 50.259 42.9421 50.5437 42.7872C50.722 42.6899 51.021 42.6395 51.1633 42.5152L51.5992 42.1315L51.9109 41.7695L52.2513 41.2777L52.3198 40.9084C52.435 40.7895 52.4765 40.6238 52.4422 40.4581C52.6656 40.1951 52.5575 39.9105 52.4801 39.6421C52.4152 39.4205 52.3918 39.19 52.2873 38.9666C52.1738 38.7252 52.0171 38.4676 52.163 38.1956L52.5377 37.8912L52.8836 37.585L53.224 37.2175C53.3573 37.0734 53.4798 36.9473 53.5591 36.7564L53.9391 35.8413L54.0598 35.4054C54.1499 35.0812 54.1337 34.6957 54.0706 34.3624L53.9878 33.9319L53.9139 33.5122C53.7698 33.1501 53.6239 32.8151 53.4186 32.4963C53.3375 32.3684 53.17 32.2351 53.1574 32.0694L52.9916 31.9703C52.8043 31.8298 52.6224 31.583 52.4278 31.4659L51.8856 31.1363C51.8028 31.0858 51.6262 30.994 51.538 30.9633L51.1093 30.8156L50.6211 30.7544L50.2302 30.6337C50.1366 30.5671 49.9708 30.3833 49.9114 30.2806C49.7835 29.6358 49.4286 29.1566 48.9747 28.7099C48.6847 28.4235 48.4091 28.1767 48.0434 27.9948C47.8345 27.8903 47.5967 27.7336 47.3805 27.6723L46.8762 27.5318L46.3556 27.3895C46.1953 27.3463 45.8458 27.3499 45.6855 27.3895L45.2496 27.4976L44.8137 27.6039L44.4048 27.7444L43.967 27.9137C43.8572 27.9569 43.7527 28.047 43.6878 28.1533C43.3474 28.3046 43.0502 28.546 42.8268 28.872L42.254 29.7024C41.9604 30.1275 41.7838 31.2281 41.8253 31.8748C41.8307 31.9541 41.8145 32.1234 41.7658 32.1756C41.7118 32.2351 41.5857 32.2891 41.4722 32.3269L41.1047 32.4494L40.0888 33.0799C39.9249 33.1808 39.7916 33.3501 39.6403 33.4762C39.0422 33.9769 38.6297 34.6236 38.2821 35.3189C38.1109 35.6612 38.0083 35.989 37.929 36.3637L37.7921 37.0104V38.3596L37.9272 38.9648C38.0083 39.3341 38.1127 39.7628 38.2911 40.0906L38.3361 40.1735C39.2314 40.541 39.9897 41.3173 40.422 42.1693C40.4851 42.2936 40.5463 42.4594 40.5878 42.6413L41.3587 43.0664C41.3479 43.2105 41.2867 43.4591 41.2092 43.6248L40.8706 44.3489L40.6562 45.1487C40.5661 45.4838 40.4977 45.7882 40.5085 46.1449L40.5319 46.878L40.6742 47.7985L40.7733 48.1191C41.3966 47.7697 42.0522 47.5211 42.6881 47.4058C43.1078 47.3301 43.6392 47.3265 44.3093 47.395C45.0676 47.4724 45.8314 47.8345 46.4637 48.4109C47.0743 48.9693 47.3986 49.7115 47.3986 50.5563C47.3986 51.1021 47.2617 51.6695 47.0149 52.2027L47.0185 52.1847ZM55.337 26.9626C55.2901 26.4618 55.0686 25.9052 54.7245 25.5936L54.2688 25.1811C54.1157 25.0424 53.8329 24.9307 53.6167 24.8479C52.8926 24.5687 52.1666 25.055 51.8532 24.6101C51.2678 23.7797 50.2608 23.2519 49.2989 22.9204C49.0684 22.8412 48.8216 22.7962 48.5622 22.7962L47.7606 22.7908C46.4583 22.7817 45.536 23.2951 44.5435 24.0787C44.4966 24.1165 44.4336 24.1598 44.3976 24.1778C44.3687 24.1922 44.203 23.9634 44.2102 23.8445C44.2138 23.8049 44.2733 23.7419 44.3093 23.7076L44.5615 23.4554C44.747 23.2699 44.9614 23.1924 45.1829 23.0736C45.5288 22.888 45.8386 22.7043 46.2079 22.598L46.5105 22.5116C47.3049 22.2828 48.0524 22.3026 48.863 22.3945C49.5277 22.4701 50.1131 22.7061 50.6914 23.0303C51.0588 23.2357 51.3723 23.4392 51.6695 23.7527L52.2315 24.3453H52.6062C52.916 24.3453 53.2672 24.2696 53.5465 24.3651L53.9752 24.511L54.3228 24.6587C54.6795 24.81 55.0812 25.1883 55.2829 25.4981C55.5855 25.9593 55.9296 26.8437 55.6 27.0112C55.5441 27.0401 55.3784 27.0112 55.337 26.9626ZM60.5788 32.0009C60.3626 31.9865 60.2348 31.828 60.2546 31.6532C60.2924 31.3146 60.1699 31.066 60.0222 30.7814C59.8547 30.4608 59.6565 30.1942 59.3287 29.9942C59.154 29.8862 58.9648 29.7186 58.7306 29.6502C58.3272 29.5313 57.7904 29.4971 57.3689 29.6358C57.0356 29.7456 56.7528 29.9816 56.4808 30.1942C56.2052 30.4085 56.0827 30.7616 55.989 31.0894L55.8287 31.6532L55.4775 31.8226C55.3153 31.4641 55.436 31.0822 55.5855 30.7382C55.917 29.9834 56.4862 29.443 57.2896 29.1854C57.7723 29.0756 58.3199 29.0828 58.8207 29.1602L59.1468 29.3169C59.253 29.3692 59.4206 29.4124 59.5575 29.443L60.2978 30.1888L60.4455 30.5887L60.6473 31.1741L60.7932 31.6713L60.577 32.0009H60.5788ZM48.1641 47.8399C48.0578 47.8309 47.9155 47.8633 47.8093 47.8957C47.6561 47.8687 47.3823 47.8327 47.2508 47.7823L46.8798 47.64L46.5069 47.4814C46.1196 47.3175 45.8926 46.9789 45.5828 46.6961C45.1037 46.2565 45.0514 45.8711 44.983 45.8458C44.9848 45.8458 45.0172 45.817 45.0622 45.7738L44.8227 45.4928L44.7668 44.7236C44.7506 44.5111 44.8191 44.2877 45.0676 44.2607L45.1343 44.6245L45.2784 45.2856C45.3288 45.5144 45.5036 45.8422 45.6405 46.0332L45.8566 46.3376C46.1142 46.6997 46.4727 46.9663 46.9014 47.1374C47.204 47.2581 47.5751 47.4328 47.9119 47.449C48.3352 47.4688 49.3656 47.2527 49.6682 47.0293L50.2248 46.6168C50.5797 46.3538 50.6679 45.8512 51.1669 45.853H52.046C52.1594 45.7792 52.2837 45.7414 52.4296 45.6873L52.7917 45.5558C53.4077 45.3307 53.8167 44.7705 54.0328 44.158L54.2742 43.4735L54.5516 43.4951C54.7497 44.3886 53.7842 45.7143 52.9826 45.999L52.626 46.125L52.127 46.2836C51.8208 46.3808 51.4137 46.2998 51.0895 46.3394C50.8589 46.6456 50.6319 46.8906 50.3401 47.1032L49.8754 47.4418C49.5169 47.703 49.144 47.8903 48.6775 47.8111C48.5316 47.9534 48.3406 47.9732 48.1641 47.8381V47.8399Z" fill="black"/>
<path d="M44.7019 17.3834L45.3125 17.2447L45.4026 17.2339C45.3791 17.2789 45.3431 17.3276 45.2855 17.3852C44.963 17.7094 44.4551 17.677 44.048 17.5725L44.1074 17.5437C44.2894 17.4554 44.4983 17.4266 44.7001 17.3816L44.7019 17.3834Z" fill="black"/>
<path d="M45.891 19.6861C44.4679 19.8302 43.2142 19.1799 42.3694 18.5603C42.5261 18.4432 42.6954 18.3549 42.8503 18.2486L43.1764 18.0253C44.2446 18.5188 45.2245 18.4702 45.7973 17.8956C46.0243 17.6686 46.1432 17.4146 46.154 17.157L46.6403 17.1354C46.7358 17.1318 46.8421 17.1877 46.9465 17.2381C47.0564 17.2921 47.3248 17.2381 47.4635 17.2687C47.8202 17.3444 48.2039 17.4615 48.5803 17.6056C48.5389 17.8451 48.4596 18.0739 48.3263 18.2811C47.813 19.079 46.9465 19.578 45.891 19.6843V19.6861Z" fill="black"/>
<path d="M21.193 17.927C20.6634 17.9126 20.15 17.5325 20.1338 17.0282C20.105 16.1509 22.1459 15.5223 23.2879 15.5385L24.5506 15.5835C25.2369 14.8144 25.7233 14.0038 26.3465 13.0671C26.7734 14.11 26.66 15.2287 26.3483 16.2698C27.4021 17.3254 27.4742 19.1699 26.7428 20.5281C26.0097 21.8899 24.9307 22.9509 23.8535 24.0731C23.6157 24.3704 23.7274 24.9954 23.8967 25.3305C24.5362 26.5896 25.934 27.6325 27.312 27.2831C28.2253 26.822 28.944 26.1555 29.6285 25.4025C31.1344 23.7435 32.1234 21.7314 32.4098 19.4924C32.7989 16.4482 31.0444 13.8975 28.1821 12.8329C25.7413 11.9268 22.6268 11.9395 20.2563 12.9716C19.5267 13.2886 18.8963 13.7047 18.2982 14.2523C16.9869 15.452 16.3294 17.6676 17.7741 18.9862C18.2982 19.4654 18.9809 19.8346 19.7231 19.9103C20.2004 19.9589 20.7714 19.9895 21.2434 19.9031C23.713 19.4546 26.478 16.8985 26.2348 14.1911C26.0799 14.2469 26.0493 14.3424 25.961 14.5009C25.055 16.1059 22.9528 17.9739 21.193 17.9252V17.927Z" fill="black"/>
<path d="M22.6018 51.9506C20.6437 52.4064 17.2446 51.2211 18.4605 50.0052C19.0045 49.4612 19.925 49.6017 20.678 49.9494C22.2289 50.6663 23.407 51.8642 24.286 53.4367C24.5238 51.6732 23.3943 49.9926 22.0109 48.9208C20.8779 48.0436 19.5197 47.4564 18.0751 47.6023C16.96 47.7157 15.9675 48.2489 15.3731 49.1694C14.6489 50.2934 15.1713 51.9633 16.09 52.9936C17.2374 54.2816 18.8442 54.939 20.5483 55.2272C22.8215 55.6127 25.1416 55.3533 27.1843 54.3086C29.7746 52.9846 30.9509 50.3673 30.4141 47.5194C29.8773 44.6715 28.2057 42.1767 25.8459 40.5159C24.5328 39.5918 22.7819 40.7627 22.0001 42.2001C21.8038 42.5604 21.6723 43.2467 21.9803 43.5457C22.3946 43.9492 22.7873 44.2968 23.1422 44.7328L24.1941 46.0243C25.4443 47.5572 25.8225 49.8737 24.4283 51.2625C24.7597 52.3253 24.8516 53.4367 24.4283 54.5139L23.0575 52.4694C22.9422 52.2983 22.7459 52.111 22.6 51.9488L22.6018 51.9506Z" fill="black"/>
<path d="M20.4941 17.0175C20.4905 16.9418 20.5409 16.8464 20.6382 16.7455C20.7246 16.6572 20.8399 16.5744 20.9732 16.4951C21.3407 16.7599 21.7082 17.1004 22.027 17.4462C21.7442 17.5309 21.4668 17.5759 21.2038 17.5687C20.8345 17.5579 20.5031 17.3021 20.4941 17.0175Z" fill="black"/>
<path d="M19.7627 19.5538C19.1575 19.4907 18.5379 19.1953 18.0191 18.7215C17.5543 18.2982 17.3202 17.7542 17.3184 17.1076C17.3184 16.5672 17.4949 15.9817 17.7993 15.4521H18.0911L19.1791 15.6143C19.4493 15.6539 19.6817 15.7638 19.9213 15.8809L20.1951 16.0142L20.3049 16.079C20.2401 16.1312 20.1771 16.1835 20.123 16.2393C19.8222 16.5474 19.7646 16.8446 19.7718 17.0409C19.7934 17.7074 20.4256 18.2676 21.1822 18.2874C21.6037 18.2982 22.045 18.2082 22.4863 18.0442L22.6791 18.3667L22.9331 18.9089C22.3981 19.2097 21.8109 19.4367 21.1786 19.5501C20.8255 19.615 20.3626 19.615 19.7609 19.5538H19.7627Z" fill="black"/>
<path d="M23.9704 20.875C23.9938 20.5742 23.9506 20.2896 23.8209 20.0284C23.8497 19.7582 23.8119 19.4934 23.6714 19.2754C24.1595 18.9548 24.6189 18.5729 25.0206 18.1442C25.2475 17.9028 25.4493 17.6542 25.6276 17.3984L25.8528 17.4579L26.5571 17.7461L26.7895 17.874C26.9606 18.6684 26.8471 19.578 26.4256 20.3616C26.2689 20.6516 26.096 20.9254 25.9122 21.192C25.8672 21.1974 25.8204 21.2046 25.7753 21.2172C25.4511 21.129 25.1575 21.192 24.8621 21.3055L24.5036 21.4424L24.0262 21.6586C23.9722 21.4136 23.9614 21.147 23.9686 20.8768L23.9704 20.875Z" fill="black"/>
<path d="M23.441 23.8448L23.6301 23.463L23.7796 22.9712C23.8517 22.7352 23.8841 22.438 24.0534 22.2723C24.4119 21.921 24.8388 21.822 25.2873 21.7229C25.3792 21.7031 25.4621 21.6923 25.5431 21.6851C25.0406 22.3227 24.4713 22.9154 23.8805 23.5278L23.5725 23.8502C23.468 23.9817 23.4068 24.1403 23.3779 24.3096L23.3401 24.2844C23.3023 24.1709 23.3779 23.9691 23.4392 23.8448H23.441Z" fill="black"/>
<path d="M24.1309 24.3092L24.4011 24.0282C25.0802 23.3239 25.7737 22.5997 26.3682 21.7873C26.4672 21.8071 26.5645 21.8288 26.651 21.872L27.3949 22.2431C27.7228 22.407 27.9317 22.7492 28.1245 23.0609L28.4865 23.0501C28.6558 22.7618 28.4127 22.5061 28.2505 22.2827C28.1821 22.189 28.1551 22.0665 28.0416 22.0017L27.0815 21.4469C26.9554 21.373 26.8455 21.3226 26.6852 21.3298C26.8185 21.1262 26.9464 20.9191 27.0635 20.7011C27.4544 19.977 27.6237 19.1718 27.5895 18.4062C27.9948 18.7503 28.3983 19.1952 28.5604 19.5375L29.1566 20.7912L29.2395 21.2361L29.3692 22.2088C29.5025 22.4214 29.8285 22.3277 29.9942 22.3872L30.441 22.5511L31.0048 22.8069C30.5742 23.6445 30.0248 24.4353 29.3656 25.1612C29.1836 25.3629 29.0071 25.5449 28.8378 25.7124L28.8036 25.6926L28.4397 25.5269L27.0887 25.5323L26.8239 25.6043L26.3934 25.698C26.1664 25.7484 25.6224 26.3879 25.4549 26.1087C25.372 25.9718 25.2748 25.8943 25.1685 25.8097L24.6101 25.1882L24.1093 24.8027C24.0715 24.5956 24.0769 24.3938 24.1363 24.3074L24.1309 24.3092Z" fill="black"/>
<path d="M24.8495 17.2064L24.8639 17.21C24.4803 17.7252 23.9993 18.1989 23.4427 18.5898C23.3454 18.3772 23.2193 18.1791 23.0878 17.9701L22.996 17.8242C23.3454 17.6495 23.6895 17.4333 24.0227 17.1866C24.2947 17.1577 24.61 17.1469 24.8513 17.2046L24.8495 17.2064Z" fill="black"/>
<path d="M25.9448 26.8224C25.9105 26.7144 25.9123 26.6153 26.0312 26.518C26.2078 26.3721 26.4149 26.2226 26.6419 26.1397L27.0328 25.9956C27.4074 25.9344 27.8145 25.902 28.1676 26.0191L28.4162 26.1019C28.0055 26.4586 27.6092 26.7306 27.1877 26.9485C26.7662 27.0458 26.3429 26.9864 25.9466 26.8242L25.9448 26.8224Z" fill="black"/>
<path d="M25.4279 40.6911C25.1055 40.9199 24.729 41.073 24.3219 41.1234C24.1237 41.1486 24.0607 41.2819 23.3816 41.1198C23.7148 40.8622 24.0715 40.6767 24.4174 40.5956C24.7848 40.5092 25.1253 40.5434 25.4297 40.6911H25.4279Z" fill="black"/>
<path d="M23.4212 44.5071C23.1293 44.1505 22.8231 43.8569 22.4989 43.547C22.4106 43.4624 22.3205 43.3777 22.2305 43.2894C22.1026 43.1652 22.1458 42.6842 22.3151 42.3726C22.4809 42.0681 22.6898 41.7853 22.924 41.5368L23.1492 41.607C23.6445 41.7619 24.239 41.6953 24.7541 41.6142C24.8334 41.598 25.0189 41.5386 25.091 41.4953L25.7719 41.0936C25.8169 41.0666 25.8565 41.036 25.898 41.0054C27.4399 42.1564 28.6234 43.6497 29.3637 45.3447C29.3169 45.424 29.2718 45.5015 29.2214 45.5771C28.4 46.8074 27.0148 47.8054 25.5809 48.1278C25.408 47.2776 25.0063 46.4562 24.4713 45.7987L23.4194 44.5071H23.4212Z" fill="black"/>
<path d="M26.388 40.4712L26.6456 40.1091C26.7482 39.9632 26.8131 39.8209 26.8617 39.6372L26.9752 39.2139C27.0022 39.113 27.0725 38.8806 27.168 38.85L27.7984 38.7761C27.993 38.6302 28.1659 38.551 28.373 38.4555C28.6522 38.3276 28.8738 38.1205 29.1116 37.9493C29.4142 37.7296 29.6682 37.4522 29.8717 37.1351L30.16 36.6884L30.3563 36.2417L30.4716 35.9121C30.5256 35.7571 30.6031 35.4761 30.6031 35.3032L30.5995 34.0981C30.5995 33.9936 30.558 33.7865 30.5166 33.6982C30.3743 33.401 30.3905 33.1632 30.1203 32.6931L29.9042 32.3184L29.443 31.8213C29.2719 31.6357 29.0179 31.4754 28.7603 31.4736C28.7009 31.4736 28.6018 31.5799 28.6018 31.6375C28.6018 31.6952 28.6631 31.8104 28.7081 31.8501L29.0792 32.1851C29.6069 32.6607 29.9438 33.3614 30.0627 34.0711C30.3023 35.4851 29.8123 36.5948 28.8072 37.5837C28.6901 37.6972 28.6342 37.7512 28.4577 37.807L28.0794 38.0394L27.7138 38.1943L27.3697 38.3384C26.8833 38.351 26.5033 38.4339 26.4618 38.8824C26.415 39.3688 26.2349 39.8083 25.9629 40.1686C25.4585 39.8461 24.8695 39.7507 24.2498 39.8948C23.686 40.0263 23.1132 40.3613 22.616 40.8243L22.29 40.5811C21.9639 40.3397 21.755 40.0371 21.6055 39.6516C21.5749 39.5705 21.4542 39.412 21.4794 39.331C21.5028 39.2517 21.5839 39.1472 21.6469 39.0644L21.9009 38.7347C22.2071 38.2141 22.4269 37.7044 22.6214 37.1351C22.6845 36.9514 22.7043 36.7046 22.7151 36.5029L22.7511 35.8616L23.6176 35.3879L24.1904 34.9754L24.4354 34.815C24.547 34.7412 24.6425 34.6601 24.7362 34.5629L25.028 34.2602C25.3558 33.9216 25.6422 33.5974 25.8566 33.1776C25.9683 32.9597 26.134 32.7435 26.2187 32.5022L26.4871 31.7366C26.7537 30.98 26.705 30.1604 26.723 29.3607C26.7266 29.1535 26.6762 28.9878 26.6384 28.7932L26.5267 28.2042L26.3988 27.8746L26.3105 27.6746C26.6636 27.7341 27.0293 27.7287 27.3985 27.635L27.4724 27.608C28.0992 27.2909 28.6342 26.8802 29.0864 26.4659C29.4376 26.7325 29.7294 27.0802 29.8807 27.4801C29.942 27.6422 30.0032 28.1159 30.2842 28.0727C30.3437 28.0637 30.4031 27.9556 30.4265 27.8836C30.5112 27.6296 30.4139 27.4639 30.3455 27.2441C30.2626 26.9757 30.1816 26.783 29.9546 26.619C29.8898 26.5092 29.7871 26.338 29.679 26.2552L29.4718 26.0949C29.6232 25.9417 29.7655 25.7904 29.8934 25.6481C30.5833 24.8862 31.1615 24.0576 31.6172 23.1821C31.9018 23.3821 32.1468 23.6361 32.3666 23.9117L32.8097 24.4665C33.006 24.7133 33.1609 24.9294 33.26 25.2266L33.5482 26.0877C33.9247 27.3774 33.813 28.7104 33.1249 29.883C33.0745 29.9677 33.0186 30.2091 33.0745 30.2901C33.3987 30.6702 33.6617 31.0935 33.8779 31.5384L34.1247 32.0464L34.348 32.567L34.4813 33.0894L34.5732 33.4947C34.629 33.7397 34.7191 34.0063 34.7353 34.2638C34.7641 34.7268 34.7839 35.1843 34.7425 35.6509L34.6903 36.2507C34.6669 36.5209 34.6074 36.8073 34.5263 37.0667L34.3498 37.6323C34.1877 38.1493 33.986 38.623 33.7049 39.0878L33.2906 39.7723L33.0511 40.0965C32.3413 40.9161 31.5704 41.6547 30.6229 42.2041C30.0933 42.5121 30.3437 42.5211 30.1924 43.2092L30.0933 43.6613C30.0519 43.8505 30.0104 44.0666 29.9204 44.2486C29.8717 44.3458 29.8249 44.4449 29.7763 44.5422C28.9909 42.966 27.8381 41.5754 26.3808 40.473L26.388 40.4712Z" fill="black"/>
<path d="M16.9815 15.4609C16.4249 15.5077 15.9151 15.7095 15.3747 15.9076L14.9352 16.0679C14.8127 16.113 14.7551 16.2228 14.6416 16.2877L14.1156 16.5921L13.5302 17.1631C13.305 17.3829 12.9591 17.2658 12.7196 17.1631L12.3683 17.0154L11.9306 16.9001C11.5397 16.7957 11.0624 16.7704 10.6769 16.8623L9.99597 17.0244C9.0791 17.2424 8.06136 17.9485 7.59842 18.8185L7.11206 19.7336L7.02019 20.0795L6.86888 20.8468C6.78782 21.2575 6.98057 22.0159 7.23095 22.4338C7.27778 22.5833 7.23996 22.9292 7.14088 23.0462L6.72118 23.5308L6.11593 24.2657L5.56653 25.2763C5.46926 25.4564 5.40441 25.714 5.36658 25.9085L5.27652 26.3733C5.2477 26.521 5.17024 26.8164 5.18465 26.9605L5.26931 27.863C5.28372 28.0233 5.3828 28.2719 5.43864 28.4214L5.57734 28.7924L5.71964 29.1977L5.92499 29.6355L6.36091 30.6046C6.59148 31.1179 6.69776 31.9376 6.53564 32.4041C6.43296 32.7049 6.16997 33.1102 5.85294 33.2291C5.57193 33.3336 5.08017 33.3372 4.79917 33.2435C4.31101 33.0796 3.99758 32.6004 3.82645 32.1249C3.72558 31.8457 3.68235 31.4692 3.68415 31.1468L3.68775 28.4682L3.79223 27.8287L3.8895 27.4937L3.97777 27.0938L4.15429 26.4255L4.33263 25.8311L4.37946 25.179C4.39567 24.961 4.42089 24.7665 4.37946 24.5575L4.24977 23.8875C4.17411 23.4948 4.17051 22.5203 4.28759 22.2014L4.42269 21.8358C4.54158 21.5151 4.50195 21.0792 4.4281 21.1963L4.33443 21.344L3.95255 21.96C3.80304 22.2032 3.64092 22.4338 3.6211 22.7328L3.50042 22.9508L3.10593 23.8532L2.63758 24.6872L2.34757 25.1484L1.71531 26.0562L1.22715 26.7696L0.825457 27.4234C0.650729 27.7081 0.483206 28.0395 0.37873 28.3601L0.216611 28.8555L0.0725054 29.3617C-0.0427791 29.7634 -0.0157593 31.127 0.11934 31.6385L0.31028 32.3609C0.411153 32.7445 0.594888 33.1138 0.895708 33.3516L0.827258 33.42C0.827258 33.42 0.87049 33.4687 0.888503 33.4903C0.937139 33.5479 0.908318 33.7191 0.845271 33.7713C0.692159 33.9028 0.647126 34.0379 0.562464 34.2036C0.265247 34.7872 0.200399 35.1133 0.115737 35.7329C0.0923199 35.8987 0.0689027 36.0247 0.0995252 36.2067L0.193194 36.7777L0.349909 37.3883L0.513829 37.8441C0.573272 38.008 0.686755 38.1755 0.787629 38.3196L0.971364 38.5808L1.55679 39.2095C1.69369 39.3572 1.95128 39.4923 1.95849 39.7355C1.9711 40.202 1.91345 40.6758 2.03594 41.1243C2.07377 41.263 2.12781 41.3837 2.14042 41.5422C2.16744 41.852 2.73305 42.8571 3.05369 43.194L3.78142 43.9614C4.19032 44.3919 4.79376 44.5468 5.32876 44.7395C5.55032 44.8188 5.61336 45.0079 5.71964 45.17L6.12854 45.8005L6.46719 46.2652L6.6221 46.4544L7.30841 47.1281C7.79476 47.6054 8.64498 48.099 9.30247 48.3241L9.67714 48.4538C10.1293 48.6088 10.5166 48.7294 10.9993 48.7294H12.1954C12.5286 48.7294 12.8132 48.6934 13.1465 48.6304C13.3446 48.7312 13.5572 48.9222 13.7193 49.0933L13.9066 49.2086C14.1516 49.4013 14.4416 49.5797 14.7551 49.7364C14.8217 49.4482 14.928 49.187 15.0703 48.9654C15.436 48.398 15.9421 47.9531 16.5474 47.6541C16.3871 47.636 16.2267 47.6072 16.1115 47.501C16.0556 47.4505 16.079 47.2434 16.1385 47.2001C16.4015 47.0038 16.5186 47.2271 16.8842 47.2271C17.0481 47.2271 17.1508 47.265 17.3039 47.301C17.3598 47.3136 17.4174 47.3226 17.4769 47.328C17.6588 47.2866 17.8443 47.256 18.0371 47.2362C18.2965 47.2091 18.5576 47.2055 18.8206 47.2217C19.2476 47.1587 19.6348 47.0362 20.0131 46.8056L20.7535 46.3535C21.0723 46.159 21.1822 45.8383 21.4091 45.9356C21.4992 45.9734 21.6145 46.2238 21.564 46.3067C21.4938 46.422 21.3191 46.5643 21.1984 46.6417L20.4058 47.1461C20.2347 47.2542 20.0635 47.3388 19.8798 47.4019C20.6562 47.618 21.4289 48.0161 22.1765 48.5853L22.4863 48.2971C22.544 48.2449 22.7061 48.2179 22.7691 48.2233L23.5221 48.2989C23.6302 48.3097 23.8409 48.4052 23.967 48.389L24.7272 48.2917L24.8911 48.2593C24.7668 47.6018 24.457 46.9083 23.9148 46.2418L22.8628 44.9503C22.5998 44.6278 22.3098 44.3504 22.0018 44.0568C21.9117 43.9704 21.8216 43.8839 21.728 43.7938C21.2722 43.3507 21.4271 42.4879 21.6829 42.0177C21.8396 41.7277 22.0306 41.4557 22.2431 41.2071C22.045 41.0774 21.8487 40.9225 21.7208 40.7964C21.3119 40.3929 21.2092 39.9606 20.903 39.694C20.7499 39.8904 20.6184 39.9768 20.4418 40.0435L20.1968 40.2452L19.8366 40.411L19.4097 40.5551C19.2007 40.6253 18.9179 40.6037 18.6801 40.6397C18.5883 40.6541 18.4099 40.755 18.3073 40.7496L17.4642 40.7046L17.1454 40.6091C16.9905 40.5623 16.7978 40.5803 16.6789 40.5461L16.3312 40.4164L15.9926 40.2777L15.3927 39.948C15.2955 39.894 15.1297 39.7643 15.0433 39.676L14.3696 38.9951L14.0309 38.5916L13.8436 38.2386C13.8202 38.0891 13.7697 37.954 13.6797 37.8711C13.6581 37.5505 13.4329 37.4838 13.1807 37.419C13.0168 37.3757 12.8817 37.3145 12.6907 37.3235C12.5358 37.3289 12.4115 37.2641 12.2836 37.201L11.6766 36.902C11.347 36.7399 11.0335 36.4895 10.7976 36.2283L10.2085 35.5798C9.95995 35.306 9.77621 34.9638 9.6249 34.6395L9.45558 34.0415C9.46278 33.7587 9.43216 33.5227 9.33309 33.2795L9.37092 32.4491L9.47359 31.8835C9.49701 31.7502 9.56546 31.5142 9.63211 31.3791L10.1221 30.3812C10.2085 30.2029 10.4373 29.9471 10.594 29.8066L11.0786 29.3689C11.1614 29.295 11.2785 29.1617 11.2749 29.0735C11.2713 28.9762 11.1686 28.8141 11.1452 28.7222L11.0263 28.2683C10.9453 27.9602 10.9777 27.5477 11.0137 27.2181C11.1812 27.0019 11.0299 26.7371 11.2515 26.312L11.628 25.5861C11.8982 25.2024 12.2512 24.9016 12.6529 24.6566L13.2203 24.3828L13.631 24.2423C14.0363 24.1036 15.0181 24.1198 15.4612 24.2711L15.8683 24.4116C16.0718 24.4819 16.2321 24.5503 16.3997 24.689L16.7851 25.0097C17.0626 25.2402 17.2931 25.4114 17.7056 25.3519C17.8713 25.3753 18.174 25.4762 18.3379 25.5447L18.6783 25.6888C18.763 25.7248 18.9197 25.7915 18.9846 25.8473L19.2295 26.058C19.3863 26.1913 19.6114 26.3805 19.7195 26.5588L20.096 27.2631L20.2041 27.6702C20.3175 28.0971 20.2833 28.5781 20.2563 29.014C20.0347 29.1689 20.2041 29.2986 20.0077 29.6625L19.8654 29.9273C19.7357 30.1669 19.5574 30.3416 19.3592 30.5181L19.0512 30.7937C19.0512 30.9937 19.1088 31.1594 19.1539 31.3521C19.2097 31.5989 19.2223 31.9682 19.1485 32.1897C18.9521 32.7806 18.6873 33.3462 18.1956 33.683L17.7471 33.9893L17.3922 34.1316L17.068 34.2739L16.0052 34.2685L15.7062 34.1622L15.4197 34.0595C14.9262 33.883 14.3191 33.2615 14.465 33.1102C14.5569 33.0147 14.8505 32.9283 14.9622 33.0021C15.0523 33.2399 15.182 33.3642 15.4215 33.4399L15.7656 33.6146C15.9133 33.6884 16.0466 33.7263 16.2231 33.7569L16.4159 33.8524C16.4699 33.8794 16.5942 33.7641 16.6573 33.7551C16.8392 33.7335 17.1022 33.7245 17.2679 33.6542C17.8047 33.4272 18.1523 33.1192 18.3613 32.595L18.5108 32.3068C18.6459 32.0456 18.6603 31.3755 18.5612 31.0999C18.5018 30.9306 18.3235 30.655 18.545 30.5001C18.7972 30.3236 19.0386 30.1326 19.2205 29.8642C19.4151 29.5778 19.6312 29.295 19.6709 28.9311C19.7015 28.6483 19.9032 28.3367 19.7645 27.9206L19.6348 27.5315C19.543 27.2541 19.343 26.9515 19.1629 26.7281C18.9107 26.4201 18.5937 26.2238 18.237 26.0923L17.5813 25.8491C17.3742 25.7716 16.9941 25.9806 16.7095 25.6762C16.4159 25.3645 16.1151 25.0799 15.7098 24.9268L15.3279 24.7827L14.8253 24.6602C14.5281 24.5882 13.7409 24.7035 13.4563 24.8584C13.278 24.9556 12.979 25.0061 12.8367 25.1304L12.4007 25.514L12.0891 25.8761L11.7487 26.3679L11.6802 26.7371C11.5649 26.856 11.5235 27.0217 11.5577 27.1875C11.3344 27.4505 11.4424 27.7351 11.5199 28.0035C11.5847 28.225 11.6082 28.4556 11.7126 28.679C11.8261 28.9203 11.9828 29.1779 11.8369 29.4499L11.4622 29.7544L11.1164 30.0606L10.7759 30.428C10.6426 30.5722 10.5202 30.6982 10.4409 30.8892L10.0608 31.8043L9.94013 32.2402C9.85007 32.5644 9.86628 32.9499 9.92933 33.2831L10.0122 33.7137L10.086 34.1334C10.2301 34.4954 10.3761 34.8305 10.5814 35.1493C10.6625 35.2772 10.83 35.4105 10.8426 35.5762L11.0083 35.6753C11.1957 35.8158 11.3776 36.0626 11.5721 36.1797L12.1143 36.5093C12.1972 36.5597 12.3737 36.6516 12.462 36.6822L12.8907 36.8299L13.3789 36.8912L13.7697 37.0119C13.8634 37.0785 14.0291 37.2622 14.0886 37.3649C14.2165 38.0098 14.5713 38.4889 15.0253 38.9357C15.3153 39.2221 15.5909 39.4689 15.9565 39.6508C16.1655 39.7553 16.4033 39.912 16.6194 39.9732L17.1238 40.1137L17.6444 40.256C17.8047 40.2993 18.1542 40.2957 18.3145 40.256L18.7504 40.148L19.1863 40.0417L19.5952 39.9012L20.0329 39.7319C20.1428 39.6886 20.2473 39.5986 20.3121 39.4923C20.6526 39.341 20.9498 39.0996 21.1732 38.7736L21.746 37.9431C22.0396 37.518 22.2161 36.4174 22.1747 35.7708C22.1693 35.6915 22.1855 35.5222 22.2341 35.4699C22.2882 35.4105 22.4143 35.3565 22.5278 35.3186L22.8952 35.1961L23.9112 34.5657C24.0751 34.4648 24.2084 34.2955 24.3597 34.1694C24.9577 33.6686 25.3702 33.0219 25.7179 32.3266C25.889 31.9844 25.9917 31.6565 26.0709 31.2819L26.2078 30.6352V29.286L26.0727 28.6808C25.9917 28.3115 25.8872 27.8828 25.7089 27.5549L25.6638 27.4721C24.7686 27.1046 24.0102 26.3282 23.5779 25.4762C23.5149 25.3519 23.4536 25.1862 23.4122 25.0043L22.6412 24.5792C22.652 24.4351 22.7133 24.1865 22.7907 24.0208L23.1294 23.2966L23.3438 22.4968C23.4338 22.1618 23.5023 21.8574 23.4915 21.5007L23.468 20.7676L23.3257 19.8471L23.2267 19.5265C22.6034 19.8759 21.9477 20.1245 21.3119 20.2398C20.8922 20.3154 20.3608 20.319 19.6907 20.2506C18.9323 20.1731 18.1686 19.8111 17.5363 19.2346C16.9257 18.6762 16.6014 17.9341 16.6014 17.0893C16.6014 16.5435 16.7383 15.9761 16.9851 15.4429L16.9815 15.4609ZM8.6648 40.683C8.71163 41.1837 8.9332 41.7403 9.27725 42.052L9.73298 42.4645C9.88609 42.6032 10.1689 42.7148 10.3851 42.7977C11.1092 43.0769 11.8351 42.5906 12.1486 43.0355C12.734 43.8659 13.7409 44.3937 14.7028 44.7251C14.9334 44.8044 15.1802 44.8494 15.4396 44.8494L16.2411 44.8548C17.5435 44.8638 18.4658 44.3504 19.4583 43.5669C19.5051 43.529 19.5682 43.4858 19.6042 43.4678C19.633 43.4534 19.7988 43.6822 19.7915 43.801C19.7879 43.8407 19.7285 43.9037 19.6925 43.9379L19.4403 44.1901C19.2548 44.3757 19.0404 44.4531 18.8188 44.572C18.473 44.7575 18.1632 44.9413 17.7939 45.0476L17.4913 45.134C16.6969 45.3628 15.9493 45.343 15.1387 45.2511C14.4741 45.1754 13.8886 44.9395 13.3104 44.6152C12.9429 44.4099 12.6295 44.2063 12.3323 43.8929L11.7703 43.3003H11.3956C11.0858 43.3003 10.7345 43.3759 10.4553 43.2805L10.0266 43.1346L9.67894 42.9868C9.32228 42.8355 8.92059 42.4573 8.71884 42.1474C8.41622 41.6863 8.07217 40.8018 8.40181 40.6343C8.45765 40.6055 8.62337 40.6343 8.6648 40.683ZM3.42116 35.6465C3.63732 35.6609 3.76521 35.8194 3.7454 35.9941C3.70757 36.3328 3.83006 36.5814 3.97777 36.866C4.14529 37.1866 4.34343 37.4532 4.67127 37.6531C4.846 37.7612 5.03514 37.9287 5.26931 37.9972C5.67281 38.1161 6.2096 38.1503 6.63111 38.0116C6.96435 37.9017 7.24716 37.6657 7.51916 37.4532C7.79476 37.2388 7.91725 36.8858 8.01092 36.5579L8.17124 35.9941L8.52249 35.8248C8.68461 36.1833 8.56393 36.5651 8.41442 36.9092C8.08297 37.6639 7.51376 38.2043 6.71037 38.4619C6.22761 38.5718 5.68001 38.5646 5.17925 38.4871L4.85321 38.3304C4.74693 38.2782 4.57941 38.235 4.44251 38.2043L3.70216 37.4586L3.55446 37.0587L3.35271 36.4733L3.2068 35.9761L3.42296 35.6465H3.42116ZM15.8359 19.8057C15.9421 19.8147 16.0844 19.7822 16.1907 19.7498C16.3438 19.7768 16.6176 19.8129 16.7491 19.8633L17.1202 20.0056L17.4931 20.1641C17.8804 20.328 18.1073 20.6667 18.4171 20.9495C18.8963 21.389 18.9485 21.7745 19.017 21.7997C19.0152 21.7997 18.9828 21.8285 18.9377 21.8718L19.1773 22.1528L19.2331 22.9219C19.2494 23.1345 19.1809 23.3579 18.9323 23.3849L18.8657 23.021L18.7216 22.3599C18.6711 22.1312 18.4964 21.8033 18.3595 21.6124L18.1433 21.308C17.8858 20.9459 17.5273 20.6793 17.0986 20.5082C16.796 20.3875 16.4249 20.2128 16.088 20.1966C15.6647 20.1767 14.6344 20.3929 14.3318 20.6163L13.7751 21.0288C13.4203 21.2918 13.332 21.7943 12.8331 21.7925H11.954C11.8405 21.8664 11.7162 21.9042 11.5703 21.9582L11.2083 22.0897C10.5922 22.3149 10.1833 22.8751 9.96715 23.4876L9.72578 24.1721L9.44837 24.1504C9.25023 23.257 10.2157 21.9312 11.0173 21.6466L11.374 21.5205L11.8729 21.362C12.1792 21.2647 12.5863 21.3458 12.9105 21.3062C13.1411 20.9999 13.368 20.755 13.6599 20.5424L14.1246 20.2038C14.4831 19.9426 14.8559 19.7552 15.3225 19.8345C15.4684 19.6922 15.6593 19.6724 15.8359 19.8075V19.8057Z" fill="black"/>
<path d="M19.2997 50.2632L18.6891 50.4019L18.599 50.4127C18.6224 50.3677 18.6584 50.319 18.7161 50.2614C19.0385 49.9371 19.5465 49.9696 19.9536 50.074L19.8941 50.1029C19.7122 50.1911 19.5033 50.22 19.3015 50.265L19.2997 50.2632Z" fill="black"/>
<path d="M18.1092 47.9617C19.5322 47.8176 20.7859 48.4678 21.6307 49.0875C21.474 49.2046 21.3047 49.2929 21.1498 49.3991L20.8238 49.6225C19.7556 49.1289 18.7757 49.1776 18.2028 49.7522C17.9759 49.9792 17.857 50.2331 17.8462 50.4907L17.3598 50.5123C17.2644 50.5159 17.1581 50.4601 17.0536 50.4097C16.9437 50.3556 16.6753 50.4097 16.5366 50.379C16.18 50.3034 15.7963 50.1863 15.4198 50.0422C15.4612 49.8026 15.5405 49.5739 15.6738 49.3667C16.1872 48.5687 17.0536 48.0698 18.1092 47.9635V47.9617Z" fill="black"/>
<path d="M17.0971 42.796C17.0827 43.3256 16.7026 43.839 16.1982 43.8552C15.321 43.884 14.6941 41.8431 14.7121 40.6993L14.759 39.4365C13.9898 38.7502 13.1792 38.2639 12.2443 37.6388C13.2891 37.2137 14.4059 37.3254 15.4471 37.6388C16.5044 36.5868 18.3472 36.5148 19.7054 37.2479C21.0672 37.9829 22.1264 39.0619 23.2486 40.139C23.5458 40.3768 24.1709 40.2669 24.5059 40.0958C25.765 39.4563 26.8098 38.0585 26.4603 36.6823C25.9992 35.769 25.3345 35.0485 24.5798 34.364C22.9207 32.8581 20.9105 31.8674 18.6714 31.5792C15.629 31.1883 13.0747 32.941 12.0084 35.8015C11.1005 38.2405 11.1113 41.3549 12.1417 43.7273C12.4587 44.4568 12.873 45.0873 13.4206 45.6853C14.6185 46.9967 16.8341 47.6559 18.1545 46.2113C18.6336 45.6871 19.0029 45.0044 19.0803 44.2623C19.129 43.7849 19.1596 43.2139 19.0749 42.7419C18.6282 40.2723 16.0721 37.5055 13.3666 37.7469C13.4224 37.9018 13.5179 37.9324 13.6746 38.0207C15.2778 38.9286 17.1439 41.0307 17.0953 42.7906L17.0971 42.796Z" fill="white"/>
<path d="M51.1202 41.4106C51.5741 43.3704 50.3871 46.7677 49.1712 45.5518C48.6272 45.0078 48.7677 44.0874 49.1171 43.3344C49.8359 41.7853 51.0337 40.6072 52.6063 39.7282C50.8428 39.4886 49.1622 40.6162 48.0886 42.0014C47.2113 43.1327 46.6223 44.4927 46.7682 45.9373C46.8799 47.0523 47.4131 48.0448 48.3336 48.6393C49.4576 49.3652 51.1274 48.8428 52.1596 47.926C53.4493 46.7785 54.1068 45.1736 54.3968 43.4695C54.7841 41.1962 54.5265 38.8761 53.4817 36.8316C52.1578 34.2395 49.5422 33.0633 46.6944 33.5983C43.8465 34.1333 41.3498 35.8031 39.689 38.161C38.7631 39.4742 39.934 41.2251 41.3715 42.0068C41.7317 42.2032 42.418 42.3347 42.717 42.0284C43.1205 41.6159 43.4682 41.2233 43.9041 40.8666L45.1957 39.8164C46.7304 38.5681 49.0469 38.1898 50.4339 39.5859C51.4967 39.2544 52.6099 39.1625 53.6853 39.5859L51.6408 40.9549C51.4697 41.0701 51.2823 41.2665 51.1202 41.4124V41.4106Z" fill="white"/>
<path d="M16.1852 43.495C16.1096 43.4986 16.0141 43.4482 15.9132 43.3509C15.825 43.2644 15.7421 43.1491 15.6628 43.0158C15.9276 42.6484 16.2699 42.2809 16.6139 41.9639C16.6986 42.2467 16.7436 42.5241 16.7346 42.7871C16.7238 43.1563 16.4662 43.4878 16.1834 43.4968L16.1852 43.495Z" fill="white"/>
<path d="M18.7216 44.2302C18.6586 44.8355 18.3632 45.4533 17.8894 45.9721C17.4661 46.4368 16.9221 46.671 16.2754 46.671C15.735 46.671 15.1514 46.4927 14.6218 46.1883V45.8964L14.7839 44.8085C14.8236 44.5383 14.9335 44.3059 15.0505 44.0663L15.1838 43.7943L15.2487 43.6844C15.3009 43.7493 15.3532 43.8123 15.409 43.8664C15.717 44.169 16.0142 44.2248 16.2088 44.2176C16.8753 44.196 17.4355 43.5637 17.4571 42.809C17.4697 42.3875 17.3778 41.9462 17.2157 41.5048L17.5382 41.3121L18.0804 41.0581C18.3812 41.5931 18.6063 42.1803 18.7216 42.8126C18.7847 43.1656 18.7865 43.6286 18.7234 44.2302H18.7216Z" fill="white"/>
<path d="M20.0436 40.0224C19.7428 39.999 19.4582 40.0404 19.197 40.1701C18.9268 40.1413 18.662 40.1791 18.444 40.3178C18.1234 39.8297 17.7433 39.3703 17.3146 38.9686C17.0732 38.7417 16.8246 38.5399 16.5688 38.3598L16.6283 38.1346L16.9165 37.4303L17.0444 37.1979C17.8388 37.0286 18.7484 37.1421 19.532 37.5636C19.822 37.7203 20.0958 37.8932 20.3624 38.0788C20.3678 38.1238 20.375 38.1706 20.3876 38.2157C20.2976 38.5399 20.3624 38.8335 20.4741 39.1289L20.611 39.4874L20.8272 39.9648C20.5822 40.0188 20.3156 40.0296 20.0454 40.0224H20.0436Z" fill="white"/>
<path d="M23.0142 40.5541L22.6323 40.365L22.1405 40.2137C21.9045 40.1416 21.6073 40.1092 21.4416 39.9399C21.0903 39.5796 20.9913 39.1545 20.8922 38.706C20.8724 38.6141 20.8616 38.5313 20.8544 38.4502C21.492 38.9528 22.0847 39.522 22.6971 40.1128L23.0196 40.4208C23.1511 40.5253 23.3096 40.5866 23.4771 40.6154L23.4519 40.6532C23.3384 40.691 23.1366 40.6154 23.0124 40.5541H23.0142Z" fill="white"/>
<path d="M23.4788 39.8641L23.1978 39.5939C22.4935 38.9148 21.7693 38.2195 20.9587 37.625C20.9786 37.526 21.002 37.4287 21.0434 37.3422L21.4145 36.5983C21.5784 36.2704 21.9206 36.0615 22.2341 35.8687L22.2233 35.5067C21.9351 35.3374 21.6793 35.5805 21.4559 35.7426C21.3622 35.8111 21.2397 35.8381 21.1749 35.9516L20.6201 36.9117C20.5462 37.0378 20.4958 37.1477 20.503 37.308C20.2995 37.1747 20.0923 37.0468 19.8743 36.9297C19.1502 36.5388 18.3468 36.3677 17.5795 36.4019C17.9235 35.9966 18.3684 35.5949 18.7107 35.431L19.9662 34.8366L20.4129 34.7537L21.3857 34.6258C21.5982 34.4925 21.5045 34.1665 21.5658 34.0008L21.7297 33.554L21.9855 32.9902C22.8231 33.4226 23.6139 33.972 24.3398 34.6312C24.5416 34.815 24.7235 34.9897 24.891 35.1608L24.8712 35.195L24.7055 35.5589L24.7091 36.9099L24.7811 37.1747L24.8748 37.6052C24.9234 37.8322 25.5629 38.3762 25.2855 38.5437C25.1486 38.6266 25.0712 38.7238 24.9865 38.8301L24.365 39.3885L23.9796 39.8893C23.7724 39.9271 23.5707 39.9217 23.4842 39.8623L23.4788 39.8641Z" fill="white"/>
<path d="M16.3781 39.1399L16.3817 39.1255C16.895 39.511 17.3706 39.9901 17.7615 40.5485C17.5489 40.6458 17.3508 40.7719 17.1418 40.9034L16.9959 40.9953C16.8212 40.6458 16.605 40.2999 16.3582 39.9685C16.3294 39.6965 16.3186 39.3813 16.3781 39.1399Z" fill="white"/>
<path d="M25.9935 38.0505C25.8854 38.0847 25.7863 38.0829 25.689 37.964C25.5431 37.7875 25.3936 37.5804 25.3108 37.3534L25.1667 36.9625C25.1054 36.5878 25.073 36.1789 25.1919 35.8277L25.2747 35.5791C25.6296 35.9898 25.9034 36.3861 26.1196 36.8094C26.2168 37.2309 26.1574 37.6542 25.9935 38.0505Z" fill="white"/>
<path d="M39.8617 38.5757C40.0905 38.8981 40.2436 39.2746 40.2941 39.6835C40.3193 39.8816 40.4508 39.9447 40.2887 40.6238C40.0311 40.2905 39.8455 39.9339 39.7663 39.588C39.6798 39.2188 39.714 38.8801 39.8617 38.5775V38.5757Z" fill="white"/>
<path d="M43.6771 40.586C43.3186 40.8778 43.0268 41.184 42.717 41.5064C42.6323 41.5947 42.5476 41.6848 42.4594 41.7748C42.3351 41.9027 41.8541 41.8577 41.5425 41.6884C41.2381 41.5226 40.9553 41.3137 40.7067 41.0795L40.7769 40.8544C40.9318 40.359 40.867 39.7646 40.7841 39.2494C40.7679 39.1701 40.7085 38.9846 40.6653 38.9125L40.2636 38.2298C40.2365 38.1848 40.2059 38.1452 40.1753 38.1037C41.3281 36.5636 42.8196 35.3801 44.5165 34.6416C44.5939 34.6884 44.6732 34.7335 44.7488 34.7839C45.9791 35.6053 46.9771 36.9905 47.2977 38.4262C46.4475 38.5991 45.6261 38.999 44.9668 39.534L43.6753 40.586H43.6771Z" fill="white"/>
<path d="M39.6423 37.6176L39.2803 37.36C39.1344 37.2574 38.9921 37.1925 38.8083 37.1439L38.385 37.0304C38.2841 37.0034 38.0518 36.9331 38.0211 36.8377L37.9473 36.2072C37.8014 36.0127 37.7221 35.8397 37.6267 35.6326C37.4988 35.3534 37.2916 35.1318 37.1205 34.894C36.9007 34.5914 36.6233 34.3374 36.3063 34.1321L35.8596 33.8439L35.4128 33.6457L35.0832 33.5304C34.9283 33.4764 34.6473 33.3971 34.4744 33.3989H33.2693C33.1648 33.4026 32.9576 33.4422 32.8694 33.4854C32.5722 33.6277 32.3344 33.6115 31.8642 33.8817L31.4896 34.0961L30.9924 34.5572C30.8069 34.7283 30.6465 34.9823 30.6447 35.2399C30.6447 35.2993 30.751 35.3984 30.8087 35.3984C30.8663 35.3984 30.9816 35.3372 31.0212 35.2921L31.3563 34.9211C31.8318 34.3951 32.5325 34.0582 33.2422 33.9375C34.6563 33.698 35.7659 34.1897 36.7548 35.1967C36.8683 35.3137 36.9223 35.3696 36.9782 35.5461L37.2106 35.9244L37.3637 36.2901L37.5078 36.6341C37.5204 37.1205 37.6014 37.5006 38.05 37.5438C38.5363 37.5906 38.9758 37.7707 39.3361 38.0445C39.0137 38.5489 38.9164 39.138 39.0605 39.7576C39.192 40.3214 39.5252 40.896 39.9882 41.3914L39.745 41.7174C39.5036 42.0435 39.201 42.2524 38.8155 42.4019C38.7345 42.4326 38.576 42.5533 38.4949 42.528C38.4156 42.5046 38.3112 42.4236 38.2283 42.3605L37.9005 42.1065C37.3799 41.7985 36.8701 41.5805 36.3009 41.386C36.1172 41.323 35.8704 41.3031 35.6686 41.2923L35.0274 41.2545L34.5536 40.3881L34.1429 39.8152L33.9826 39.5703C33.9087 39.4586 33.8295 39.3631 33.7304 39.2694L33.4278 38.9776C33.0891 38.6498 32.7649 38.3634 32.3452 38.1472C32.1272 38.0355 31.9111 37.8698 31.6715 37.7852L30.9059 37.515C30.1494 37.2484 29.3298 37.2952 28.53 37.279C28.3228 37.2754 28.1571 37.3258 27.9626 37.3637L27.3735 37.4753L27.0439 37.6032L26.844 37.6915C26.9034 37.3384 26.898 36.9728 26.8043 36.6035L26.7773 36.5296C26.4603 35.9028 26.0496 35.3678 25.6353 34.9157C25.9019 34.5644 26.2495 34.2726 26.6494 34.1231C26.8115 34.0618 27.2853 34.0006 27.2421 33.7196C27.233 33.6601 27.125 33.6007 27.0529 33.5773C26.7989 33.4926 26.6332 33.5899 26.4134 33.6565C26.145 33.7394 25.9523 33.8205 25.7884 34.0456C25.6785 34.1105 25.5074 34.2131 25.4245 34.3212L25.2642 34.5284C25.1111 34.3771 24.9598 34.2348 24.8193 34.1069C24.0591 33.4152 23.2305 32.8387 22.3533 32.3812C22.5532 32.0966 22.8072 31.8516 23.0828 31.6319L23.6376 31.1905C23.8844 30.9942 24.1006 30.8393 24.3978 30.7402L25.2588 30.452C26.5485 30.0773 27.8815 30.189 29.0542 30.8771C29.1388 30.9275 29.3802 30.9834 29.4613 30.9275C29.8414 30.6033 30.2665 30.3403 30.7096 30.1241L31.2194 29.8774L31.7399 29.654L32.2623 29.5225L32.6676 29.4306C32.9126 29.3748 33.1792 29.2847 33.4368 29.2685C33.8997 29.2397 34.3573 29.2217 34.8238 29.2631L35.4236 29.3172C35.6938 29.3406 35.9803 29.4 36.2378 29.4811L36.8035 29.6576C37.3204 29.8197 37.7942 30.0215 38.2589 30.3043L38.9416 30.7186L39.2659 30.9582C40.0837 31.6679 40.8222 32.4406 41.3716 33.3863C41.6796 33.9159 41.6886 33.6655 42.3749 33.8169L42.8271 33.9159C43.0162 33.9574 43.2324 33.9988 43.4125 34.0889C43.5098 34.1375 43.6088 34.1843 43.7061 34.233C42.13 35.0165 40.7393 36.1694 39.6351 37.6266L39.6423 37.6176Z" fill="white"/>
<path d="M14.6272 47.0078C14.6723 47.5644 14.8758 48.0742 15.0722 48.6146L15.2325 49.0541C15.2775 49.1766 15.3874 49.236 15.4522 49.3477L15.7567 49.8737L16.3277 50.4591C16.5474 50.6843 16.4304 51.0302 16.3277 51.2697L16.18 51.621L16.0629 52.0587C15.9584 52.4496 15.9332 52.9269 16.0251 53.3124L16.1872 53.9933C16.4033 54.9102 17.1094 55.9279 17.9795 56.3909L18.8946 56.879L19.2404 56.9709L20.0078 57.1222C20.4185 57.2033 21.1768 57.0105 21.5947 56.762C21.7442 56.7151 22.0901 56.7529 22.2054 56.8538L22.6899 57.2735L23.4249 57.8788L24.4336 58.4282C24.6137 58.5254 24.8713 58.5903 25.0659 58.6281L25.5306 58.7182C25.6783 58.747 25.9737 58.8245 26.1178 58.8101L27.0203 58.7254C27.1806 58.711 27.4292 58.6137 27.5787 58.5579L27.9498 58.421L28.3551 58.2787L28.7928 58.0733L29.7619 57.6392C30.2753 57.4086 31.0949 57.3042 31.5614 57.4645C31.8623 57.5689 32.2676 57.8301 32.3864 58.149C32.4909 58.43 32.4945 58.9217 32.4008 59.2027C32.2369 59.6909 31.7578 60.0043 31.2822 60.1755C31.003 60.2763 30.6265 60.3178 30.3023 60.3178L27.6237 60.3124L26.9843 60.2079L26.6492 60.1106L26.2493 60.0223L25.5811 59.8458L24.9866 59.6675L24.3345 59.6207C24.1166 59.6044 23.922 59.5792 23.7131 59.6188L23.043 59.7467C22.6503 59.8224 21.674 59.8242 21.357 59.7071L20.9913 59.572C20.6707 59.4531 20.2347 59.491 20.3518 59.5666L20.4995 59.6603L21.1156 60.0422C21.3588 60.1917 21.5893 60.3556 21.8883 60.3736L22.1063 60.4943L23.0088 60.8888L23.8428 61.3571L24.3021 61.6489L25.21 62.2812L25.9233 62.7712L26.5772 63.1729C26.86 63.3476 27.1932 63.5151 27.5139 63.6214L28.0092 63.7835L28.5154 63.9276C28.9171 64.0429 30.2807 64.0159 30.7923 63.8826L31.5146 63.6916C31.8983 63.5908 32.2676 63.407 32.5053 63.1062L32.5738 63.1747C32.5738 63.1747 32.6224 63.1314 32.644 63.1134C32.7017 63.0648 32.8728 63.0936 32.925 63.1566C33.0565 63.3097 33.1916 63.3548 33.3573 63.4394C33.941 63.7367 34.267 63.8015 34.8849 63.8862C35.0506 63.9096 35.1767 63.933 35.3586 63.9042L35.9296 63.8105L36.5403 63.6538L36.996 63.4899C37.1599 63.4304 37.3275 63.317 37.4716 63.2161L37.7346 63.0323L38.3632 62.4487C38.5109 62.3118 38.646 62.0542 38.8892 62.047C39.3557 62.0344 39.8295 62.0921 40.278 61.9714C40.4167 61.9335 40.5374 61.8795 40.6959 61.8669C41.0057 61.8417 42.0109 61.2761 42.3495 60.9554L43.1169 60.2277C43.5474 59.8188 43.7023 59.2153 43.8969 58.6822C43.9761 58.4624 44.1653 58.3976 44.3274 58.2913L44.9596 57.8824L45.4262 57.5437L45.6153 57.3888L46.2908 56.7043C46.77 56.218 47.2617 55.3677 47.4887 54.7103L47.6184 54.3356C47.7751 53.8834 47.894 53.4962 47.894 53.0134V51.8173C47.894 51.4841 47.858 51.1995 47.7967 50.8662C47.8976 50.6681 48.0885 50.4555 48.2597 50.2934L48.3749 50.1061C48.5677 49.8611 48.746 49.5711 48.9045 49.2577C48.6163 49.191 48.3551 49.0847 48.1354 48.9424C47.568 48.5768 47.1248 48.0706 46.824 47.4635C46.806 47.6239 46.7772 47.7842 46.6709 47.8995C46.6205 47.9553 46.4133 47.9319 46.3701 47.8724C46.1737 47.6095 46.3971 47.4924 46.3971 47.1267C46.3971 46.9628 46.4349 46.8601 46.471 46.707C46.4836 46.6512 46.4926 46.5935 46.498 46.5341C46.4565 46.3521 46.4259 46.1666 46.4061 45.9739C46.3791 45.7145 46.3755 45.4533 46.3935 45.1903C46.3305 44.7634 46.2098 44.3761 45.9774 43.9978L45.5253 43.2575C45.3307 42.9386 45.0119 42.8288 45.1092 42.6018C45.147 42.5117 45.3974 42.3964 45.4802 42.4469C45.5955 42.5171 45.7378 42.6918 45.8153 42.8125L46.3196 43.6051C46.4277 43.7762 46.5124 43.9474 46.5754 44.1311C46.7916 43.3565 47.1897 42.582 47.7607 41.8362L47.4725 41.5264C47.4202 41.4688 47.3932 41.3066 47.4004 41.2436L47.4761 40.4906C47.4869 40.3826 47.5824 40.1718 47.5662 40.0457L47.4707 39.2856L47.4383 39.1216C46.7808 39.2459 46.0873 39.554 45.4208 40.0961L44.1292 41.1481C43.8068 41.4111 43.5294 41.7011 43.234 42.0092C43.1475 42.0992 43.0611 42.1893 42.971 42.283C42.5261 42.7369 41.665 42.582 41.1949 42.3262C40.9049 42.1677 40.6329 41.9785 40.3843 41.766C40.2528 41.9641 40.0997 42.1605 39.9736 42.2884C39.5701 42.6973 39.136 42.7981 38.8712 43.1044C39.0675 43.2575 39.154 43.389 39.2188 43.5655L39.4206 43.8105L39.5863 44.1707L39.7304 44.5976C39.8007 44.8066 39.779 45.0894 39.8151 45.3272C39.8295 45.419 39.9304 45.5974 39.925 45.7001L39.8799 46.5431L39.7845 46.8619C39.7376 47.0168 39.7556 47.2096 39.7214 47.3284L39.5917 47.6761L39.453 48.0147L39.1234 48.6128C39.0693 48.7101 38.9396 48.8758 38.8514 48.9622L38.1705 49.6359L37.767 49.9746L37.4139 50.1619C37.2644 50.1853 37.1293 50.2358 37.0464 50.3258C36.7258 50.3475 36.6592 50.5726 36.5925 50.8248C36.5493 50.9887 36.488 51.1238 36.4952 51.3148C36.5007 51.4697 36.4358 51.594 36.3728 51.7219L36.0737 52.3289C35.9116 52.6585 35.6612 52.972 35.4 53.208L34.7498 53.797C34.476 54.0456 34.1337 54.2293 33.8077 54.3806L33.2096 54.5499C32.9268 54.5427 32.6909 54.5734 32.4477 54.6724L31.6173 54.6328L31.0517 54.5301C30.9184 54.5049 30.6824 54.4383 30.5473 54.3716L29.5494 53.8816C29.371 53.7934 29.117 53.5646 28.9747 53.4097L28.5388 52.9251C28.465 52.8423 28.3317 52.7252 28.2434 52.7288C28.1461 52.7324 27.984 52.8351 27.8921 52.8585L27.4382 52.9774C27.1302 53.0566 26.7177 53.026 26.388 52.9882C26.1719 52.8207 25.9071 52.9702 25.482 52.7504L24.756 52.3739C24.3742 52.1037 24.0715 51.7507 23.8266 51.349L23.5528 50.7816L23.4123 50.3709C23.2736 49.9656 23.2898 48.9839 23.4429 48.5407L23.5834 48.1336C23.6536 47.9301 23.7221 47.7698 23.8608 47.6022L24.1814 47.2168C24.412 46.9394 24.5831 46.7088 24.5255 46.2981C24.5489 46.1324 24.6498 45.8297 24.72 45.6658L24.8641 45.3254C24.9002 45.2407 24.9668 45.084 25.0226 45.0192L25.2334 44.7742C25.3667 44.6193 25.5558 44.3923 25.7342 44.2842L26.4385 43.9077L26.8456 43.7997C27.2725 43.6862 27.7534 43.7222 28.1894 43.7474C28.3443 43.969 28.474 43.7997 28.8378 43.996L29.1026 44.1383C29.3422 44.268 29.5169 44.4463 29.6935 44.6463L29.9691 44.9561C30.169 44.9561 30.3347 44.8985 30.5275 44.8534C30.7743 44.7976 31.1435 44.785 31.3651 44.8588C31.9559 45.057 32.5215 45.32 32.8584 45.8135L33.1646 46.2621L33.3069 46.6169L33.4492 46.9412L33.4438 48.0039L33.3375 48.303L33.2349 48.5894C33.0583 49.0829 32.4351 49.6882 32.2856 49.5441C32.1901 49.4522 32.1036 49.1586 32.1775 49.0469C32.4153 48.9568 32.5396 48.8271 32.6152 48.5876L32.7899 48.2435C32.8638 48.0958 32.9016 47.9625 32.9322 47.7878L33.0277 47.595C33.0547 47.541 32.9394 47.4167 32.9304 47.3537C32.9088 47.1717 32.8998 46.9087 32.8296 46.743C32.6026 46.2062 32.2946 45.8586 31.7704 45.6496L31.4822 45.5001C31.221 45.365 30.5527 45.3488 30.2753 45.4479C30.106 45.5073 29.8286 45.6856 29.6755 45.4641C29.4989 45.2119 29.308 44.9705 29.0414 44.7886C28.755 44.594 28.4722 44.3779 28.1083 44.3365C27.8255 44.3058 27.5157 44.1041 27.0996 44.2428L26.7105 44.3725C26.4331 44.4643 26.1305 44.6643 25.9071 44.8444C25.5973 45.0966 25.4027 45.4136 25.2712 45.7685L25.028 46.4242C24.9506 46.6313 25.1577 47.0114 24.8551 47.296C24.5435 47.5896 24.2589 47.8905 24.1058 48.2958L23.9617 48.6776L23.8392 49.1802C23.7671 49.4774 23.8806 50.2646 24.0355 50.5492C24.1328 50.7275 24.1814 51.0266 24.3075 51.1689L24.6912 51.6048L25.0515 51.9182L25.5432 52.2587L25.9125 52.3271C26.0314 52.4424 26.1971 52.4838 26.3628 52.4496C26.6258 52.673 26.9104 52.5649 27.1788 52.4874C27.4004 52.4226 27.631 52.3992 27.8543 52.2947C28.0957 52.1812 28.3533 52.0263 28.6253 52.1704L28.9297 52.5451L29.2359 52.8909L29.6016 53.2314C29.7457 53.3647 29.8718 53.4872 30.0627 53.5664L30.9778 53.9483L31.4137 54.069C31.738 54.159 32.1234 54.1446 32.4567 54.0798L32.8872 53.9969L33.3069 53.9231C33.669 53.779 34.004 53.6331 34.3229 53.4295C34.4507 53.3485 34.584 53.1809 34.7498 53.1683L34.8488 53.0026C34.9893 52.8153 35.2361 52.6333 35.3532 52.4388L35.6829 51.8966C35.7333 51.8137 35.8252 51.6372 35.8558 51.5489L36.0035 51.1202L36.0665 50.6321L36.1872 50.2412C36.2539 50.1475 36.4394 49.9818 36.5403 49.9223C37.1852 49.7945 37.6643 49.4396 38.111 48.9875C38.3974 48.6975 38.6442 48.4218 38.828 48.0562C38.9324 47.8472 39.0891 47.6095 39.1504 47.3933L39.2909 46.8889L39.4332 46.3683C39.4764 46.208 39.4728 45.8586 39.4332 45.6983L39.3269 45.2623L39.2206 44.8264L39.0819 44.4175L38.9126 43.9798C38.8694 43.8699 38.7793 43.7654 38.673 43.7006C38.5217 43.3601 38.2804 43.0629 37.9543 42.8378L37.1239 42.2649C36.6988 41.9713 35.5982 41.7948 34.9515 41.8344C34.8723 41.8398 34.7029 41.8236 34.6507 41.775C34.5913 41.7209 34.5372 41.5948 34.4994 41.4814L34.3769 41.1139L33.7464 40.098C33.6456 39.934 33.4762 39.8007 33.3501 39.6494C32.8494 39.0514 32.2045 38.6389 31.5074 38.2912C31.1651 38.1201 30.8373 38.0174 30.4626 37.9382L29.8178 37.8013H28.4686L27.8633 37.9346C27.4941 38.0156 27.0635 38.1183 26.7375 38.2984L26.6546 38.3435C26.2872 39.2387 25.5108 39.9971 24.6588 40.4294C24.5345 40.4924 24.3688 40.5537 24.1868 40.5951L23.7617 41.3661C23.6176 41.3553 23.369 41.294 23.2033 41.2166L22.4792 40.8779L21.6794 40.6636C21.3443 40.5735 21.0399 40.505 20.6833 40.5159L19.9501 40.5393L19.0297 40.6816L18.709 40.7807C19.0585 41.4039 19.3071 42.0596 19.4223 42.6955C19.498 43.1152 19.5016 43.6466 19.4313 44.3166C19.3521 45.075 18.9918 45.8388 18.4136 46.471C17.8552 47.0817 17.1131 47.4041 16.2664 47.4041C15.7224 47.4041 15.155 47.2672 14.6218 47.0186L14.6272 47.0078ZM39.8439 55.3407C40.3447 55.2939 40.9013 55.0723 41.2129 54.7283L41.6254 54.2725C41.7641 54.1194 41.8758 53.8366 41.9586 53.6205C42.2379 52.8963 41.7515 52.1704 42.1964 51.857C43.0268 51.2715 43.5564 50.2646 43.8879 49.3045C43.9671 49.0739 44.0122 48.8271 44.014 48.5678L44.0194 47.7662C44.0284 46.4638 43.5168 45.5397 42.7332 44.549C42.6954 44.5022 42.6522 44.4391 42.6359 44.4031C42.6215 44.3743 42.8503 44.2086 42.9692 44.2158C43.0088 44.2194 43.0719 44.2788 43.1061 44.3148L43.3583 44.567C43.5438 44.7526 43.6213 44.9669 43.7402 45.1885C43.9257 45.5343 44.1076 45.8442 44.2139 46.2134L44.3004 46.5161C44.5273 47.3104 44.5093 48.058 44.4174 48.8686C44.3418 49.5333 44.1058 50.1187 43.7816 50.6969C43.5762 51.0626 43.3727 51.3778 43.0574 51.675L42.463 52.2352V52.6099C42.463 52.9197 42.5387 53.271 42.4432 53.5502L42.2973 53.9789L42.1496 54.3266C41.9983 54.6832 41.62 55.0831 41.3102 55.2867C40.849 55.5875 39.9628 55.9334 39.7971 55.6019C39.7682 55.5461 39.7971 55.3803 39.8457 55.3389L39.8439 55.3407ZM34.8038 60.5808C34.8182 60.3646 34.9767 60.2367 35.1533 60.2565C35.4919 60.2943 35.7405 60.1737 36.0251 60.0241C36.3457 59.8566 36.6123 59.6585 36.8141 59.3324C36.9222 59.1577 37.0897 58.9686 37.1581 58.7344C37.277 58.3309 37.313 57.7941 37.1743 57.3726C37.0645 57.0394 36.8285 56.7566 36.6159 56.4846C36.4016 56.209 36.0485 56.0865 35.7207 55.9928L35.1569 55.8325L34.9875 55.4812C35.346 55.3209 35.7279 55.4398 36.0719 55.5911C36.8249 55.9225 37.3671 56.4918 37.6229 57.2969C37.7328 57.7797 37.7255 58.3273 37.6481 58.8281L37.4914 59.1541C37.4391 59.2604 37.3959 59.4279 37.3653 59.5648L36.6195 60.3051L36.2196 60.4511L35.6342 60.6528L35.1371 60.7969L34.8074 60.5808H34.8038ZM18.972 48.1552C18.981 48.049 18.9486 47.9067 18.9162 47.8004C18.9432 47.6473 18.9792 47.3735 19.0297 47.242L19.172 46.8709L19.3305 46.498C19.4944 46.1126 19.833 45.8838 20.1177 45.5758C20.5572 45.0966 20.9427 45.0444 20.9679 44.9759C20.9679 44.9777 20.9967 45.0101 21.0399 45.0552L21.3209 44.8174L22.0901 44.7616C22.3027 44.7454 22.526 44.8138 22.553 45.0624L22.1892 45.1272L21.5281 45.2713C21.2993 45.3218 20.9715 45.4965 20.7805 45.6316L20.4761 45.8478C20.114 46.1054 19.8475 46.4638 19.6763 46.8907C19.5556 47.1933 19.3791 47.5644 19.3647 47.9013C19.3449 48.3246 19.5592 49.3549 19.7826 49.6576L20.1951 50.2142C20.4581 50.569 20.9607 50.6573 20.9589 51.1562L20.9553 52.0353C21.0309 52.1488 21.0705 52.2731 21.1228 52.4208L21.2543 52.7828C21.4776 53.3989 22.0379 53.8096 22.6503 54.0258L23.3348 54.2671L23.3132 54.5445C22.4197 54.7427 21.094 53.7754 20.8094 52.9738L20.6833 52.6171L20.5266 52.1182C20.4293 51.8119 20.5103 51.4048 20.4707 51.0806C20.1645 50.85 19.9195 50.6231 19.707 50.3312L19.3701 49.8665C19.1089 49.508 18.9216 49.1352 19.0008 48.6686C18.8585 48.5227 18.8387 48.3318 18.9756 48.1552H18.972Z" fill="white"/>
<path d="M49.4304 44.711L49.5673 45.3217L49.5781 45.4117C49.5331 45.3883 49.4845 45.3523 49.4268 45.2946C49.1044 44.9722 49.1368 44.4642 49.2395 44.0571L49.2683 44.1166C49.3566 44.2985 49.3854 44.5075 49.4304 44.7092V44.711Z" fill="white"/>
<path d="M47.1267 45.9005C46.9826 44.4774 47.6346 43.2237 48.2543 42.3789C48.3714 42.5356 48.4596 42.7049 48.5659 42.8599L48.7875 43.1859C48.2939 44.2541 48.3426 45.234 48.9154 45.8068C49.1423 46.0338 49.3963 46.1527 49.6539 46.1653L49.6755 46.6516C49.6791 46.7471 49.6233 46.8534 49.5729 46.9579C49.5188 47.0677 49.5711 47.3361 49.5404 47.4748C49.4648 47.8315 49.3477 48.2152 49.2018 48.5899C48.9622 48.5484 48.7334 48.4692 48.5263 48.3359C47.7283 47.8207 47.2311 46.9561 47.1231 45.9005H47.1267Z" fill="white"/>
<path d="M48.9008 21.2036C48.9153 20.674 49.2953 20.1607 49.7997 20.1444C50.6769 20.1156 51.3038 22.1565 51.2858 23.3004L51.239 24.5631C52.0081 25.2494 52.8187 25.7357 53.7536 26.3608C52.7088 26.7859 51.592 26.6742 50.5509 26.3608C49.4935 27.4128 47.6507 27.4848 46.2925 26.7517C44.9307 26.0167 43.8716 24.9378 42.7493 23.8606C42.4521 23.6228 41.8271 23.7327 41.492 23.9038C40.2329 24.5433 39.1881 25.9411 39.5376 27.3173C39.9987 28.2306 40.6634 28.9511 41.4182 29.6356C43.0772 31.1415 45.0874 32.1322 47.3265 32.4204C50.3689 32.8113 52.9232 31.0586 53.9896 28.1981C54.8974 25.7592 54.8866 22.6447 53.8563 20.2723C53.5392 19.5428 53.1249 18.9123 52.5773 18.3143C51.3795 17.0029 49.1638 16.3437 47.8435 17.7883C47.3643 18.3125 46.995 18.9952 46.9176 19.7373C46.869 20.2147 46.8383 20.7857 46.923 21.2577C47.3697 23.7273 49.9258 26.4941 52.6314 26.2527C52.5755 26.0978 52.4801 26.0672 52.3233 25.9789C50.7202 25.071 48.854 22.9689 48.9026 21.209L48.9008 21.2036Z" fill="white"/>
<path d="M14.8775 22.5888C14.4236 20.629 15.6107 17.2317 16.8266 18.4476C17.3706 18.9916 17.2301 19.912 16.8806 20.665C16.1619 22.2141 14.964 23.3922 13.3915 24.2712C15.1549 24.5108 16.8356 23.3832 17.9092 21.998C18.7864 20.8667 19.3754 19.5067 19.2295 18.0621C19.1178 16.9471 18.5847 15.9545 17.6642 15.3601C16.5402 14.6342 14.8703 15.1566 13.8382 16.0734C12.5484 17.2209 11.891 18.8258 11.6009 20.5299C11.2137 22.8032 11.4712 25.1233 12.516 27.1678C13.84 29.7599 16.4555 30.9361 19.3034 30.4011C22.1513 29.8661 24.6479 28.1963 26.3087 25.8384C27.2346 24.5252 26.0637 22.7743 24.6263 21.9926C24.266 21.7962 23.5797 21.6647 23.2807 21.9709C22.8772 22.3835 22.5295 22.7761 22.0936 23.1328L20.8021 24.183C19.2674 25.4313 16.9509 25.8096 15.5638 24.4135C14.5011 24.745 13.3879 24.8368 12.3125 24.4135L14.357 23.0445C14.5281 22.9292 14.7154 22.7329 14.8775 22.587V22.5888Z" fill="white"/>
<path d="M49.8103 20.5047C49.886 20.5011 49.9814 20.5516 50.0823 20.6488C50.1706 20.7353 50.2534 20.8506 50.3327 20.9839C50.0679 21.3514 49.7256 21.7188 49.3816 22.0359C49.2969 21.753 49.2519 21.4756 49.2609 21.2126C49.2717 20.8434 49.5293 20.5119 49.8121 20.5029L49.8103 20.5047Z" fill="white"/>
<path d="M47.2741 19.7699C47.3372 19.1646 47.6326 18.5468 48.1064 18.028C48.5297 17.5633 49.0737 17.3291 49.7203 17.3291C50.2607 17.3291 50.8444 17.5074 51.3739 17.8119V18.1037L51.2118 19.1917C51.1722 19.4619 51.0623 19.6942 50.9452 19.9338L50.8119 20.2058L50.7471 20.3157C50.6949 20.2508 50.6426 20.1878 50.5868 20.1338C50.2787 19.8311 49.9815 19.7753 49.787 19.7825C49.1205 19.8041 48.5603 20.4364 48.5387 21.1911C48.5261 21.6126 48.6179 22.054 48.78 22.4953L48.4576 22.688L47.9154 22.942C47.6146 22.407 47.3894 21.8198 47.2741 21.1875C47.2111 20.8345 47.2093 20.3715 47.2723 19.7699H47.2741Z" fill="white"/>
<path d="M45.9539 23.978C46.2547 24.0015 46.5393 23.96 46.8005 23.8303C47.0707 23.8591 47.3355 23.8213 47.5534 23.6826C47.8741 24.1708 48.2541 24.6301 48.6829 25.0318C48.9242 25.2588 49.1728 25.4605 49.4286 25.6407L49.3692 25.8658L49.081 26.5701L48.9531 26.8025C48.1587 26.9718 47.249 26.8583 46.4654 26.4368C46.1754 26.2801 45.9016 26.1072 45.635 25.9217C45.6296 25.8766 45.6224 25.8298 45.6098 25.7848C45.6999 25.4605 45.635 25.1669 45.5233 24.8715L45.3864 24.513L45.1703 24.0357C45.4153 23.9816 45.6819 23.9708 45.9521 23.978H45.9539Z" fill="white"/>
<path d="M42.9817 23.4466L43.3636 23.6358L43.8554 23.7871C44.0914 23.8591 44.3886 23.8916 44.5543 24.0609C44.9055 24.4211 45.0046 24.8463 45.1037 25.2948C45.1235 25.3866 45.1343 25.4695 45.1415 25.5506C44.5039 25.048 43.9112 24.4788 43.2988 23.888L42.9763 23.5799C42.8448 23.4754 42.6863 23.4142 42.5188 23.3854L42.544 23.3476C42.6575 23.3097 42.8592 23.3854 42.9835 23.4466H42.9817Z" fill="white"/>
<path d="M42.5168 24.1366L42.7978 24.4068C43.5022 25.0859 44.2263 25.7812 45.0369 26.3756C45.0171 26.4747 44.9937 26.572 44.9522 26.6585L44.5811 27.4024C44.4172 27.7302 44.075 27.9392 43.7615 28.1319L43.7724 28.494C44.0606 28.6633 44.3164 28.4201 44.5397 28.258C44.6334 28.1896 44.7559 28.1626 44.8207 28.0491L45.3755 27.089C45.4494 26.9629 45.4998 26.853 45.4926 26.6927C45.6962 26.826 45.9033 26.9539 46.1213 27.071C46.8454 27.4618 47.6488 27.633 48.4162 27.5987C48.0721 28.004 47.6272 28.4057 47.2849 28.5697L46.0294 29.1641L45.5827 29.2469L44.61 29.3748C44.3974 29.5081 44.4911 29.8342 44.4298 29.9999L44.2659 30.4466L44.0101 31.0104C43.1725 30.5781 42.3817 30.0287 41.6558 29.3694C41.4541 29.1857 41.2721 29.011 41.1046 28.8399L41.1244 28.8056L41.2901 28.4418L41.2865 27.0908L41.2145 26.826L41.1208 26.3955C41.0722 26.1685 40.4327 25.6245 40.7101 25.457C40.847 25.3741 40.9245 25.2768 41.0091 25.1706L41.6306 24.6122L42.0161 24.1114C42.2232 24.0736 42.425 24.079 42.5114 24.1384L42.5168 24.1366Z" fill="white"/>
<path d="M49.6196 24.8607L49.616 24.8751C49.1026 24.4897 48.6271 24.0105 48.2362 23.4521C48.4488 23.3548 48.6469 23.2287 48.8559 23.0972L49.0018 23.0054C49.1765 23.3548 49.3926 23.7007 49.6394 24.0321C49.6683 24.3041 49.6791 24.6194 49.6196 24.8607Z" fill="white"/>
<path d="M40.0041 25.9504C40.1122 25.9162 40.2113 25.918 40.3085 26.0368C40.4545 26.2134 40.604 26.4205 40.6868 26.6475L40.8309 27.0384C40.8922 27.4131 40.9246 27.822 40.8057 28.1732L40.7229 28.4218C40.368 28.0111 40.0942 27.6148 39.878 27.1915C39.7808 26.77 39.8402 26.3467 40.0041 25.9504Z" fill="white"/>
<path d="M26.1358 25.4246C25.907 25.1021 25.7539 24.7257 25.7035 24.3168C25.6783 24.1186 25.5468 24.0556 25.7089 23.3765C25.9665 23.7097 26.152 24.0664 26.2313 24.4122C26.3177 24.7815 26.2835 25.1201 26.1358 25.4228V25.4246Z" fill="white"/>
<path d="M22.3206 23.4139C22.6791 23.122 22.9709 22.8158 23.2807 22.4934C23.3654 22.4051 23.45 22.315 23.5383 22.225C23.6626 22.0971 24.1435 22.1421 24.4552 22.3114C24.7596 22.4772 25.0424 22.6861 25.291 22.9203L25.2207 23.1455C25.0658 23.6408 25.1307 24.2353 25.2135 24.7504C25.2297 24.8297 25.2892 25.0152 25.3324 25.0873L25.7341 25.77C25.7611 25.815 25.7917 25.8546 25.8224 25.8961C24.6695 27.4362 23.178 28.6197 21.4812 29.3582C21.4037 29.3114 21.3245 29.2663 21.2488 29.2159C20.0185 28.3945 19.0206 27.0093 18.7 25.5736C19.5502 25.4007 20.3716 25.0008 21.0309 24.4658L22.3224 23.4139H22.3206Z" fill="white"/>
<path d="M26.3556 26.3826L26.7177 26.6402C26.8636 26.7429 27.0059 26.8077 27.1897 26.8563L27.613 26.9698C27.7138 26.9968 27.9462 27.0671 27.9768 27.1626L28.0507 27.793C28.1966 27.9876 28.2759 28.1605 28.3713 28.3676C28.4992 28.6468 28.7064 28.8684 28.8775 29.1062C29.0973 29.4088 29.3747 29.6628 29.6917 29.8681L30.1384 30.1564L30.5851 30.3545L30.9148 30.4698C31.0697 30.5238 31.3507 30.6031 31.5236 30.6013H32.7287C32.8332 30.5977 33.0403 30.558 33.1286 30.5148C33.4258 30.3725 33.6636 30.3887 34.1337 30.1185L34.5084 29.9042L35.0056 29.443C35.1911 29.2719 35.3514 29.0179 35.3532 28.7603C35.3532 28.7009 35.247 28.6018 35.1893 28.6018C35.1317 28.6018 35.0164 28.6631 34.9768 28.7081L34.6417 29.0792C34.1662 29.6051 33.4655 29.942 32.7557 30.0627C31.3417 30.3023 30.2321 29.8105 29.2432 28.8036C29.1297 28.6865 29.0756 28.6306 29.0198 28.4541L28.7874 28.0758L28.6343 27.7102L28.4902 27.3661C28.4776 26.8798 28.3965 26.4997 27.948 26.4564C27.4617 26.4096 27.0221 26.2295 26.6619 25.9557C26.9843 25.4513 27.0816 24.8623 26.9375 24.2426C26.806 23.6788 26.4727 23.1042 26.0098 22.6088L26.253 22.2828C26.4943 21.9567 26.797 21.7478 27.1825 21.5983C27.2635 21.5677 27.422 21.447 27.5031 21.4722C27.5823 21.4956 27.6868 21.5767 27.7697 21.6397L28.0975 21.8937C28.6181 22.2017 29.1279 22.4197 29.6971 22.6142C29.8808 22.6773 30.1276 22.6971 30.3294 22.7079L30.9706 22.7457L31.4444 23.6122L31.8551 24.185L32.0154 24.43C32.0892 24.5416 32.1685 24.6371 32.2676 24.7308L32.5702 25.0226C32.9088 25.3504 33.2331 25.6368 33.6528 25.853C33.8708 25.9647 34.0869 26.1304 34.3265 26.2151L35.092 26.4853C35.8486 26.7519 36.6682 26.705 37.468 26.7212C37.6751 26.7248 37.8409 26.6744 38.0354 26.6366L38.6244 26.5249L38.9541 26.397L39.154 26.3087C39.0946 26.6618 39.1 27.0275 39.1936 27.3967L39.2207 27.4706C39.5377 28.0974 39.9484 28.6324 40.3627 29.0846C40.0961 29.4358 39.7485 29.7276 39.3486 29.8771C39.1864 29.9384 38.7127 29.9996 38.7559 30.2806C38.7649 30.3401 38.873 30.3995 38.9451 30.4229C39.1991 30.5076 39.3648 30.4103 39.5845 30.3437C39.8529 30.2608 40.0457 30.1798 40.2096 29.9546C40.3195 29.8898 40.4906 29.7871 40.5735 29.679L40.7338 29.4718C40.8869 29.6232 41.0382 29.7655 41.1787 29.8934C41.9389 30.5851 42.7675 31.1615 43.6447 31.619C43.4448 31.9036 43.1908 32.1486 42.9152 32.3684L42.3604 32.8097C42.1136 33.006 41.8974 33.161 41.6002 33.26L40.7392 33.5482C39.4494 33.9229 38.1165 33.8112 36.9438 33.1231C36.8591 33.0727 36.6178 33.0168 36.5367 33.0727C36.1566 33.3969 35.7315 33.6599 35.2884 33.8761L34.7786 34.1229L34.258 34.3462L33.7357 34.4777L33.3304 34.5696C33.0854 34.6254 32.8188 34.7155 32.5612 34.7317C32.0983 34.7605 31.6407 34.7785 31.1742 34.7371L30.5743 34.6831C30.3041 34.6596 30.0177 34.6002 29.7601 34.5191L29.1945 34.3426C28.6775 34.1805 28.2038 33.9787 27.7391 33.6959L27.0564 33.2816L26.7321 33.0421C25.9143 32.3323 25.1758 31.5596 24.6264 30.6139C24.3184 30.0843 24.3093 30.3347 23.623 30.1834L23.1709 30.0843C22.9818 30.0429 22.7656 30.0014 22.5855 29.9114C22.4882 29.8627 22.3891 29.8159 22.2919 29.7673C23.868 28.9837 25.2586 27.8308 26.3629 26.3736L26.3556 26.3826Z" fill="white"/>
<path d="M51.3687 16.9924C51.3237 16.4358 51.1202 15.9261 50.9238 15.3857L50.7635 14.9461C50.7185 14.8237 50.6086 14.7642 50.5437 14.6525L50.2393 14.1265L49.6683 13.5411C49.4485 13.3159 49.5656 12.9701 49.6683 12.7305L49.816 12.3793L49.9331 11.9415C50.0376 11.5507 50.0628 11.0733 49.9709 10.6878L49.8088 10.0069C49.5926 9.09005 48.8865 8.07231 48.0165 7.60937L47.1014 7.12121L46.7556 7.02934L45.9882 6.87803C45.5775 6.79697 44.8191 6.98971 44.4012 7.23829C44.2517 7.28513 43.9059 7.2473 43.7906 7.14643L43.306 6.72672L42.5711 6.12148L41.5624 5.57207C41.3822 5.4748 41.1246 5.40996 40.9301 5.37213L40.4654 5.28206C40.3176 5.25324 40.0222 5.17578 39.8781 5.19019L38.9757 5.27486C38.8153 5.28927 38.5668 5.38654 38.4173 5.44238L38.0462 5.57928L37.6409 5.72158L37.2032 5.92693L36.2341 6.36105C35.7207 6.59162 34.9011 6.6961 34.4345 6.53578C34.1337 6.4313 33.7284 6.17011 33.6095 5.85128C33.5051 5.57027 33.5014 5.07851 33.5951 4.79751C33.759 4.30935 34.2382 3.99592 34.7137 3.82479C34.9929 3.72392 35.3694 3.68249 35.6937 3.68249L38.3722 3.68789L39.0117 3.79237L39.3467 3.88964L39.7466 3.97791L40.4149 4.15444L41.0093 4.33277L41.6614 4.3796C41.8794 4.39581 42.0739 4.42103 42.2829 4.3814L42.953 4.25351C43.3457 4.17785 44.322 4.17605 44.639 4.29314L45.0047 4.42824C45.3253 4.54712 45.7612 4.5093 45.6441 4.43364L45.4964 4.33997L44.8804 3.95809C44.6372 3.80858 44.4066 3.64466 44.1076 3.62665L43.8897 3.50596L42.9872 3.11147L42.1532 2.64313L41.6939 2.35132L40.786 1.71905L40.0727 1.22909L39.4188 0.827399C39.136 0.652671 38.8027 0.485148 38.4821 0.378871L37.9867 0.216752L37.4806 0.0726462C37.0789 -0.0426382 35.7153 -0.0156184 35.2037 0.117679L34.4814 0.308619C34.0977 0.409493 33.7284 0.593227 33.4906 0.894048L33.4222 0.825598C33.4222 0.825598 33.3736 0.868829 33.3519 0.886843C33.2943 0.935478 33.1232 0.906657 33.0709 0.843611C32.9394 0.690499 32.8043 0.645466 32.6386 0.560804C32.055 0.263586 31.729 0.198739 31.1111 0.114077C30.9454 0.0906594 30.8193 0.0672423 30.6374 0.0960634L30.0663 0.189732L29.4557 0.346447L29 0.510367C28.836 0.56981 28.6685 0.683293 28.5244 0.784167L28.2614 0.967902L27.6328 1.55153C27.485 1.68843 27.3499 1.94602 27.1068 1.95322C26.6402 1.96583 26.1665 1.90819 25.7179 2.02888C25.5792 2.06671 25.4586 2.12075 25.3 2.13336C24.9902 2.15857 23.9851 2.72419 23.6464 3.04482L22.8791 3.77256C22.4486 4.18146 22.2936 4.7849 22.0991 5.31809C22.0198 5.53785 21.8307 5.6027 21.6686 5.70897L21.0363 6.11787L20.5698 6.45652L20.3806 6.61144L19.7051 7.29594C19.226 7.78229 18.7342 8.63252 18.5073 9.29L18.3776 9.66467C18.2209 10.1168 18.102 10.5041 18.102 10.9868V12.1829C18.102 12.5162 18.138 12.8008 18.1992 13.134C18.0984 13.3322 17.9074 13.5447 17.7363 13.7068L17.621 13.8942C17.4283 14.1391 17.2499 14.4292 17.0914 14.7426C17.3796 14.8092 17.6408 14.9155 17.8606 15.0578C18.428 15.4235 18.8711 15.9297 19.172 16.5367C19.19 16.3764 19.2188 16.2161 19.3251 16.1008C19.3755 16.0449 19.5827 16.0684 19.6259 16.1278C19.8222 16.3908 19.5989 16.5079 19.5989 16.8736C19.5989 17.0375 19.561 17.1401 19.525 17.2933C19.5124 17.3491 19.5034 17.4067 19.498 17.4662C19.5394 17.6481 19.57 17.8337 19.5899 18.0264C19.6169 18.2858 19.6205 18.547 19.6025 18.81C19.6655 19.2369 19.7862 19.6242 20.0186 20.0024L20.4707 20.7428C20.6652 21.0616 20.9841 21.1715 20.8868 21.3985C20.849 21.4885 20.5986 21.6038 20.5157 21.5534C20.4005 21.4831 20.2582 21.3084 20.1807 21.1877L19.6763 20.3951C19.5682 20.224 19.4836 20.0529 19.4205 19.8691C19.2044 20.6437 18.8063 21.4183 18.2353 22.164L18.5235 22.4739C18.5757 22.5315 18.6027 22.6936 18.5955 22.7567L18.5199 23.5096C18.5091 23.6177 18.4136 23.8284 18.4298 23.9545L18.5253 24.7147L18.5577 24.8786C19.2152 24.7543 19.9087 24.4463 20.5752 23.9041L21.8667 22.8521C22.1892 22.5891 22.4666 22.2991 22.762 21.9911C22.8484 21.901 22.9349 21.811 23.025 21.7173C23.4699 21.2634 24.3309 21.4183 24.8011 21.6741C25.0911 21.8326 25.3631 22.0217 25.6117 22.2343C25.7432 22.0361 25.8963 21.8398 26.0224 21.7119C26.4259 21.303 26.86 21.2021 27.1248 20.8959C26.9284 20.7428 26.842 20.6113 26.7771 20.4348L26.5754 20.1898L26.4097 19.8295L26.2656 19.4026C26.1953 19.1937 26.2169 18.9108 26.1809 18.6731C26.1665 18.5812 26.0656 18.4029 26.071 18.3002L26.116 17.4572L26.2115 17.1383C26.2583 16.9834 26.2403 16.7907 26.2746 16.6718L26.4043 16.3241L26.543 15.9855L26.8726 15.3875C26.9266 15.2902 27.0563 15.1245 27.1446 15.038L27.8255 14.3643L28.229 14.0257L28.582 13.8383C28.7316 13.8149 28.8667 13.7645 28.9495 13.6744C29.2702 13.6528 29.3368 13.4276 29.4035 13.1754C29.4467 13.0115 29.5079 12.8764 29.5007 12.6855C29.4953 12.5306 29.5602 12.4063 29.6232 12.2784L29.9222 11.6713C30.0843 11.3417 30.3347 11.0283 30.5959 10.7923L31.2462 10.2033C31.52 9.95468 31.8622 9.77095 32.1883 9.61964L32.7863 9.45031C33.0691 9.45752 33.3051 9.4269 33.5483 9.32782L34.3787 9.36745L34.9443 9.47013C35.0776 9.49535 35.3136 9.562 35.4487 9.62865L36.4466 10.1186C36.6249 10.2069 36.8789 10.4356 37.0212 10.5905L37.4571 11.0751C37.531 11.158 37.6643 11.2751 37.7526 11.2714C37.8498 11.2678 38.012 11.1652 38.1038 11.1418L38.5578 11.0229C38.8658 10.9436 39.2783 10.9742 39.6079 11.0121C39.8241 11.1796 40.0889 11.0301 40.514 11.2498L41.2399 11.6263C41.6218 11.8965 41.9244 12.2496 42.1694 12.6513L42.4432 13.2187L42.5837 13.6294C42.7224 14.0347 42.7062 15.0164 42.5531 15.4595L42.4126 15.8666C42.3423 16.0702 42.2739 16.2305 42.1352 16.398L41.8145 16.7835C41.584 17.0609 41.4128 17.2915 41.4705 17.7022C41.4471 17.8679 41.3462 18.1705 41.2759 18.3344L41.1318 18.6749C41.0958 18.7595 41.0292 18.9162 40.9733 18.9811L40.7626 19.2261C40.6293 19.381 40.4401 19.608 40.2618 19.716L39.5575 20.0925L39.1504 20.2006C38.7235 20.3141 38.2425 20.278 37.8066 20.2528C37.6517 20.0313 37.522 20.2006 37.1581 20.0042L36.8933 19.8619C36.6538 19.7322 36.479 19.5539 36.3025 19.354L36.0269 19.0441C35.827 19.0441 35.6612 19.1018 35.4685 19.1468C35.2217 19.2027 34.8524 19.2153 34.6309 19.1414C34.04 18.9433 33.4744 18.6803 33.1376 18.1867L32.8314 17.7382L32.6891 17.3833L32.5468 17.0591L32.5522 15.9963L32.6584 15.6973L32.7611 15.4109C32.9376 14.9173 33.5609 14.3121 33.7104 14.4562C33.8059 14.548 33.8923 14.8417 33.8185 14.9533C33.5807 15.0434 33.4564 15.1731 33.3808 15.4127L33.206 15.7567C33.1322 15.9044 33.0944 16.0377 33.0637 16.2125L32.9683 16.4052C32.9412 16.4592 33.0565 16.5835 33.0655 16.6466C33.0871 16.8285 33.0962 17.0915 33.1664 17.2572C33.3934 17.794 33.7014 18.1417 34.2256 18.3506L34.5138 18.5001C34.775 18.6352 35.4433 18.6515 35.7207 18.5524C35.89 18.4929 36.1674 18.3146 36.3205 18.5362C36.497 18.7884 36.688 19.0297 36.9546 19.2117C37.241 19.4062 37.5238 19.6224 37.8877 19.6638C38.1705 19.6944 38.4803 19.8962 38.8964 19.7575L39.2855 19.6278C39.5629 19.5359 39.8655 19.336 40.0889 19.1558C40.3987 18.9036 40.5932 18.5866 40.7247 18.2317L40.9679 17.5761C41.0454 17.3689 40.8382 16.9888 41.1408 16.7042C41.4525 16.4106 41.7371 16.1098 41.8902 15.7045L42.0343 15.3226L42.1568 14.82C42.2288 14.5228 42.1154 13.7357 41.9604 13.451C41.8632 13.2727 41.8145 12.9737 41.6884 12.8314L41.3048 12.3955L40.9445 12.082L40.4527 11.7416L40.0835 11.6731C39.9646 11.5579 39.7989 11.5164 39.6331 11.5507C39.3701 11.3273 39.0855 11.4354 38.8171 11.5128C38.5956 11.5777 38.365 11.6011 38.1416 11.7056C37.9003 11.8191 37.6427 11.974 37.3707 11.8299L37.0663 11.4552L36.76 11.1093L36.3944 10.7689C36.2503 10.6356 36.1242 10.5131 35.9332 10.4338L35.0182 10.052L34.5822 9.93127C34.258 9.8412 33.8725 9.85561 33.5393 9.92046L33.1088 10.0033L32.6891 10.0772C32.327 10.2213 31.9919 10.3672 31.6731 10.5707C31.5452 10.6518 31.4119 10.8193 31.2462 10.8319L31.1471 10.9976C31.0066 11.185 30.7598 11.3669 30.6428 11.5615L30.3131 12.1037C30.2627 12.1865 30.1708 12.363 30.1402 12.4513L29.9925 12.88L29.9294 13.3682L29.8087 13.7591C29.7421 13.8527 29.5566 14.0185 29.4557 14.0779C28.8108 14.2058 28.3317 14.5607 27.8849 15.0128C27.5985 15.3028 27.3517 15.5784 27.168 15.9441C27.0635 16.153 26.9068 16.3908 26.8456 16.607L26.7051 17.1113L26.5628 17.6319C26.5195 17.7922 26.5231 18.1417 26.5628 18.302L26.669 18.7379L26.7753 19.1738L26.914 19.5827L27.0833 20.0205C27.1266 20.1303 27.2166 20.2348 27.3229 20.2997C27.4742 20.6401 27.7156 20.9373 28.0417 21.1625L28.8721 21.7353C29.2972 22.0289 30.3978 22.2055 31.0445 22.1658C31.1237 22.1604 31.293 22.1766 31.3453 22.2253C31.4047 22.2793 31.4588 22.4054 31.4966 22.5189L31.6191 22.8864L32.2495 23.9023C32.3504 24.0662 32.5197 24.1995 32.6458 24.3508C33.1466 24.9489 33.7915 25.3614 34.4886 25.709C34.8308 25.8801 35.1587 25.9828 35.5333 26.0621L36.1782 26.199H37.5274L38.1326 26.0657C38.5019 25.9846 38.9324 25.8819 39.2585 25.7018L39.3413 25.6568C39.7088 24.7615 40.4852 24.0032 41.3372 23.5709C41.4615 23.5078 41.6272 23.4466 41.8091 23.4051L42.2342 22.6342C42.3784 22.645 42.6269 22.7062 42.7927 22.7837L43.5168 23.1223L44.3166 23.3367C44.6516 23.4268 44.956 23.4952 45.3127 23.4844L46.0458 23.461L46.9663 23.3187L47.2869 23.2196C46.9375 22.5963 46.6889 21.9407 46.5736 21.3048C46.498 20.8851 46.4944 20.3537 46.5646 19.6836C46.6439 18.9253 47.0041 18.1615 47.5824 17.5292C48.1408 16.9186 48.8829 16.5961 49.7295 16.5961C50.2735 16.5961 50.8409 16.733 51.3741 16.9816L51.3687 16.9924ZM26.1539 8.65954C25.6531 8.70637 25.0965 8.92793 24.7849 9.27198L24.3724 9.72772C24.2337 9.88083 24.122 10.1636 24.0391 10.3798C23.7599 11.1039 24.2463 11.8299 23.8013 12.1433C22.9709 12.7287 22.4413 13.7357 22.1099 14.6958C22.0306 14.9263 21.9856 15.1731 21.9838 15.4325L21.9784 16.2341C21.9694 17.5364 22.481 18.4605 23.2646 19.4512C23.3024 19.4981 23.3456 19.5611 23.3618 19.5971C23.3762 19.626 23.1475 19.7917 23.0286 19.7845C22.989 19.7809 22.9259 19.7214 22.8917 19.6854L22.6395 19.4332C22.454 19.2477 22.3765 19.0333 22.2576 18.8118C22.0721 18.4659 21.8901 18.1561 21.7839 17.7868L21.6974 17.4842C21.4704 16.6898 21.4885 15.9423 21.5803 15.1317C21.656 14.467 21.8919 13.8816 22.2162 13.3033C22.4215 12.9377 22.6251 12.6224 22.9403 12.3252L23.5348 11.765V11.3903C23.5348 11.0805 23.4591 10.7293 23.5546 10.45L23.7005 10.0213L23.8482 9.67368C23.9995 9.31702 24.3778 8.91712 24.6876 8.71357C25.1487 8.41275 26.035 8.0669 26.2007 8.39834C26.2295 8.45418 26.2007 8.61991 26.1521 8.66134L26.1539 8.65954ZM31.194 3.4195C31.1795 3.63566 31.021 3.76355 30.8445 3.74373C30.5059 3.70591 30.2573 3.8266 29.9727 3.9761C29.652 4.14363 29.3854 4.34177 29.1837 4.66781C29.0756 4.84254 28.9081 5.03168 28.8396 5.26585C28.7207 5.66935 28.6847 6.20614 28.8234 6.62765C28.9333 6.96089 29.1693 7.2437 29.3818 7.5157C29.5962 7.7913 29.9492 7.91379 30.2771 8.00746L30.8409 8.16778L31.0102 8.51903C30.6518 8.67935 30.2699 8.56046 29.9258 8.40915C29.1729 8.07771 28.6307 7.50849 28.3749 6.7033C28.265 6.22055 28.2722 5.67295 28.3497 5.17218L28.5064 4.84614C28.5586 4.73986 28.6019 4.57234 28.6325 4.43544L29.3782 3.6951L29.7781 3.54919L30.3636 3.34744L30.8607 3.20334L31.1904 3.4195H31.194ZM47.0258 15.845C47.0168 15.9513 47.0492 16.0936 47.0816 16.1999C47.0546 16.353 47.0186 16.6268 46.9681 16.7583L46.8258 17.1293L46.6673 17.5022C46.5034 17.8877 46.1647 18.1165 45.8801 18.4245C45.4406 18.9036 45.0551 18.9559 45.0299 19.0243C45.0299 19.0225 45.0011 18.9901 44.9578 18.9451L44.6768 19.1828L43.9077 19.2387C43.6951 19.2549 43.4718 19.1864 43.4447 18.9379L43.8086 18.873L44.4697 18.7289C44.6985 18.6785 45.0263 18.5037 45.2172 18.3686L45.5217 18.1525C45.8837 17.8949 46.1503 17.5364 46.3214 17.1095C46.4421 16.8069 46.6187 16.4358 46.6331 16.099C46.6529 15.6757 46.4385 14.6453 46.2152 14.3427L45.8027 13.7861C45.5397 13.4312 45.0371 13.343 45.0389 12.844L45.0425 11.965C44.9668 11.8515 44.9272 11.7272 44.875 11.5795L44.7435 11.2174C44.5201 10.6014 43.9599 10.1907 43.3475 9.9745L42.663 9.73312L42.6846 9.45572C43.578 9.25757 44.9038 10.2249 45.1884 11.0265L45.3145 11.3831L45.4712 11.8821C45.5685 12.1883 45.4874 12.5954 45.5271 12.9197C45.8333 13.1502 46.0783 13.3772 46.2908 13.669L46.6277 14.1337C46.8889 14.4922 47.0762 14.8651 46.9969 15.3316C47.1392 15.4775 47.1591 15.6685 47.0222 15.845H47.0258Z" fill="white"/>
<path d="M16.5673 19.2891L16.4304 18.6784L16.4196 18.5884C16.4646 18.6118 16.5132 18.6478 16.5709 18.7055C16.8933 19.0279 16.8609 19.5359 16.7582 19.943L16.7294 19.8835C16.6411 19.7016 16.6123 19.4926 16.5673 19.2909V19.2891Z" fill="white"/>
<path d="M18.8695 18.1005C19.0136 19.5235 18.3615 20.7773 17.7418 21.6221C17.6248 21.4654 17.5365 21.296 17.4302 21.1411L17.2087 20.8151C17.7022 19.7469 17.6536 18.767 17.0808 18.1942C16.8538 17.9672 16.5998 17.8483 16.3422 17.8357L16.3206 17.3494C16.317 17.2539 16.3728 17.1476 16.4233 17.0431C16.4773 16.9332 16.4251 16.6649 16.4557 16.5261C16.5314 16.1695 16.6484 15.7858 16.7943 15.4111C17.0339 15.4526 17.2627 15.5318 17.4698 15.6651C18.2678 16.1803 18.765 17.0449 18.8731 18.1005H18.8695Z" fill="white"/>
</svg>
