<svg width="809" height="199" viewBox="0 0 809 199" fill="none" xmlns="http://www.w3.org/2000/svg">
<path d="M514.463 88.9034L507.204 79.4519C505.413 82.4534 502.663 86.2532 499.944 88.9034L427.573 88.8076V92.6074H505.413V132.968H427.701L427.573 136.927H505.413V177.096H427.637L427.509 180.832H505.157L505.509 198.936L495.083 197.436L409.505 197.563V158.991H487.312V155.032H409.505V114.863H487.664L487.12 110.904H409.537L409.345 70.671L492.749 70.4795L498.409 60.3575L498.761 22.3281L426.742 22.4558V26.511L492.717 26.4472L492.781 66.552H409.76L409.792 48.5112H474.936L474.424 44.4879H409.473L409.537 4.41505H498.729C499.976 -1.20474 513.44 -1.52404 517.853 4.35119L605.351 4.44698L605.415 44.5199H540.303L539.727 48.7347L605.223 48.4473V66.5839H522.043V26.4472L587.058 26.4791L586.994 22.4239H516.574L516.542 61.7943L523.13 70.4795L605.383 70.6072V110.904H527.671L527.575 114.831H605.383V155H527.575L528.055 158.991H605.351V197.372L509.794 197.531L510.722 180.864L587.186 180.8L585.971 177.096L510.37 176.936L510.945 136.863H586.866L586.93 132.904H509.666L510.658 123.037L510.881 92.5116H586.93L586.962 88.7118L514.367 88.8076L514.463 88.9034Z" fill="black"/>
<path d="M753.578 44.4559L753.642 48.3834H786.773V110.776L753.386 110.872L753.738 114.831H786.741V132.936L753.418 132.872L753.354 154.936H735.19L735.349 132.904H702.186L701.898 115.086L735.445 114.575L736.277 111.063L702.026 110.712V48.543L735.509 48.1918L736.309 44.5836L702.154 44.392V27.0857L735.03 28.2032L736.213 22.2641L697.997 22.4557V136.927H731.128L731.064 155.063L679.576 154.968V4.4788L734.166 4.22336C739.059 -1.49222 751.403 -1.3645 753.674 4.35108H809V154.904L775.996 155L775.772 158.927L809 158.991L808.936 198.872H735.509L735.253 177.032H697.901V180.8L731.064 180.863L730.904 198.872H679.64V158.959H753.258L753.418 180.863L790.899 180.768C790.611 179.522 789.396 177 788.692 177L757.48 177.064L757.32 136.895H790.803V22.3599L753.354 22.4877C753.418 25.0421 753.29 26.8621 754.122 27.2772C754.953 27.6923 758.055 28.299 759.303 28.2671L786.55 26.9899L786.805 44.4559L753.61 44.5198L753.578 44.4559ZM735.765 70.7348C735.349 66.7754 735.158 65.115 735.349 66.6796L720.127 66.8073V70.7987L735.765 70.7667V70.7348ZM753.386 66.7435V70.7348H768.545V66.7435H753.386ZM720.159 88.1689V92.7669H735.829V88.1689H720.159ZM768.545 88.7437H753.354V92.735H768.545V88.7437Z" fill="black"/>
<path d="M635.06 159.151L657.254 158.863L657.382 154.968L635.156 154.936L635.188 114.863L657.35 114.799L657.254 110.904L629.624 110.648L629.847 199L612.962 198.425V92.8308L635.028 92.7031L635.188 88.8075L613.058 88.7437L612.962 70.671L635.188 70.7987V4.83008L653.353 4.92587L653.321 70.7029H675.547L675.451 88.6798L653.257 88.8075L653.065 92.7031L675.547 92.7989V132.776L653.257 132.968L653.193 136.799L675.515 136.991L675.611 176.585L653.193 177.415L652.329 180.768L675.515 180.863L675.259 198.84H635.252L635.06 159.151Z" fill="black"/>
<path d="M629.56 56.6856L631.063 66.6799L612.962 66.5522V4.54297H630.039L629.56 56.6856Z" fill="black"/>
<path d="M675.771 4.31934H657.382V66.7117H675.771V4.31934Z" fill="black"/>
<path d="M177.905 44.4395H84.8112V114.591H196.038V154.983H85.067V158.943H195.91V177.047H66.6785V136.911L178.001 136.847L176.466 132.919H66.6145V26.4307H195.974V110.664H88.8726V48.5266L173.748 48.4628L173.844 88.5995H111.323L111.035 70.463L153.217 70.6545C153.696 70.4949 154.72 68.9941 156.031 66.5994L107.005 66.5036V92.5589H177.841L177.937 44.4395H177.905Z" fill="black"/>
<path d="M62.8089 198.665L52.0636 197.356L0.1599 197.547L0.0319801 180.879L22.2581 180.752V23.0784C22.3861 22.0566 16.7895 22.5994 16.7895 23.9086L16.7256 176.505L0 176.728V4.75024L20.947 4.01583C25.8399 -1.41237 37.7685 -1.31658 40.5507 4.17549L62.585 4.84603V176.76L44.4203 176.792V22.4717L40.3589 22.2163V180.847L62.3931 180.816L62.7769 198.697L62.8089 198.665Z" fill="black"/>
<path d="M196.07 4.30273H66.6465V22.4074H196.07V4.30273Z" fill="black"/>
<path d="M66.6486 180.711L66.636 198.752L196.059 198.842L196.072 180.801L66.6486 180.711Z" fill="black"/>
<path d="M391.308 198.122H225.939V159.613H381.426V155.654H225.971V115.453H381.906L381.203 111.494H221.942V197.962H203.713V93.1656H292.714L292.65 89.2063H203.713V4.94141H399.879L399.943 89.1743L310.335 89.2382V93.1337L400.071 93.2614L399.783 133.526H244.68L245.447 137.485H399.911L399.879 177.654H244.616V181.39H399.463L400.071 197.068C400.135 199.048 394.346 198.026 391.404 198.026L391.308 198.122ZM221.846 21.5453V27.1012L382.738 27.6121V22.0562L221.846 21.5453ZM381.938 44.3118L221.846 45.142V50.5702L381.97 49.74V44.3118H381.938ZM221.846 67.1422V71.1974H381.938V67.1422H221.846Z" fill="black"/>
</svg>
