<svg width="190" height="47" viewBox="0 0 190 47" fill="none" xmlns="http://www.w3.org/2000/svg">
<path d="M52.1199 41.37H62.24V45.48H47.95V36.36H58.0499V35.46H47.9599V26.25H58.0499V25.35H47.9599V16.18H67.2799V41.37H88.33V40.51H68.18V31.26H88.33V30.44H68.18V21.19H88.33V20.33H68.18L68.1699 15.28H47.97V11.12H68.1299V10.26H47.9799V6.1H67.54C67.27 5.72 66.9299 5.42 66.4899 5.19H47.9799V1.04H66.16L67.0899 0.02L70.2699 2.84L73.51 0L74.3499 1.05H92.57V5.2H73.9599L72.97 6.1H92.58L92.5599 10.26H72.3899V11.12H92.57V15.28H72.3899V16.17H92.58V25.34H72.3899V26.24H92.57V35.45H72.3799V36.35H92.57V45.48H63.16V20.34H52.15V21.2H62.27V30.44H52.24C52.18 30.66 52.1599 31.01 52.2099 31.26H62.27V40.51H52.22L52.15 41.37H52.1199Z" fill="black"/>
<path d="M119.78 20.3502L118.27 18.2302L116.85 20.3502H100.14V21.1702H117.82V30.4102H100.14V31.2702H117.82V40.4802H100.14V41.3002H117.82L117.81 45.4602H95.99V36.3302H113.6L113.61 35.4302H95.99V26.2602H113.61V25.3702H95.99V16.1702H114.65L116.19 13.9302V5.18016H100.13V6.08016H114.95V15.2402H95.99V11.0902H110.76V10.1902H95.99V1.02016H116C116.12 0.800156 116.18 0.520156 116.21 0.160156H120.33L120.41 1.02016H140.55V10.1902H125.76L125.8 11.0902H140.56V15.2402H121.6V6.08016H136.38V5.18016H120.39V13.9202L121.97 16.1502H140.58V25.3602H122.91V26.2502H140.57V35.4202H122.9V36.3202H140.56V45.4402H118.73V41.2802H136.37V40.4602H118.73V31.2502H136.37V30.3902H118.73V21.1502H136.37V20.3302H119.79L119.78 20.3502Z" fill="black"/>
<path d="M17.65 35.38H0V26.21H17.64V25.32H0V16.15H17.66L17.7 14.38C17.7 14.08 17.4 13.58 17.13 13.62L15.57 15.24H0.01V11.05H13.73L14.2 10.69C14.31 10.6 14.03 10.34 13.84 10.16H0V5.99998H15.54L17.09 7.56998C17.24 7.64998 17.68 7.25998 17.68 7.06998L17.66 5.13998H0.03L0 0.97998H21.84V8.96998L20.18 10.6L21.84 12.31V20.25H4.18V21.15H21.84V30.32H4.17V31.21H21.83V40.38H4.17V41.24H21.83V45.4H0V36.27H17.63V35.38H17.65Z" fill="black"/>
<path d="M40.39 35.3897H22.74V26.2197H40.39V25.3297H22.74V16.1597H40.4L40.42 14.2897C40.42 14.0897 40.14 13.6997 39.98 13.5597L38.24 15.2597H22.75V11.0597H36.51L36.94 10.6997C37.04 10.6097 36.78 10.3697 36.6 10.1697H22.75V6.00975H38.33L39.88 7.57975C40.04 7.65975 40.43 7.26975 40.43 7.07975L40.41 5.14975H22.75V0.989746H44.57V8.93975L42.92 10.5997L44.56 12.2597V20.2597H26.94L26.92 21.1597H44.57V30.3297H26.93V31.2197H44.57V40.3897H26.92V41.2497H44.56V45.4097H22.74V36.2797H40.32L40.4 35.3797L40.39 35.3897Z" fill="black"/>
<path d="M188.56 30.4098H143.93V11.1398H161.62V10.2898H143.93V6.08984H188.54L188.56 10.2798H170.91V11.1398H188.56V30.4098ZM166.66 10.2798H165.76V11.1398H166.66V10.2798ZM161.64 15.2898H148.1V16.1798H161.64V15.2898ZM183.46 21.1998V26.2298H184.36V20.3498H166.66V15.3498L165.76 15.3198V20.3498H148.1V26.2298H148.99V21.1998H183.46ZM170.86 15.2898V16.1898H184.36V15.2898H170.86ZM179.3 25.3598H153.12V26.2598H179.3V25.3598Z" fill="black"/>
<path d="M166.66 41.29H180.36L180.9 40.99C181.01 40.93 180.67 40.59 180.54 40.47H166.66V36.32H182.23L183.87 37.95C183.98 37.92 184.37 37.49 184.36 37.29L184.32 35.41H166.65V31.25H188.55V39.27L186.85 40.94L189.39 43.42L186.4 46.32L183.89 43.81L182.22 45.47H166.65V41.28L166.66 41.29Z" fill="black"/>
<path d="M151.96 40.47L151.56 40.85C151.47 40.94 151.79 41.19 151.95 41.29H165.76V45.48H150.22L148.57 43.81L146.04 46.33L143.09 43.42L145.57 40.94L143.92 39.3V31.27H165.74V35.43H148.11L148.06 37.15C148.06 37.38 148.31 37.76 148.52 38.01L150.22 36.33H165.73V40.48H151.94L151.96 40.47Z" fill="black"/>
<path d="M188.54 1.01992L188.57 5.17992H166.66V0.169922H170.85L170.94 1.02992L188.54 1.01992Z" fill="black"/>
<path d="M143.95 5.17992L143.92 1.02992H161.55L161.68 0.169922H165.76V5.17992H143.95Z" fill="black"/>
</svg>
