<svg width="594" height="271" viewBox="0 0 594 271" fill="none" xmlns="http://www.w3.org/2000/svg">
<path d="M454.963 219.647C456.343 221.6 456.421 224.539 454.727 226.029C451.787 228.62 444.112 223.024 441.085 218.844L437.831 214.151C433.331 213.853 429.225 214.391 424.323 214.788C426.766 210.285 430.919 207.529 435.34 205.699C436.136 198.895 442.283 193.407 448.935 192.199C455.602 190.99 462.166 191.884 468.936 192.596C470.599 192.613 472.459 190.436 473.152 188.871C475.761 182.986 475.58 174.973 470.662 170.983C466.611 168.997 462.371 168.277 457.934 167.937C448.154 167.201 438.563 169.328 430.084 174.642C418.554 181.868 414.503 195.443 418.57 208.812C422.037 220.21 430.486 231.434 440.447 237.079C443.513 238.818 446.641 239.918 450.14 240.531C457.808 241.872 467.21 237.973 467.856 229C468.093 225.747 467.518 222.229 465.776 219.332C464.657 217.47 463.215 215.318 461.654 213.853C453.442 206.196 437.176 203.439 428.515 211.998C429.122 212.396 429.54 212.238 430.32 212.114C438.288 210.848 450.393 213.149 454.979 219.647H454.963Z" fill="#55FF00"/>
<path d="M568.305 118.09C575.161 123.884 580.252 139.529 572.789 138.585C569.448 138.163 567.446 134.438 566.61 130.721C564.892 123.081 565.838 115.425 568.872 107.784C562.158 111.923 559.423 120.772 559.47 128.818C559.51 135.398 561.149 141.979 565.554 146.788C568.951 150.505 573.467 152.574 578.243 152.11C584.066 151.539 588.409 144.917 589.481 138.676C590.82 130.87 588.748 123.205 585.138 116.219C580.331 106.907 573.175 99.2504 564.065 94.8219C552.512 89.2098 540.328 92.38 531.966 102.396C523.613 112.412 519.53 125.531 520.185 138.767C520.547 146.142 529.303 149.147 536.364 147.897C538.137 147.583 540.848 146.118 541.053 144.156C541.321 141.515 541.463 139.106 542.007 136.59L543.614 129.124C545.521 120.259 552.472 112.321 561.015 113.43C563.781 109.216 567.359 105.732 572.206 104.209L568.872 114.961C568.589 115.863 568.478 117.105 568.321 118.09H568.305Z" fill="#55FF00"/>
<path d="M453.718 224.752C453.466 224.984 453.001 225.075 452.394 225C451.859 224.934 451.26 224.76 450.629 224.495C450.55 222.418 450.732 220.125 451.063 217.989C452.119 218.767 453.017 219.645 453.703 220.622C454.664 221.979 454.672 223.908 453.726 224.744L453.718 224.752Z" fill="#55FF00"/>
<path d="M464.428 220.209C465.847 222.577 466.501 225.647 466.273 228.867C466.068 231.748 464.83 234.14 462.608 235.978C460.748 237.509 458.258 238.527 455.618 238.925L454.83 237.865L452.442 233.47C451.851 232.377 451.598 231.235 451.354 230.026L451.078 228.66L451 228.073C451.354 228.164 451.709 228.238 452.048 228.28C453.923 228.503 455.098 227.858 455.752 227.278C457.99 225.308 458.203 221.434 456.24 218.645C455.145 217.089 453.64 215.748 451.882 214.622L452.473 213.016L453.655 210.558C456.13 211.634 458.502 213.124 460.598 215.077C461.773 216.17 463.026 217.842 464.436 220.201L464.428 220.209Z" fill="#55FF00"/>
<path d="M457.611 201.253C456.516 202.015 455.649 202.983 455.097 204.192C454.096 204.854 453.285 205.739 452.906 206.865C450.487 206.013 447.934 205.433 445.372 205.193C443.93 205.061 442.527 205.036 441.164 205.11L440.762 204.125L439.848 200.756L439.659 199.556C441.936 196.684 445.372 194.515 449.202 193.82C450.621 193.563 452.032 193.406 453.45 193.323C453.592 193.472 453.742 193.613 453.907 193.745C454.475 195.169 455.483 196.047 456.673 196.8L458.116 197.71L460.149 198.819C459.455 199.713 458.565 200.508 457.611 201.245V201.253Z" fill="#55FF00"/>
<path d="M469.275 194.739L467.454 195.136L465.35 195.988C464.341 196.394 463.23 197.122 462.206 196.982C460.023 196.675 458.533 195.417 456.981 194.076C456.666 193.803 456.398 193.53 456.161 193.257C459.707 193.257 463.285 193.646 466.997 194.043L468.936 194.242C469.677 194.242 470.386 194.018 471.04 193.646L471.056 193.853C470.772 194.308 469.874 194.614 469.283 194.739H469.275Z" fill="#55FF00"/>
<path d="M469.007 190.931L467.313 190.749C463.049 190.294 458.691 189.831 454.286 189.988C454.081 189.574 453.9 189.16 453.813 188.721L453.08 184.98C452.757 183.333 453.372 181.603 453.931 180.022L452.914 178.747C451.464 178.954 451.244 180.552 450.913 181.785C450.771 182.298 450.432 182.745 450.511 183.341L451.189 188.382C451.275 189.044 451.401 189.591 451.858 190.145C450.794 190.244 449.738 190.369 448.675 190.559C445.128 191.205 441.897 192.868 439.352 195.161C439.438 192.719 439.88 190.004 440.62 188.44L443.331 182.728L444.64 181.164L447.642 177.936C448.013 176.851 446.807 175.941 446.57 175.163L445.932 173.085L445.294 170.321C449.337 169.509 453.545 169.244 457.824 169.576C459.014 169.667 460.11 169.782 461.15 169.923L461.174 170.105L461.583 171.885L465.248 176.76L466.209 177.514L467.699 178.805C468.487 179.492 472.151 179.641 471.647 181.04C471.395 181.727 471.395 182.298 471.395 182.927L470.757 186.71L470.788 189.615C470.181 190.336 469.472 190.89 469.007 190.923V190.931Z" fill="#55FF00"/>
<path d="M442.606 208.463L442.583 208.405C445.388 208.338 448.32 208.727 451.173 209.63C450.7 210.59 450.361 211.608 449.998 212.668L449.746 213.413C448.202 212.643 446.523 212.014 444.781 211.509C443.946 210.606 443.055 209.497 442.606 208.463Z" fill="#55FF00"/>
<path d="M472.759 177.248C472.483 177.679 472.128 177.952 471.474 177.803C470.497 177.579 469.425 177.248 468.527 176.669L466.974 175.667C465.752 174.484 464.539 173.101 463.995 171.495L463.609 170.361C465.942 170.833 467.951 171.495 469.843 172.406C471.316 173.656 472.254 175.353 472.766 177.248H472.759Z" fill="#55FF00"/>
<path d="M521.903 139.793C523.558 140.306 525.103 141.233 526.38 142.566C527.002 143.212 527.633 143.063 528.901 145.976C527.113 145.504 525.513 144.735 524.307 143.717C523.015 142.632 522.219 141.308 521.903 139.793Z" fill="#55FF00"/>
<path d="M540.462 136.233C540.021 138.302 539.84 140.239 539.643 142.292C539.588 142.846 539.54 143.418 539.477 143.989C539.391 144.808 537.617 146.008 536.089 146.282C534.599 146.546 533.054 146.596 531.565 146.455L531.202 145.437C530.399 143.202 528.562 141.241 526.892 139.61C526.616 139.37 525.914 138.873 525.576 138.732L522.352 137.408C522.139 137.317 521.919 137.267 521.706 137.201C521.509 128.361 523.448 119.852 527.294 112.369C527.688 112.311 528.082 112.253 528.476 112.22C534.93 111.698 542.102 113.875 547.09 118.146C544.631 121.184 542.882 124.967 542.062 128.766L540.454 136.233H540.462Z" fill="#55FF00"/>
<path d="M518.553 136.945L516.615 137.036C515.834 137.078 515.172 137.252 514.408 137.591L512.643 138.377C512.225 138.568 511.232 138.973 510.87 138.708L508.907 136.639C507.875 136.349 507.142 135.952 506.251 135.472C505.054 134.826 503.745 134.611 502.516 134.239C500.94 133.767 499.301 133.634 497.661 133.8L495.344 134.023L493.272 134.578L491.822 135.091C491.136 135.331 489.962 135.853 489.371 136.341L485.233 139.768C484.871 140.066 484.272 140.803 484.083 141.208C483.444 142.566 482.585 143.186 481.695 145.488L480.986 147.334L480.521 150.413C480.347 151.563 480.473 152.929 481.167 153.873C481.324 154.088 481.963 154.146 482.16 153.98C482.357 153.807 482.585 153.268 482.601 152.995L482.751 150.702C482.964 147.449 484.469 144.238 486.581 141.796C490.805 136.92 495.951 135.546 502.067 136.382C502.776 136.482 503.115 136.531 503.785 137.011L505.605 137.715L507.118 138.601L508.545 139.428C509.9 141.15 511.208 142.293 512.871 141.175C514.668 139.967 516.67 139.371 518.648 139.337C518.9 142.077 520.161 144.478 522.328 146.307C524.306 147.971 527.002 149.097 529.933 149.577L529.981 151.447C530.028 153.31 529.555 154.924 528.625 156.563C528.436 156.902 528.207 157.788 527.868 157.929C527.53 158.069 526.954 158.069 526.497 158.078L524.677 158.094C522.052 158.458 519.704 159.112 517.221 160.023C516.418 160.321 515.519 160.942 514.786 161.48L512.485 163.16L508.513 161.372L505.55 160.47L504.336 160.039C503.777 159.841 503.249 159.725 502.658 159.667L500.829 159.468C498.78 159.245 496.889 159.129 494.864 159.535C493.808 159.75 492.618 159.766 491.562 160.139L488.196 161.339C484.871 162.523 482.176 165.023 479.378 167.224C478.653 167.795 478.219 168.449 477.652 169.136L475.926 171.214L475.138 172.613L474.689 173.499C473.94 172.05 472.931 170.751 471.615 169.674L471.316 169.484C468.526 168.118 465.673 167.348 463.025 166.893C462.994 164.874 463.403 162.829 464.373 161.149C464.767 160.47 466.233 158.897 465.326 158.003C465.137 157.813 464.601 157.912 464.286 158.028C463.183 158.442 462.875 159.261 462.3 160.131C461.607 161.19 461.157 162.034 461.197 163.317C460.992 163.864 460.685 164.725 460.685 165.345V166.546C459.755 166.43 458.856 166.347 458.021 166.289C453.537 165.95 449.123 166.214 444.876 167.05C444.797 165.453 445.002 163.847 445.364 162.274L446.081 159.104C446.397 157.697 446.728 156.522 447.476 155.321L449.659 151.836C453.08 146.82 457.974 143.443 463.868 142.607C464.294 142.549 465.279 142.069 465.405 141.639C465.839 139.387 466.587 137.235 467.533 135.19L468.613 132.848L469.803 130.563L471.245 128.602L472.395 127.12C473.089 126.226 473.759 125.142 474.602 124.355C476.123 122.94 477.644 121.574 479.362 120.399L481.569 118.884C482.562 118.205 483.712 117.601 484.816 117.162L487.243 116.202C489.457 115.324 491.64 114.704 493.997 114.406L497.472 113.967L499.23 113.909C503.966 114.149 508.592 114.853 513.037 116.707C515.527 117.75 514.881 116.814 517.655 115.415L519.475 114.497C520.24 114.108 521.091 113.644 521.958 113.462C522.423 113.363 522.896 113.255 523.361 113.147C520.051 120.456 518.38 128.568 518.522 136.962L518.553 136.945Z" fill="#55FF00"/>
<path d="M457.84 241.87C459.503 243.749 461.576 245.016 463.711 246.415L465.445 247.549C465.926 247.863 466.47 247.764 466.998 247.987L469.464 249.022L473.011 249.519C474.374 249.709 474.902 251.29 475.209 252.449L475.651 254.137L476.431 256.05C477.132 257.755 478.33 259.559 479.686 260.693L482.081 262.696C485.305 265.395 490.482 267.075 494.73 266.281L499.198 265.444L500.633 264.799L503.683 263.168C505.314 262.299 507.402 259.452 508.175 257.357C508.569 256.761 509.853 255.917 510.523 255.95L513.321 256.091L517.482 256.19L522.439 255.313C523.322 255.156 524.378 254.659 525.158 254.237L526.994 253.243C527.585 252.929 528.807 252.366 529.264 251.911L532.14 249.038C532.653 248.525 533.244 247.474 533.606 246.845L534.512 245.297L535.521 243.633L536.475 241.647L538.634 237.326C539.777 235.033 542.314 232.335 544.356 231.59C545.672 231.109 547.776 230.903 549.045 231.722C550.164 232.442 551.503 234.213 551.937 235.488C552.693 237.723 551.89 240.215 550.715 242.176C550.022 243.335 548.848 244.552 547.728 245.471L538.5 253.053L536.018 254.493L534.599 255.089L532.984 255.901L530.209 257.159L527.68 258.202L525.308 259.89C524.512 260.453 523.779 260.908 523.164 261.645L521.202 264.012C520.051 265.403 516.702 268.176 515.291 268.656L513.668 269.202C512.249 269.683 510.846 271.057 511.453 270.999L512.218 270.916L515.37 270.543C516.615 270.394 517.844 270.328 518.924 269.55L519.996 269.368L524.165 268.234L528.302 267.564L530.674 267.307L535.505 267.017L539.28 266.761L542.622 266.355C544.072 266.181 545.664 265.842 547.059 265.312L549.202 264.493L551.338 263.582C553.032 262.854 557.658 258.897 559.045 256.96L561.016 254.22C562.064 252.763 562.836 251.058 562.844 249.295L563.262 249.345C563.262 249.345 563.317 249.047 563.332 248.931C563.396 248.591 564.065 248.211 564.42 248.285C565.287 248.467 565.87 248.244 566.674 248.078C569.487 247.499 570.788 246.812 573.144 245.355C573.775 244.966 574.271 244.701 574.823 244.072L576.533 242.119L578.211 239.817L579.338 237.93C579.74 237.251 580.008 236.366 580.237 235.596L580.639 234.189L581.222 230.29C581.356 229.379 581.127 228.063 581.947 227.343C583.515 225.969 585.304 224.835 586.518 223.13C586.896 222.6 587.164 222.062 587.676 221.565C588.669 220.589 590.6 215.697 590.9 213.578L591.577 208.768C591.956 206.07 590.86 203.446 590.08 200.971C589.757 199.945 590.23 199.183 590.506 198.339L591.577 195.069L592.263 192.52L592.499 191.427L592.972 187.032C593.303 183.919 592.704 179.45 591.711 176.428L591.144 174.707C590.458 172.629 589.828 170.891 588.527 169.144L585.296 164.823C584.398 163.623 583.507 162.688 582.388 161.661C582.199 160.66 582.278 159.352 582.436 158.276L582.333 157.274C582.333 155.842 582.16 154.286 581.86 152.705C580.686 153.284 579.504 153.64 578.361 153.748C575.422 154.038 572.529 153.467 569.858 152.126C570.228 152.755 570.559 153.425 570.512 154.137C570.488 154.476 569.708 154.981 569.401 154.899C568.014 154.501 568.471 153.45 567.478 152.126C567.036 151.53 566.887 151.058 566.603 150.396C566.501 150.156 566.367 149.924 566.233 149.692C565.602 149.154 564.987 148.566 564.404 147.929C563.616 147.068 562.891 146.133 562.245 145.139C560.874 143.782 559.416 142.722 557.595 142.011L554.041 140.612C552.512 140.016 551.109 140.521 550.834 139.42C550.723 138.989 551.267 137.855 551.693 137.806C552.284 137.739 553.245 137.963 553.836 138.178L557.713 139.61C558.549 139.916 559.298 140.305 560.015 140.785C558.667 137.367 557.95 133.443 557.887 129.122L556.059 128.816C555.72 128.758 555.192 128.253 555.042 128.005L553.269 125.066C553.017 124.644 552.772 123.61 552.378 123.204L549.99 120.729L549.439 120.232C547.508 122.55 545.955 125.629 545.128 129.478L543.52 136.945C543.118 138.807 542.945 140.645 542.764 142.59C542.708 143.161 542.653 143.732 542.598 144.32C542.299 147.225 538.91 149.104 536.601 149.518C535.174 149.775 533.724 149.858 532.298 149.791C532.385 150.876 532.385 152.026 532.298 152.846C532.014 155.47 530.793 157.067 530.706 158.93C531.794 158.93 532.448 159.161 533.149 159.608L534.505 159.923L536.049 160.759L537.696 161.893C538.508 162.448 539.194 163.532 539.958 164.285C540.257 164.575 541.085 164.931 541.345 165.32L543.465 168.498L544.001 169.922C544.261 170.618 544.844 171.263 545.041 171.785L545.53 173.407L545.963 175.029L546.444 178.133C546.523 178.63 546.523 179.607 546.452 180.17L545.932 184.532L545.459 186.899L544.75 188.58C544.3 189.085 543.969 189.656 543.93 190.21C542.89 191.195 543.26 192.205 543.717 193.298C544.017 194.01 544.166 194.672 544.71 195.342C545.151 195.889 545.254 196.518 545.388 197.163L545.995 200.201C546.326 201.857 546.31 203.694 546.05 205.292L545.404 209.265C545.128 210.937 544.45 212.576 543.741 214.041L542.141 216.351C541.148 217.12 540.415 217.907 539.848 218.95L536.885 221.16L534.662 222.393C534.134 222.683 533.149 223.105 532.495 223.254L527.735 224.314C526.884 224.504 525.386 224.396 524.48 224.231L521.667 223.718C521.194 223.627 520.414 223.577 520.122 223.85C519.799 224.14 519.515 224.968 519.263 225.315L518.018 227.037C517.175 228.196 515.669 229.255 514.432 230.058C513.234 230.058 512.73 231.358 510.673 231.763L507.158 232.459C505.109 232.566 503.123 232.144 501.192 231.391L498.718 230.116L497.126 229.032C495.558 227.956 492.957 224.372 492.287 222.327L491.664 220.456C491.357 219.521 491.16 218.751 491.184 217.75L491.247 215.44C491.294 213.785 491.255 212.469 489.946 211.144C489.576 210.482 489.111 209.1 488.906 208.305L488.481 206.658C488.378 206.252 488.181 205.499 488.205 205.102L488.268 203.62C488.307 202.676 488.347 201.327 488.67 200.433L490.073 197.072L491.176 195.533C492.334 193.91 494.084 192.677 495.66 191.526C496.795 191.882 496.779 190.906 498.56 190.583L499.853 190.351C501.027 190.136 502.107 190.293 503.257 190.508L505.038 190.848C505.732 190.277 506.134 189.606 506.685 188.894C507.379 187.992 508.616 186.899 509.585 186.535C512.155 185.575 514.81 184.921 517.301 185.749L519.562 186.502L521.005 187.379L522.376 188.149L525.229 192.007L525.67 193.389L526.088 194.713C526.813 196.998 526.308 200.955 525.394 200.863C524.819 200.806 523.724 199.986 523.684 199.374C524.259 198.38 524.338 197.544 523.952 196.468L523.621 194.73C523.479 193.985 523.243 193.389 522.872 192.677L522.683 191.709C522.628 191.435 521.895 191.32 521.698 191.113C521.131 190.517 520.398 189.59 519.704 189.192C517.474 187.901 515.472 187.512 513.108 188.249L511.713 188.522C510.444 188.77 508.104 190.616 507.418 191.758C507 192.454 506.528 193.877 505.401 193.521C504.116 193.107 502.8 192.776 501.389 192.876C499.876 192.983 498.316 193.008 496.96 193.894C495.904 194.581 494.289 194.738 493.233 196.418L492.24 197.991C491.53 199.109 491.026 200.69 490.75 201.981C490.364 203.769 490.553 205.466 491.058 207.13L491.988 210.192C492.279 211.161 494.021 211.947 493.745 213.834C493.461 215.78 493.296 217.675 493.863 219.571L494.399 221.359L495.337 223.519C495.889 224.794 498.41 227.318 499.711 227.914C500.53 228.287 501.508 229.222 502.319 229.379L504.817 229.868L506.906 229.975L509.514 229.81L510.972 229.007C511.69 229.081 512.375 228.767 512.856 228.171C514.369 228.229 515.047 227.037 515.764 225.994C516.355 225.133 517.088 224.396 517.569 223.378C518.089 222.286 518.562 220.986 519.886 220.746L521.943 221.234L523.928 221.623L526.111 221.814C526.97 221.888 527.727 221.971 528.61 221.714L532.786 220.498L534.615 219.695C535.97 219.099 537.263 217.948 538.232 216.773L539.493 215.25L540.738 213.793C541.597 212.245 542.354 210.772 542.905 209.124C543.126 208.462 543.134 207.485 543.67 206.972L543.567 206.087C543.544 205.01 543.898 203.653 543.788 202.618L543.457 199.721C543.41 199.282 543.244 198.38 543.11 197.975L542.456 196.005L541.353 194.068L540.715 192.313C540.691 191.783 540.88 190.657 541.069 190.161C542.945 187.876 543.63 185.227 543.946 182.322C544.151 180.459 544.253 178.763 543.898 176.925C543.694 175.874 543.591 174.574 543.213 173.614L542.338 171.387L541.424 169.103C541.14 168.399 540.187 167.149 539.611 166.677L538.067 165.403L536.522 164.128L534.938 163.044L533.173 161.934C532.731 161.653 532.14 161.537 531.589 161.603C530.146 160.8 528.515 160.411 526.789 160.527L522.384 160.817C520.13 160.966 515.859 163.449 513.746 165.428C513.486 165.668 512.864 166.098 512.549 166.065C512.194 166.032 511.674 165.734 511.24 165.436L509.83 164.459L504.912 162.572C504.116 162.266 503.186 162.266 502.335 162.075C498.994 161.338 495.66 161.67 492.326 162.39C490.687 162.746 489.277 163.3 487.779 164.078L485.186 165.419L480.545 169.243L478.819 171.445C477.771 172.786 476.565 174.376 475.926 175.957L475.761 176.362C476.912 180.642 476.289 185.583 474.524 189.565C474.264 190.144 473.862 190.831 473.349 191.502L473.972 195.5C473.452 195.872 472.427 196.352 471.647 196.543L468.243 197.37L464.909 198.869C463.514 199.498 462.277 200.11 461.079 201.161L458.62 203.33L455.838 206.459L455.003 207.726C457.887 208.992 460.519 210.656 462.632 212.626C464.026 213.925 465.469 215.837 467.045 218.461C468.818 221.425 469.645 225.216 469.362 229.139C469.094 232.93 467.407 236.2 464.499 238.609C462.624 240.157 460.307 241.266 457.801 241.887L457.84 241.87ZM567.131 200.441C568.731 198.852 570.047 196.468 570.189 194.349L570.378 191.526C570.441 190.583 570.063 189.234 569.763 188.224C568.77 184.813 565.129 183.564 565.815 181.171C567.092 176.701 566.193 171.561 564.743 167.141C564.396 166.081 563.884 165.063 563.191 164.128L561.047 161.214C557.564 156.48 553.308 154.592 547.926 153.235C547.665 153.169 547.35 153.069 547.193 152.986C547.067 152.92 547.398 151.67 547.839 151.364C547.981 151.265 548.359 151.298 548.58 151.331L550.124 151.53C551.259 151.679 552.102 152.233 553.119 152.697C554.687 153.417 556.153 154.021 557.516 155.056L558.636 155.908C561.567 158.135 563.522 160.891 565.389 164.078C566.926 166.694 567.691 169.475 568.14 172.488C568.423 174.4 568.573 176.105 568.29 178.076L567.762 181.784L568.778 183.141C569.621 184.259 570.819 185.318 571.245 186.601L571.899 188.571L572.324 190.243C572.766 191.965 572.545 194.482 572.025 196.096C571.253 198.496 569.133 202.254 567.667 201.534C567.423 201.41 567.068 200.731 567.123 200.441H567.131ZM563.947 233.675C563.419 232.856 563.608 231.945 564.27 231.515C565.539 230.687 566.067 229.545 566.642 228.204C567.297 226.689 567.675 225.224 567.486 223.469C567.383 222.534 567.454 221.375 567.052 220.332C566.374 218.536 565.043 216.491 563.427 215.366C562.15 214.472 560.566 214.116 559.108 213.735C557.627 213.346 556.082 213.901 554.695 214.497L552.315 215.515L550.778 214.728C551.574 213.131 553.214 212.477 554.805 212.046C558.297 211.103 561.693 211.632 564.751 213.809C566.438 215.241 567.888 217.245 568.967 219.273L569.306 220.895C569.416 221.425 569.716 222.161 569.984 222.741L569.416 227.534L568.431 229.197L566.958 231.59L565.642 233.526L563.924 233.684L563.947 233.675ZM475.895 233.692C475.643 233.278 475.138 232.856 474.744 232.566C474.421 231.937 473.807 230.845 473.625 230.224L473.113 228.485L472.656 226.681C472.183 224.819 472.727 223.031 472.869 221.11C473.089 218.13 474.272 216.847 474.177 216.533C474.177 216.541 474.366 216.574 474.634 216.616L474.957 214.96L477.455 212.576C478.149 211.914 479.095 211.533 479.859 212.353L478.779 213.627L476.896 216.02C476.242 216.847 475.588 218.412 475.296 219.446L474.831 221.094C474.279 223.047 474.327 225.1 474.894 227.136C475.296 228.577 475.698 230.414 476.549 231.672C477.629 233.262 481.151 236.374 482.735 236.837L485.659 237.682C487.527 238.22 489.489 237.119 490.829 238.923L493.193 242.11C493.761 242.301 494.234 242.64 494.809 243.021L496.235 243.956C498.67 245.545 501.705 245.438 504.4 244.486L507.41 243.418L508.08 244.478C505.535 247.731 498.363 247.996 495.219 245.901L493.816 244.966L491.925 243.608C490.766 242.781 489.946 241.076 488.93 240.016C487.251 240.049 485.801 239.925 484.28 239.47L481.861 238.75C479.993 238.195 478.338 237.375 477.353 235.463C476.47 235.339 475.887 234.71 475.879 233.684L475.895 233.692Z" fill="#55FF00"/>
<path d="M571.411 134.817L573.538 136.638L573.822 136.936C573.609 136.978 573.333 136.986 572.987 136.936C571.001 136.688 569.748 134.759 568.999 132.996L569.259 133.129C570.055 133.534 570.717 134.213 571.418 134.809L571.411 134.817Z" fill="#55FF00"/>
<path d="M566.689 145.644C562.347 140.909 561.204 134.527 561.062 129.718C561.89 129.95 562.654 130.314 563.435 130.579L565.082 131.125C566.272 136.381 569.077 139.791 572.6 140.238C573.995 140.412 575.193 140.123 576.107 139.436L577.494 141.132C577.762 141.464 577.864 142.01 577.967 142.531C578.077 143.086 578.983 143.905 579.259 144.493C579.961 146 580.599 147.713 581.111 149.484C580.173 150.014 579.173 150.378 578.101 150.478C573.963 150.883 569.913 149.17 566.697 145.652L566.689 145.644Z" fill="#55FF00"/>
<path d="M138.1 51.3469C136.721 49.3934 136.642 46.4549 138.336 44.965C141.276 42.3741 148.952 47.9697 151.978 52.1498L155.233 56.8432C159.733 57.1412 163.839 56.6031 168.741 56.2058C166.298 60.7088 162.144 63.4652 157.723 65.2945C156.927 72.0986 150.78 77.5866 144.129 78.7951C137.462 80.0036 130.897 79.1096 124.127 78.3978C122.464 78.3812 120.605 80.5582 119.911 82.1226C117.303 88.0079 117.484 96.0205 122.401 100.01C126.452 101.997 130.692 102.717 135.129 103.056C144.909 103.793 154.5 101.666 162.98 96.3516C174.509 89.1254 178.56 75.5503 174.494 62.1822C171.026 50.7841 162.578 39.5598 152.616 33.9145C149.551 32.1763 146.422 31.0753 142.923 30.4628C135.255 29.1219 125.853 33.0206 125.207 41.9934C124.971 45.2464 125.546 48.7643 127.288 51.6615C128.407 53.5239 129.849 55.6761 131.409 57.1412C139.621 64.7978 155.887 67.5543 164.548 58.9953C163.941 58.598 163.523 58.7553 162.743 58.8794C154.776 60.1459 142.671 57.8448 138.084 51.3469H138.1Z" fill="#55FF00"/>
<path d="M24.7659 152.904C17.9096 147.11 12.8186 131.465 20.2817 132.409C23.6232 132.831 25.6249 136.556 26.4602 140.273C28.1783 147.913 27.2326 155.569 24.1985 163.21C30.9129 159.071 33.6475 150.222 33.6003 142.177C33.5609 135.596 31.9216 129.015 27.5163 124.206C24.1197 120.489 19.6039 118.42 14.8282 118.884C9.00426 119.455 4.66194 126.077 3.59015 132.318C2.25041 140.124 4.32307 147.789 7.93247 154.775C12.7398 164.087 19.8955 171.744 29.0057 176.172C40.559 181.784 52.7427 178.614 61.1043 168.598C69.4579 158.583 73.5402 145.463 72.8861 132.227C72.5236 124.852 63.768 121.847 56.7068 123.097C54.9336 123.411 52.2226 124.877 52.0177 126.838C51.7498 129.479 51.6079 131.888 51.0641 134.404L49.4564 141.87C47.5493 150.735 40.5984 158.674 32.0556 157.564C29.2895 161.778 25.7116 165.262 20.8649 166.785L24.1985 156.033C24.4822 155.131 24.5925 153.889 24.7501 152.904H24.7659Z" fill="#55FF00"/>
<path d="M139.353 46.2406C139.606 46.0088 140.071 45.9177 140.677 45.9922C141.213 46.0585 141.812 46.2323 142.443 46.4972C142.521 48.5748 142.34 50.8677 142.009 53.0033C140.953 52.2252 140.055 51.3478 139.369 50.371C138.408 49.0135 138.4 47.0849 139.346 46.2488L139.353 46.2406Z" fill="#55FF00"/>
<path d="M128.636 50.7847C127.217 48.4174 126.563 45.3464 126.792 42.1265C126.997 39.2459 128.234 36.8537 130.456 35.0161C132.316 33.4848 134.806 32.4667 137.447 32.0693L138.235 33.1289L140.623 37.5242C141.214 38.6168 141.466 39.7591 141.71 40.9676L141.986 42.3334L142.065 42.9211C141.71 42.8301 141.355 42.7556 141.017 42.7142C139.141 42.4907 137.967 43.1363 137.313 43.7158C135.074 45.6858 134.862 49.5597 136.824 52.3492C137.919 53.9054 139.425 55.2463 141.182 56.3721L140.591 57.9779L139.409 60.4363C136.934 59.3602 134.562 57.8703 132.466 55.9168C131.292 54.8242 130.039 53.1521 128.628 50.793L128.636 50.7847Z" fill="#55FF00"/>
<path d="M135.459 69.7401C136.555 68.9785 137.422 68.0101 137.973 66.8016C138.974 66.1394 139.786 65.2537 140.164 64.1279C142.584 64.9805 145.137 65.5599 147.698 65.8C149.141 65.9324 150.543 65.9573 151.907 65.8828L152.309 66.8678L153.223 70.2367L153.412 71.437C151.134 74.3092 147.698 76.4779 143.868 77.1733C142.45 77.4299 141.039 77.5871 139.621 77.6699C139.479 77.5209 139.329 77.3802 139.163 77.2478C138.596 75.824 137.587 74.9466 136.397 74.1934L134.955 73.2828L132.922 72.1736C133.615 71.2797 134.506 70.485 135.459 69.7483V69.7401Z" fill="#55FF00"/>
<path d="M123.796 76.2541L125.617 75.8568L127.721 75.0042C128.73 74.5986 129.841 73.8702 130.865 74.0109C133.048 74.3172 134.538 75.5754 136.09 76.9163C136.405 77.1895 136.673 77.4627 136.91 77.7358C133.363 77.7358 129.786 77.3468 126.074 76.9495L124.135 76.7508C123.394 76.7508 122.685 76.9743 122.031 77.3468L122.015 77.1398C122.299 76.6846 123.197 76.3783 123.788 76.2541H123.796Z" fill="#55FF00"/>
<path d="M124.064 80.0618L125.758 80.2439C130.022 80.6992 134.38 81.1627 138.785 81.0055C138.99 81.4193 139.172 81.8332 139.258 82.2719L139.991 86.0133C140.314 87.6606 139.7 89.3906 139.14 90.9716L140.157 92.2463C141.607 92.0394 141.827 90.4418 142.158 89.2085C142.3 88.6952 142.639 88.2483 142.56 87.6523L141.883 82.6113C141.796 81.9491 141.67 81.4028 141.213 80.8482C142.277 80.7489 143.333 80.6247 144.396 80.4343C147.943 79.7887 151.174 78.1249 153.719 75.832C153.633 78.2739 153.191 80.9889 152.451 82.5533L149.74 88.2648L148.431 89.8293L145.429 93.0575C145.058 94.1418 146.264 95.0524 146.501 95.8304L147.139 97.9081L147.777 100.673C143.734 101.484 139.526 101.749 135.247 101.418C134.057 101.327 132.961 101.211 131.921 101.07L131.898 100.888L131.488 99.1083L127.823 94.2329L126.862 93.4796L125.372 92.1883C124.584 91.5013 120.92 91.3523 121.424 89.9534C121.676 89.2664 121.676 88.6953 121.676 88.0662L122.314 84.2833L122.283 81.3779C122.89 80.6578 123.599 80.1032 124.064 80.0701V80.0618Z" fill="#55FF00"/>
<path d="M150.457 62.529L150.48 62.587C147.675 62.6532 144.743 62.2642 141.89 61.3619C142.363 60.4017 142.702 59.3836 143.064 58.3241L143.317 57.5791C144.861 58.3489 146.54 58.978 148.281 59.4829C149.117 60.3852 150.007 61.4944 150.457 62.529Z" fill="#55FF00"/>
<path d="M120.313 93.745C120.589 93.3146 120.944 93.0415 121.598 93.1904C122.575 93.4139 123.647 93.745 124.545 94.3245L126.098 95.326C127.319 96.5097 128.533 97.8921 129.077 99.4979L129.463 100.632C127.13 100.16 125.12 99.4979 123.229 98.5874C121.755 97.3375 120.817 95.6406 120.305 93.745H120.313Z" fill="#55FF00"/>
<path d="M71.1691 131.2C69.5141 130.687 67.9695 129.76 66.6928 128.427C66.0702 127.781 65.4397 127.93 64.1709 125.017C65.9598 125.488 67.5596 126.258 68.7654 127.276C70.0579 128.361 70.8538 129.685 71.1691 131.2Z" fill="#55FF00"/>
<path d="M52.6097 134.76C53.051 132.691 53.2323 130.754 53.4293 128.701C53.4845 128.147 53.5317 127.576 53.5948 127.004C53.6815 126.185 55.4547 124.985 56.9835 124.712C58.473 124.447 60.0177 124.397 61.5071 124.538L61.8696 125.556C62.6735 127.791 64.5097 129.753 66.1804 131.383C66.4563 131.623 67.1577 132.12 67.4965 132.261L70.7198 133.585C70.9326 133.676 71.1532 133.726 71.366 133.792C71.563 142.632 69.6244 151.142 65.7785 158.624C65.3845 158.682 64.9904 158.74 64.5964 158.773C58.142 159.295 50.9705 157.118 45.9819 152.847C48.4407 149.809 50.1903 146.026 51.0099 142.227L52.6176 134.76H52.6097Z" fill="#55FF00"/>
<path d="M74.5105 134.049L76.4492 133.957C77.2294 133.916 77.8913 133.742 78.6558 133.403L80.4211 132.617C80.8388 132.426 81.8317 132.021 82.1943 132.285L84.1566 134.355C85.189 134.645 85.9219 135.042 86.8124 135.522C88.0103 136.168 89.3185 136.383 90.5479 136.755C92.1241 137.227 93.7633 137.36 95.4025 137.194L97.7195 136.97L99.7921 136.416L101.242 135.903C101.928 135.663 103.102 135.141 103.693 134.653L107.831 131.226C108.193 130.928 108.792 130.191 108.981 129.786C109.619 128.428 110.478 127.807 111.369 125.506L112.078 123.66L112.543 120.581C112.717 119.43 112.591 118.065 111.897 117.121C111.739 116.906 111.101 116.848 110.904 117.013C110.707 117.187 110.478 117.725 110.463 117.998L110.313 120.291C110.1 123.544 108.595 126.756 106.483 129.198C102.259 134.073 97.1126 135.447 90.9971 134.611C90.2879 134.512 89.949 134.462 89.2791 133.982L87.4586 133.279L85.9455 132.393L84.5191 131.565C83.1636 129.844 81.8554 128.701 80.1925 129.819C78.3957 131.027 76.394 131.623 74.4159 131.656C74.1637 128.916 72.9028 126.516 70.7356 124.687C68.7575 123.023 66.0623 121.897 63.1306 121.417L63.0833 119.546C63.036 117.684 63.5089 116.07 64.4388 114.431C64.6279 114.091 64.8565 113.206 65.1954 113.065C65.5342 112.924 66.1095 112.924 66.5666 112.916L68.3871 112.9C71.0114 112.535 73.3599 111.881 75.8423 110.971C76.6462 110.673 77.5446 110.052 78.2775 109.514L80.5787 107.834L84.5506 109.622L87.5138 110.524L88.7275 110.954C89.287 111.153 89.815 111.269 90.4061 111.327L92.2344 111.525C94.2834 111.749 96.1748 111.865 98.2002 111.459C99.2562 111.244 100.446 111.227 101.502 110.855L104.867 109.655C108.193 108.471 110.888 105.971 113.686 103.769C114.411 103.198 114.844 102.544 115.412 101.857L117.138 99.7797L117.926 98.3808L118.375 97.4951C119.124 98.9437 120.132 100.243 121.449 101.319L121.748 101.51C124.538 102.875 127.391 103.645 130.039 104.101C130.07 106.12 129.66 108.165 128.691 109.845C128.297 110.524 126.831 112.097 127.737 112.991C127.927 113.181 128.462 113.082 128.778 112.966C129.881 112.552 130.188 111.732 130.764 110.863C131.457 109.804 131.906 108.959 131.867 107.676C132.072 107.13 132.379 106.269 132.379 105.648V104.448C133.309 104.564 134.208 104.647 135.043 104.705C139.527 105.044 143.94 104.779 148.188 103.943C148.267 105.541 148.062 107.147 147.7 108.719L146.982 111.89C146.667 113.297 146.336 114.472 145.587 115.672L143.404 119.157C139.984 124.173 135.09 127.551 129.195 128.387C128.77 128.445 127.785 128.925 127.659 129.355C127.225 131.607 126.477 133.759 125.531 135.803L124.451 138.146L123.261 140.43L121.819 142.392L120.668 143.874C119.975 144.768 119.305 145.852 118.462 146.639C116.941 148.054 115.42 149.42 113.702 150.595L111.495 152.11C110.502 152.789 109.352 153.393 108.248 153.832L105.821 154.792C103.606 155.669 101.423 156.29 99.0671 156.588L95.5916 157.027L93.8342 157.085C89.0978 156.845 84.4718 156.141 80.027 154.287C77.5367 153.244 78.1829 154.179 75.4089 155.578L73.5884 156.497C72.824 156.886 71.9729 157.35 71.106 157.532C70.641 157.631 70.1682 157.739 69.7032 157.846C73.0131 150.537 74.6839 142.425 74.542 134.032L74.5105 134.049Z" fill="#55FF00"/>
<path d="M135.224 29.1303C133.561 27.2513 131.488 25.9848 129.353 24.5859L127.619 23.4519C127.138 23.1374 126.594 23.2367 126.066 23.0132L123.6 21.9785L120.053 21.4819C118.69 21.2915 118.162 19.7105 117.855 18.5516L117.413 16.863L116.633 14.9509C115.932 13.2458 114.734 11.4413 113.378 10.3073L110.982 8.3041C107.759 5.60564 102.582 3.92531 98.3338 4.71995L93.8654 5.55598L92.4311 6.20162L89.3812 7.83229C87.7498 8.70142 85.6614 11.5489 84.8891 13.6431C84.4951 14.2391 83.2105 15.0834 82.5406 15.0503L79.743 14.9095L75.5819 14.8102L70.6249 15.6876C69.7422 15.8449 68.6862 16.3415 67.906 16.7637L66.0698 17.757C65.4787 18.0715 64.2572 18.6344 63.8001 19.0897L60.9236 21.962C60.4113 22.4752 59.8203 23.5264 59.4578 24.1555L58.5515 25.7034L57.5427 27.3672L56.5891 29.3538L54.4298 33.6746C53.2871 35.9675 50.7495 38.6659 48.7083 39.4109C47.3922 39.891 45.2881 40.098 44.0193 39.2785C42.9002 38.5583 41.5604 36.787 41.127 35.5122C40.3704 33.2773 41.1743 30.7858 42.3485 28.824C43.042 27.6652 44.2163 26.4484 45.3354 25.5296L54.5638 17.9474L57.0462 16.5071L58.4648 15.9111L60.0803 15.0999L62.8544 13.8417L65.3841 12.7988L67.7562 11.1102C68.5522 10.5473 69.2851 10.092 69.8998 9.35535L71.8621 6.98798C73.0127 5.59736 76.3621 2.8244 77.7728 2.34431L79.3962 1.79799C80.8147 1.3179 82.2175 -0.0561643 81.6107 0.00177812L80.8463 0.084553L77.6939 0.45704C76.4488 0.606035 75.2194 0.672255 74.1397 1.45034L73.0679 1.63244L68.899 2.76646L64.7615 3.43694L62.3894 3.69354L57.5585 3.98325L53.7836 4.23985L50.4421 4.64545C48.992 4.81928 47.4001 5.15866 46.0052 5.68842L43.8616 6.50789L41.7259 7.41841C40.0316 8.14683 35.4055 12.1035 34.0185 14.0404L32.0483 16.7803C31.0002 18.2371 30.2278 19.9423 30.22 21.7054L29.8023 21.6557C29.8023 21.6557 29.7471 21.9537 29.7314 22.0696C29.6683 22.4089 28.9984 22.7897 28.6438 22.7152C27.7769 22.5331 27.1937 22.7566 26.3899 22.9222C23.5764 23.5016 22.2761 24.1886 19.9197 25.6454C19.2893 26.0345 18.7928 26.2994 18.2411 26.9285L16.531 28.882L14.8524 31.1831L13.7254 33.0704C13.3235 33.7491 13.0556 34.6348 12.827 35.4046L12.4251 36.8118L11.8419 40.7105C11.7079 41.621 11.9365 42.9371 11.1169 43.6573C9.54861 45.0313 7.75966 46.1654 6.54602 47.8705C6.16774 48.4003 5.89979 48.9383 5.38754 49.435C4.39456 50.4117 2.46376 55.3037 2.16429 57.4227L1.48654 62.232C1.10826 64.9304 2.20369 67.5544 2.98389 70.0294C3.30701 71.0558 2.83416 71.8173 2.55833 72.6616L1.48654 75.9312L0.800911 78.4807L0.564487 79.5733L0.0916386 83.9687C-0.239355 87.081 0.359586 91.5508 1.35257 94.5721L1.91999 96.2938C2.60562 98.3715 3.23608 100.11 4.53641 101.856L7.76754 106.177C8.66596 107.377 9.55649 108.313 10.6756 109.339C10.8647 110.341 10.7859 111.649 10.6283 112.725L10.7307 113.726C10.7307 115.158 10.9041 116.714 11.2036 118.295C12.3778 117.716 13.5599 117.36 14.7027 117.252C17.6422 116.963 20.5345 117.534 23.206 118.875C22.8356 118.246 22.5047 117.575 22.5519 116.863C22.5756 116.524 23.3558 116.019 23.6631 116.102C25.0502 116.499 24.5931 117.55 25.586 118.875C26.0274 119.471 26.1771 119.943 26.4608 120.605C26.5633 120.845 26.6972 121.077 26.8312 121.308C27.4617 121.846 28.0764 122.434 28.6596 123.072C29.4476 123.932 30.1727 124.868 30.8189 125.861C32.1902 127.219 33.6481 128.278 35.4686 128.99L39.0228 130.389C40.5517 130.985 41.9545 130.48 42.2303 131.581C42.3406 132.011 41.7969 133.145 41.3713 133.195C40.7802 133.261 39.8188 133.038 39.2277 132.822L35.3504 131.39C34.515 131.084 33.7663 130.695 33.0492 130.215C34.3968 133.634 35.1139 137.557 35.177 141.878L37.0053 142.184C37.3442 142.242 37.8722 142.747 38.022 142.995L39.7951 145.934C40.0473 146.356 40.2916 147.391 40.6857 147.796L43.0736 150.271L43.6252 150.768C45.556 148.45 47.1085 145.371 47.936 141.522L49.5437 134.056C49.9456 132.193 50.119 130.356 50.3003 128.411C50.3554 127.839 50.4106 127.268 50.4658 126.681C50.7652 123.775 54.154 121.896 56.463 121.482C57.8895 121.226 59.3395 121.143 60.766 121.209C60.6793 120.125 60.6793 118.974 60.766 118.155C61.0497 115.531 62.2712 113.933 62.3579 112.071C61.2703 112.071 60.6162 111.839 59.9148 111.392L58.5593 111.077L57.0147 110.241L55.3676 109.107C54.5559 108.553 53.8703 107.468 53.1058 106.715C52.8064 106.425 51.9789 106.07 51.7188 105.681L49.5989 102.502L49.063 101.078C48.8029 100.383 48.2197 99.7373 48.0227 99.2158L47.5341 97.5934L47.1007 95.971L46.6199 92.867C46.5411 92.3703 46.5411 91.3936 46.612 90.8307L47.1322 86.4685L47.605 84.1011L48.3143 82.4208C48.7635 81.9158 49.0945 81.3447 49.1339 80.7901C50.1742 79.8051 49.8038 78.7952 49.3467 77.7026C49.0472 76.9907 48.8975 76.3285 48.3537 75.6581C47.9124 75.1117 47.8099 74.4827 47.676 73.837L47.0691 70.7992C46.7381 69.1437 46.7539 67.3061 47.014 65.7085L47.6602 61.7353C47.936 60.0633 48.6138 58.4243 49.323 56.9592L50.9228 54.6498C51.9158 53.88 52.6487 53.0936 53.2162 52.0507L56.1793 49.8406L58.4017 48.6072C58.9297 48.3175 59.9148 47.8953 60.5689 47.7464L65.329 46.6868C66.1801 46.4965 67.6774 46.6041 68.5837 46.7696L71.3972 47.2828C71.87 47.3739 72.6502 47.4235 72.9418 47.1504C73.2649 46.8607 73.5486 46.0329 73.8008 45.6853L75.046 43.9635C75.8892 42.8047 77.3945 41.7452 78.6318 40.9423C79.8296 40.9423 80.334 39.6427 82.3909 39.2371L85.9057 38.5418C87.9548 38.4342 89.9407 38.8563 91.8715 39.6096L94.3461 40.8843L95.938 41.9687C97.5063 43.0447 100.107 46.6289 100.777 48.6734L101.399 50.5441C101.707 51.4795 101.904 52.2493 101.88 53.2509L101.817 55.5603C101.77 57.2158 101.809 58.5319 103.117 59.8563C103.488 60.5185 103.953 61.9009 104.158 62.6955L104.583 64.3427C104.686 64.7483 104.883 65.5016 104.859 65.8989L104.796 67.3806C104.757 68.3242 104.717 69.6734 104.394 70.5674L102.991 73.9281L101.888 75.4677C100.73 77.0901 98.98 78.3234 97.4038 79.474C96.269 79.118 96.2848 80.0948 94.5037 80.4176L93.2112 80.6494C92.037 80.8646 90.9573 80.7073 89.8067 80.4921L88.0257 80.1527C87.3322 80.7239 86.9302 81.3944 86.3786 82.1062C85.6851 83.0085 84.4478 84.1011 83.4785 84.4653C80.9093 85.4255 78.2535 86.0794 75.7631 85.2517L73.5014 84.4984L72.0592 83.621L70.6879 82.8512L67.8351 78.9939L67.3937 77.6115L66.976 76.2871C66.251 74.0026 66.7554 70.0459 67.6696 70.137C68.2449 70.1949 69.3403 71.0144 69.3797 71.6269C68.8044 72.6202 68.7256 73.4563 69.1117 74.5323L69.4427 76.2706C69.5846 77.0156 69.821 77.6115 70.1914 78.3234L70.3806 79.2919C70.4357 79.565 71.1686 79.6809 71.3657 79.8879C71.9331 80.4838 72.666 81.4109 73.3595 81.8082C75.5898 83.0995 77.5915 83.4886 79.9557 82.7519L81.3506 82.4787C82.6194 82.2304 84.96 80.3845 85.6457 79.2422C86.0634 78.5469 86.5362 77.1232 87.6632 77.4791C88.9477 77.893 90.2638 78.2241 91.6745 78.1248C93.1876 78.0171 94.748 77.9923 96.1035 77.1066C97.1595 76.4196 98.7751 76.2623 99.8311 74.582L100.824 73.0093C101.533 71.8918 102.038 70.3108 102.314 69.0195C102.7 67.2316 102.511 65.5347 102.006 63.8709L101.076 60.8082C100.785 59.8398 99.043 59.0534 99.3189 57.1661C99.6026 55.2209 99.7681 53.3254 99.2007 51.4298L98.6648 49.6419L97.727 47.4815C97.1753 46.2067 94.6534 43.6821 93.3531 43.0861C92.5335 42.7136 91.5563 41.7783 90.7446 41.621L88.2463 41.1326L86.1579 41.025L83.5494 41.1906L82.0914 41.9935C81.3743 41.919 80.6886 42.2335 80.2079 42.8295C78.6948 42.7716 78.0171 43.9635 77.2999 45.0065C76.7088 45.8674 75.9759 46.6041 75.4952 47.6222C74.9751 48.7148 74.5022 50.0144 73.1782 50.2544L71.1213 49.7661L69.1354 49.377L66.9524 49.1866C66.0934 49.1121 65.3368 49.0294 64.4542 49.286L60.2774 50.5028L58.449 51.3057C57.0935 51.9017 55.8011 53.0522 54.8317 54.2276L53.5708 55.7507L52.3256 57.2075C51.4666 58.7554 50.7101 60.2288 50.1584 61.876C49.9377 62.5382 49.9299 63.515 49.394 64.0282L49.4964 64.9139C49.5201 65.9899 49.1654 67.3475 49.2758 68.3821L49.6067 71.2793C49.654 71.718 49.8195 72.6202 49.9535 73.0258L50.6076 74.9959L51.7109 76.9328L52.3493 78.6876C52.3729 79.2174 52.1838 80.3431 51.9946 80.8398C50.119 83.1244 49.4334 85.7732 49.1181 88.6786C48.9132 90.541 48.8108 92.2379 49.1654 94.0755C49.3703 95.1267 49.4728 96.4263 49.8511 97.3865L50.7258 99.6131L51.64 101.898C51.9237 102.601 52.8773 103.851 53.4526 104.323L54.9972 105.598L56.5419 106.872L58.1259 107.957L59.8912 109.066C60.3325 109.347 60.9236 109.463 61.4752 109.397C62.9174 110.2 64.5488 110.589 66.2747 110.473L70.68 110.183C72.9339 110.034 77.2053 107.551 79.3174 105.573C79.5775 105.333 80.2 104.902 80.5153 104.936C80.8699 104.969 81.39 105.267 81.8235 105.565L83.2342 106.541L88.1518 108.429C88.9477 108.735 89.8777 108.735 90.7288 108.925C94.0703 109.662 97.4038 109.331 100.737 108.611C102.377 108.255 103.787 107.7 105.285 106.922L107.877 105.581L112.519 101.757L114.245 99.5552C115.293 98.2142 116.499 96.625 117.137 95.0439L117.303 94.6383C116.152 90.3589 116.775 85.4172 118.54 81.4358C118.8 80.8563 119.202 80.1693 119.714 79.4988L119.092 75.5008C119.612 75.1283 120.636 74.6482 121.417 74.4578L124.821 73.6301L128.155 72.1319C129.55 71.5028 130.787 70.8902 131.985 69.839L134.444 67.6703L137.226 64.5414L138.061 63.2749C135.177 62.0085 132.544 60.3447 130.432 58.3747C129.037 57.0751 127.595 55.163 126.019 52.539C124.246 49.5757 123.418 45.7846 123.702 41.8611C123.97 38.07 125.657 34.8004 128.565 32.3916C130.44 30.8437 132.757 29.7345 135.263 29.1137L135.224 29.1303ZM25.9407 70.5591C24.3409 72.1484 23.0248 74.5323 22.8829 76.6514L22.6938 79.474C22.6307 80.4176 23.009 81.7669 23.3085 82.7767C24.3015 86.187 27.9424 87.4369 27.2568 89.8291C25.9801 94.299 26.8785 99.4393 28.3286 103.859C28.6753 104.919 29.1876 105.937 29.8811 106.872L32.0247 109.786C35.508 114.521 39.7636 116.408 45.1462 117.766C45.4063 117.832 45.7215 117.931 45.8791 118.014C46.0052 118.08 45.6742 119.33 45.2329 119.636C45.091 119.736 44.7128 119.703 44.4921 119.669L42.9475 119.471C41.8126 119.322 40.9694 118.767 39.9528 118.304C38.3845 117.584 36.9187 116.979 35.5553 115.945L34.4362 115.092C31.5045 112.865 29.5501 110.109 27.6823 106.922C26.1456 104.306 25.3811 101.525 24.9319 98.5122C24.6482 96.6001 24.4985 94.895 24.7822 92.9249L25.3102 89.2166L24.2936 87.8591C23.4504 86.7416 22.2525 85.6821 21.8269 84.3991L21.1728 82.429L20.7472 80.757C20.3059 79.0353 20.5266 76.5189 21.0467 74.9048C21.819 72.5043 23.939 68.7464 25.4048 69.4665C25.6491 69.5907 26.0037 70.2694 25.9486 70.5591H25.9407ZM29.1245 37.3167C29.6525 38.1362 29.4634 39.0467 28.8014 39.4771C27.5326 40.3049 27.0046 41.4472 26.4293 42.7881C25.7752 44.3029 25.3969 45.768 25.586 47.5229C25.6885 48.4582 25.6176 49.6171 26.0195 50.66C26.6972 52.4562 28.0291 54.5008 29.6447 55.6265C30.9214 56.5205 32.5054 56.8764 33.9633 57.2572C35.4449 57.6462 36.9896 57.0916 38.3766 56.4957L40.7566 55.4775L42.2934 56.2639C41.4974 57.8615 39.8582 58.5154 38.2663 58.9458C34.7751 59.8894 31.3784 59.3597 28.3207 57.1827C26.6342 55.7507 25.1841 53.7475 24.1045 51.7196L23.7656 50.0972C23.6553 49.5674 23.3558 48.8307 23.0878 48.2513L23.6553 43.4586L24.6404 41.7948L26.1141 39.4026L27.4302 37.4657L29.1482 37.3084L29.1245 37.3167ZM117.177 37.3002C117.429 37.714 117.933 38.1362 118.327 38.4259C118.65 39.055 119.265 40.1476 119.446 40.7684L119.959 42.5067L120.416 44.3112C120.889 46.1736 120.345 47.9616 120.203 49.8819C119.982 52.8618 118.8 54.1449 118.895 54.4594C118.895 54.4511 118.706 54.418 118.438 54.3766L118.115 56.0321L115.616 58.416C114.923 59.0782 113.977 59.459 113.213 58.6395L114.292 57.3648L116.176 54.9726C116.83 54.1449 117.484 52.5804 117.776 51.5457L118.241 49.8985C118.792 47.945 118.745 45.8922 118.178 43.8559C117.776 42.4157 117.374 40.578 116.523 39.3199C115.443 37.7306 111.92 34.6183 110.336 34.1547L107.412 33.3104C105.545 32.7724 103.582 33.8733 102.243 32.0688L99.8784 28.882C99.311 28.6916 98.8381 28.3522 98.2628 27.9714L96.8364 27.0361C94.4013 25.4468 91.3671 25.5544 88.6719 26.5063L85.6614 27.5741L84.9916 26.5146C87.5371 23.2615 94.7086 22.9967 97.853 25.0909L99.2558 26.0262L101.147 27.3837C102.306 28.2115 103.125 29.9166 104.142 30.9762C105.821 30.943 107.271 31.0672 108.792 31.5225L111.211 32.2426C113.079 32.7972 114.734 33.6167 115.719 35.5288C116.601 35.6529 117.185 36.282 117.193 37.3084L117.177 37.3002Z" fill="#55FF00"/>
<path d="M21.6615 136.175L19.5337 134.354L19.25 134.056C19.4628 134.014 19.7386 134.006 20.0854 134.056C22.0713 134.304 23.3244 136.233 24.0731 137.996L23.813 137.863C23.017 137.458 22.355 136.779 21.6536 136.183L21.6615 136.175Z" fill="#55FF00"/>
<path d="M26.3823 125.349C30.7247 130.083 31.8674 136.465 32.0092 141.274C31.1817 141.043 30.4173 140.679 29.6371 140.414L27.99 139.867C26.8 134.611 23.9944 131.201 20.4717 130.754C19.0768 130.58 17.8789 130.87 16.9648 131.557L15.5777 129.86C15.3098 129.529 15.2073 128.982 15.1049 128.461C14.9946 127.906 14.0883 127.087 13.8124 126.499C13.111 124.993 12.4727 123.279 11.9604 121.508C12.8983 120.978 13.8991 120.614 14.9709 120.515C19.1083 120.109 23.1591 121.822 26.3744 125.34L26.3823 125.349Z" fill="#55FF00"/>
</svg>
