<svg width="533" height="280" viewBox="0 0 533 280" fill="none" xmlns="http://www.w3.org/2000/svg">
<path d="M390.477 226.503C391.899 228.518 391.98 231.548 390.233 233.085C387.202 235.756 379.286 229.986 376.166 225.675L372.809 220.835C368.169 220.528 363.935 221.083 358.88 221.493C361.399 216.849 365.682 214.007 370.241 212.12C371.062 205.104 377.401 199.444 384.26 198.198C391.135 196.952 397.905 197.874 404.886 198.608C406.601 198.625 408.519 196.38 409.234 194.767C411.924 188.697 411.737 180.435 406.666 176.32C402.489 174.272 398.116 173.529 393.541 173.179C383.455 172.419 373.565 174.613 364.82 180.093C352.931 187.545 348.753 201.544 352.947 215.33C356.523 227.084 365.235 238.659 375.507 244.48C378.669 246.273 381.895 247.408 385.503 248.04C393.411 249.422 403.106 245.402 403.773 236.149C404.016 232.794 403.423 229.167 401.627 226.179C400.473 224.258 398.986 222.039 397.377 220.528C388.909 212.632 372.135 209.79 363.203 218.616C363.829 219.026 364.26 218.864 365.064 218.736C373.28 217.43 385.763 219.803 390.493 226.503H390.477Z" fill="#55FF00"/>
<path d="M507.358 121.775C514.428 127.75 519.678 143.883 511.982 142.91C508.536 142.474 506.472 138.633 505.611 134.801C503.839 126.922 504.814 119.026 507.943 111.147C501.019 115.415 498.199 124.54 498.248 132.837C498.288 139.623 499.979 146.41 504.522 151.369C508.024 155.202 512.681 157.336 517.606 156.858C523.612 156.269 528.09 149.44 529.195 143.004C530.576 134.954 528.439 127.05 524.717 119.846C519.76 110.243 512.38 102.347 502.986 97.7801C491.072 91.9927 478.507 95.2619 469.885 105.59C461.27 115.919 457.061 129.449 457.735 143.098C458.109 150.703 467.138 153.802 474.42 152.513C476.248 152.188 479.044 150.678 479.255 148.654C479.531 145.932 479.678 143.448 480.238 140.853L481.896 133.153C483.863 124.011 491.031 115.825 499.841 116.969C502.693 112.624 506.383 109.03 511.381 107.46L507.943 118.548C507.651 119.479 507.537 120.759 507.374 121.775H507.358Z" fill="#55FF00"/>
<path d="M389.192 231.771C388.932 232.01 388.453 232.104 387.827 232.027C387.274 231.959 386.657 231.779 386.007 231.506C385.925 229.364 386.112 226.999 386.454 224.797C387.543 225.599 388.469 226.504 389.176 227.511C390.168 228.911 390.176 230.9 389.201 231.762L389.192 231.771Z" fill="#55FF00"/>
<path d="M400.237 227.086C401.7 229.527 402.375 232.694 402.139 236.014C401.928 238.985 400.652 241.452 398.36 243.347C396.442 244.926 393.874 245.976 391.151 246.386L390.339 245.293L387.876 240.76C387.267 239.634 387.007 238.456 386.755 237.209L386.47 235.801L386.389 235.195C386.755 235.289 387.12 235.366 387.47 235.408C389.404 235.639 390.615 234.973 391.289 234.375C393.597 232.344 393.817 228.349 391.793 225.472C390.664 223.868 389.111 222.485 387.299 221.324L387.909 219.668L389.128 217.133C391.68 218.242 394.126 219.779 396.287 221.793C397.498 222.92 398.791 224.644 400.245 227.077L400.237 227.086Z" fill="#55FF00"/>
<path d="M393.207 207.539C392.077 208.324 391.183 209.323 390.614 210.569C389.582 211.252 388.745 212.165 388.355 213.326C385.86 212.447 383.227 211.849 380.586 211.602C379.099 211.465 377.652 211.44 376.246 211.517L375.832 210.501L374.889 207.027L374.694 205.789C377.043 202.827 380.586 200.591 384.536 199.873C385.998 199.609 387.453 199.447 388.916 199.361C389.062 199.515 389.217 199.66 389.387 199.797C389.972 201.265 391.013 202.17 392.24 202.946L393.727 203.885L395.824 205.029C395.109 205.951 394.19 206.771 393.207 207.53V207.539Z" fill="#55FF00"/>
<path d="M405.235 200.819L403.358 201.229L401.188 202.108C400.147 202.526 399.002 203.277 397.945 203.132C395.694 202.816 394.158 201.519 392.557 200.136C392.232 199.854 391.955 199.573 391.712 199.291C395.369 199.291 399.058 199.692 402.886 200.102L404.885 200.307C405.649 200.307 406.381 200.076 407.055 199.692L407.072 199.906C406.779 200.375 405.852 200.691 405.243 200.819H405.235Z" fill="#55FF00"/>
<path d="M404.959 196.893L403.211 196.705C398.815 196.235 394.321 195.757 389.778 195.92C389.566 195.493 389.379 195.066 389.29 194.614L388.534 190.755C388.201 189.057 388.835 187.273 389.412 185.642L388.364 184.328C386.868 184.541 386.641 186.189 386.299 187.461C386.153 187.99 385.804 188.451 385.885 189.065L386.584 194.264C386.673 194.947 386.803 195.51 387.275 196.082C386.177 196.184 385.088 196.312 383.991 196.509C380.334 197.174 377.002 198.89 374.377 201.255C374.467 198.737 374.922 195.937 375.686 194.323L378.481 188.434L379.83 186.82L382.927 183.491C383.309 182.373 382.065 181.434 381.821 180.632L381.163 178.489L380.505 175.638C384.674 174.802 389.014 174.529 393.427 174.87C394.654 174.964 395.783 175.083 396.856 175.228L396.881 175.416L397.303 177.251L401.082 182.279L402.074 183.056L403.61 184.388C404.422 185.096 408.201 185.25 407.681 186.692C407.421 187.401 407.421 187.99 407.421 188.638L406.763 192.539L406.795 195.536C406.17 196.278 405.438 196.85 404.959 196.884V196.893Z" fill="#55FF00"/>
<path d="M377.733 214.971L377.709 214.912C380.602 214.843 383.625 215.245 386.567 216.175C386.079 217.165 385.73 218.215 385.356 219.308L385.096 220.076C383.503 219.282 381.772 218.633 379.976 218.113C379.115 217.182 378.196 216.038 377.733 214.971Z" fill="#55FF00"/>
<path d="M408.827 182.784C408.542 183.227 408.177 183.509 407.502 183.355C406.495 183.125 405.389 182.784 404.463 182.186L402.862 181.153C401.602 179.933 400.351 178.507 399.79 176.851L399.392 175.682C401.797 176.168 403.87 176.851 405.82 177.79C407.34 179.079 408.307 180.829 408.835 182.784H408.827Z" fill="#55FF00"/>
<path d="M459.506 144.158C461.213 144.687 462.806 145.643 464.122 147.018C464.764 147.684 465.415 147.53 466.723 150.535C464.878 150.048 463.228 149.254 461.985 148.204C460.652 147.086 459.831 145.72 459.506 144.158Z" fill="#55FF00"/>
<path d="M478.645 140.486C478.19 142.62 478.003 144.617 477.8 146.734C477.743 147.306 477.694 147.895 477.629 148.484C477.54 149.329 475.711 150.567 474.135 150.849C472.599 151.122 471.006 151.173 469.47 151.028L469.096 149.978C468.267 147.673 466.374 145.65 464.651 143.969C464.366 143.721 463.643 143.209 463.293 143.064L459.97 141.698C459.75 141.604 459.523 141.553 459.303 141.485C459.1 132.368 461.099 123.593 465.065 115.877C465.471 115.817 465.878 115.757 466.284 115.723C472.94 115.185 480.336 117.43 485.48 121.835C482.944 124.968 481.14 128.868 480.295 132.786L478.637 140.486H478.645Z" fill="#55FF00"/>
<path d="M456.052 141.223L454.052 141.316C453.248 141.359 452.565 141.538 451.777 141.888L449.956 142.699C449.526 142.896 448.502 143.314 448.128 143.041L446.104 140.907C445.04 140.608 444.284 140.198 443.366 139.703C442.13 139.037 440.781 138.815 439.513 138.431C437.888 137.945 436.198 137.808 434.507 137.979L432.118 138.209L429.981 138.781L428.485 139.311C427.778 139.558 426.567 140.096 425.958 140.599L421.691 144.133C421.317 144.441 420.7 145.2 420.505 145.619C419.846 147.019 418.96 147.659 418.042 150.032L417.311 151.935L416.831 155.111C416.652 156.297 416.782 157.706 417.498 158.679C417.66 158.901 418.318 158.96 418.522 158.79C418.725 158.61 418.96 158.056 418.977 157.774L419.131 155.409C419.351 152.055 420.903 148.743 423.081 146.225C427.437 141.197 432.744 139.78 439.05 140.642C439.782 140.745 440.131 140.796 440.822 141.291L442.699 142.016L444.26 142.93L445.73 143.783C447.128 145.559 448.477 146.737 450.192 145.584C452.045 144.338 454.109 143.724 456.149 143.689C456.409 146.515 457.71 148.99 459.944 150.877C461.984 152.592 464.764 153.753 467.787 154.248L467.836 156.178C467.884 158.098 467.397 159.763 466.438 161.453C466.243 161.803 466.007 162.716 465.658 162.861C465.308 163.006 464.715 163.006 464.244 163.015L462.366 163.032C459.66 163.408 457.238 164.082 454.678 165.021C453.849 165.328 452.923 165.968 452.167 166.523L449.794 168.256L445.698 166.412L442.642 165.482L441.391 165.038C440.814 164.833 440.269 164.714 439.66 164.654L437.774 164.449C435.661 164.219 433.711 164.099 431.622 164.517C430.533 164.739 429.306 164.756 428.217 165.14L424.747 166.378C421.317 167.599 418.538 170.177 415.653 172.447C414.905 173.036 414.458 173.711 413.873 174.419L412.093 176.562L411.281 178.004L410.817 178.917C410.045 177.424 409.005 176.084 407.648 174.974L407.339 174.777C404.462 173.369 401.52 172.575 398.789 172.106C398.757 170.023 399.18 167.915 400.179 166.182C400.586 165.482 402.097 163.86 401.163 162.938C400.967 162.742 400.415 162.844 400.09 162.964C398.952 163.391 398.635 164.236 398.042 165.132C397.327 166.224 396.863 167.095 396.904 168.418C396.693 168.982 396.376 169.869 396.376 170.51V171.747C395.417 171.628 394.49 171.542 393.629 171.483C389.005 171.133 384.454 171.406 380.073 172.268C379.992 170.62 380.203 168.965 380.577 167.343L381.317 164.073C381.642 162.622 381.983 161.41 382.755 160.172L385.006 156.579C388.533 151.406 393.58 147.923 399.659 147.061C400.098 147.001 401.114 146.506 401.244 146.062C401.691 143.741 402.463 141.521 403.438 139.413L404.551 136.997L405.779 134.641L407.266 132.618L408.452 131.09C409.168 130.168 409.858 129.05 410.728 128.239C412.296 126.78 413.865 125.371 415.637 124.159L417.912 122.597C418.936 121.897 420.123 121.274 421.26 120.822L423.763 119.831C426.047 118.927 428.298 118.286 430.728 117.979L434.312 117.527L436.124 117.467C441.009 117.714 445.779 118.44 450.363 120.352C452.931 121.428 452.264 120.463 455.125 119.021L457.002 118.073C457.791 117.672 458.668 117.194 459.562 117.006C460.042 116.904 460.53 116.793 461.009 116.682C457.596 124.219 455.873 132.584 456.019 141.24L456.052 141.223Z" fill="#55FF00"/>
<path d="M393.443 249.423C395.158 251.36 397.295 252.666 399.498 254.109L401.286 255.278C401.781 255.603 402.342 255.5 402.887 255.731L405.43 256.798L409.088 257.31C410.494 257.506 411.038 259.136 411.355 260.331L411.81 262.073L412.615 264.045C413.338 265.803 414.573 267.664 415.971 268.833L418.442 270.899C421.766 273.682 427.105 275.415 431.485 274.595L436.093 273.733L437.572 273.067L440.717 271.386C442.4 270.489 444.553 267.553 445.35 265.393C445.756 264.779 447.081 263.908 447.772 263.942L450.657 264.087L454.948 264.19L460.059 263.285C460.97 263.123 462.059 262.611 462.863 262.175L464.757 261.151C465.366 260.827 466.626 260.246 467.097 259.777L470.064 256.815C470.592 256.285 471.201 255.201 471.575 254.553L472.51 252.956L473.55 251.241L474.534 249.192L476.76 244.736C477.939 242.372 480.556 239.589 482.66 238.821C484.018 238.326 486.187 238.112 487.496 238.957C488.65 239.7 490.032 241.527 490.479 242.841C491.259 245.146 490.43 247.715 489.219 249.738C488.504 250.933 487.293 252.188 486.139 253.136L476.622 260.955L474.062 262.44L472.599 263.054L470.933 263.891L468.073 265.188L465.464 266.264L463.018 268.005C462.197 268.586 461.441 269.055 460.807 269.815L458.784 272.256C457.597 273.69 454.143 276.55 452.688 277.045L451.014 277.608C449.551 278.103 448.105 279.52 448.731 279.461L449.519 279.375L452.77 278.991C454.054 278.837 455.322 278.769 456.435 277.967L457.54 277.779L461.839 276.61L466.106 275.918L468.552 275.654L473.534 275.355L477.427 275.09L480.872 274.672C482.368 274.493 484.009 274.143 485.448 273.596L487.658 272.751L489.861 271.812C491.608 271.061 496.379 266.981 497.809 264.984L499.841 262.158C500.922 260.656 501.718 258.897 501.726 257.079L502.157 257.13C502.157 257.13 502.214 256.823 502.23 256.704C502.295 256.354 502.986 255.961 503.352 256.038C504.245 256.226 504.847 255.995 505.676 255.824C508.577 255.227 509.918 254.519 512.348 253.016C512.998 252.615 513.51 252.342 514.079 251.693L515.843 249.679L517.574 247.306L518.736 245.359C519.15 244.659 519.427 243.746 519.662 242.952L520.077 241.501L520.678 237.481C520.816 236.542 520.581 235.185 521.426 234.442C523.043 233.025 524.888 231.855 526.139 230.097C526.529 229.551 526.806 228.996 527.334 228.484C528.358 227.477 530.349 222.432 530.658 220.247L531.357 215.287C531.747 212.504 530.617 209.799 529.813 207.246C529.48 206.188 529.967 205.402 530.252 204.532L531.357 201.16L532.064 198.531L532.308 197.404L532.795 192.872C533.137 189.662 532.519 185.053 531.495 181.937L530.91 180.162C530.203 178.019 529.553 176.227 528.212 174.425L524.88 169.97C523.953 168.732 523.035 167.767 521.881 166.709C521.686 165.676 521.767 164.327 521.93 163.218L521.824 162.185C521.824 160.708 521.645 159.103 521.336 157.473C520.125 158.07 518.906 158.438 517.728 158.549C514.697 158.847 511.714 158.258 508.959 156.875C509.341 157.524 509.682 158.216 509.634 158.95C509.609 159.3 508.805 159.82 508.488 159.735C507.057 159.325 507.529 158.241 506.505 156.875C506.05 156.261 505.895 155.774 505.603 155.091C505.497 154.844 505.359 154.605 505.221 154.366C504.571 153.811 503.937 153.205 503.335 152.548C502.523 151.66 501.775 150.695 501.108 149.671C499.694 148.271 498.191 147.179 496.314 146.444L492.648 145.002C491.072 144.387 489.625 144.908 489.341 143.773C489.227 143.329 489.788 142.159 490.227 142.108C490.836 142.04 491.828 142.27 492.437 142.492L496.436 143.969C497.297 144.285 498.069 144.686 498.809 145.181C497.419 141.656 496.679 137.61 496.614 133.154L494.729 132.838C494.379 132.778 493.835 132.258 493.681 132.002L491.852 128.971C491.592 128.536 491.34 127.469 490.934 127.051L488.471 124.498L487.902 123.986C485.911 126.376 484.31 129.552 483.457 133.521L481.799 141.22C481.384 143.141 481.206 145.036 481.019 147.042C480.962 147.631 480.905 148.22 480.848 148.826C480.539 151.822 477.045 153.76 474.664 154.187C473.193 154.451 471.697 154.537 470.226 154.468C470.316 155.587 470.316 156.773 470.226 157.618C469.934 160.324 468.674 161.971 468.585 163.892C469.706 163.892 470.381 164.131 471.104 164.592L472.502 164.916L474.095 165.778L475.793 166.948C476.63 167.52 477.337 168.638 478.126 169.415C478.434 169.714 479.288 170.081 479.556 170.482L481.742 173.76L482.295 175.228C482.563 175.945 483.164 176.611 483.367 177.148L483.871 178.821L484.318 180.495L484.814 183.695C484.895 184.208 484.895 185.215 484.822 185.795L484.286 190.294L483.798 192.735L483.067 194.468C482.604 194.989 482.262 195.578 482.222 196.149C481.149 197.165 481.531 198.207 482.002 199.333C482.311 200.067 482.465 200.75 483.026 201.442C483.481 202.005 483.587 202.654 483.725 203.32L484.351 206.452C484.692 208.16 484.676 210.055 484.408 211.702L483.741 215.799C483.457 217.524 482.758 219.214 482.027 220.725L480.377 223.106C479.353 223.9 478.597 224.711 478.012 225.786L474.956 228.066L472.664 229.337C472.12 229.636 471.104 230.071 470.429 230.225L465.521 231.318C464.643 231.514 463.099 231.403 462.164 231.232L459.263 230.703C458.775 230.609 457.971 230.558 457.67 230.84C457.337 231.138 457.044 231.992 456.784 232.351L455.5 234.126C454.631 235.321 453.078 236.414 451.803 237.242C450.567 237.242 450.047 238.582 447.926 239L444.301 239.717C442.188 239.828 440.14 239.393 438.149 238.616L435.598 237.301L433.956 236.183C432.339 235.074 429.657 231.377 428.966 229.269L428.324 227.34C428.007 226.375 427.804 225.582 427.828 224.549L427.893 222.167C427.942 220.46 427.901 219.103 426.552 217.737C426.17 217.054 425.691 215.629 425.48 214.809L425.041 213.11C424.935 212.692 424.732 211.915 424.756 211.506L424.821 209.978C424.862 209.005 424.903 207.613 425.236 206.691L426.682 203.226L427.82 201.638C429.015 199.965 430.819 198.693 432.444 197.507C433.615 197.874 433.598 196.867 435.435 196.534L436.768 196.295C437.979 196.073 439.092 196.235 440.279 196.457L442.115 196.807C442.83 196.218 443.245 195.526 443.814 194.792C444.529 193.862 445.805 192.735 446.805 192.36C449.454 191.369 452.193 190.695 454.761 191.549L457.093 192.325L458.58 193.23L459.994 194.024L462.936 198.002L463.392 199.427L463.822 200.793C464.57 203.149 464.05 207.229 463.107 207.135C462.514 207.076 461.384 206.23 461.344 205.599C461.937 204.574 462.018 203.712 461.62 202.603L461.279 200.81C461.132 200.042 460.888 199.427 460.506 198.693L460.311 197.694C460.255 197.413 459.499 197.293 459.296 197.08C458.71 196.465 457.955 195.509 457.239 195.1C454.94 193.768 452.875 193.367 450.437 194.126L448.999 194.408C447.69 194.664 445.277 196.568 444.57 197.746C444.139 198.463 443.651 199.931 442.489 199.564C441.164 199.137 439.807 198.796 438.353 198.898C436.792 199.009 435.183 199.035 433.785 199.948C432.696 200.656 431.03 200.819 429.941 202.551L428.917 204.173C428.186 205.326 427.666 206.956 427.381 208.288C426.983 210.131 427.178 211.881 427.698 213.597L428.657 216.755C428.958 217.754 430.754 218.565 430.469 220.511C430.177 222.517 430.006 224.472 430.591 226.427L431.144 228.27L432.111 230.498C432.68 231.813 435.281 234.416 436.622 235.031C437.467 235.415 438.474 236.38 439.312 236.542L441.888 237.045L444.041 237.156L446.731 236.986L448.235 236.158C448.974 236.234 449.681 235.91 450.177 235.295C451.738 235.355 452.436 234.126 453.176 233.051C453.786 232.163 454.541 231.403 455.037 230.353C455.573 229.226 456.061 227.886 457.426 227.639L459.548 228.142L461.595 228.544L463.847 228.74C464.732 228.817 465.513 228.902 466.423 228.637L470.73 227.383L472.616 226.555C474.013 225.94 475.346 224.754 476.346 223.541L477.646 221.971L478.93 220.468C479.816 218.872 480.596 217.353 481.165 215.654C481.393 214.971 481.401 213.964 481.953 213.435L481.848 212.521C481.823 211.412 482.189 210.012 482.075 208.945L481.734 205.957C481.685 205.505 481.515 204.574 481.376 204.156L480.702 202.125L479.564 200.127L478.906 198.318C478.881 197.771 479.076 196.61 479.271 196.098C481.206 193.742 481.913 191.011 482.238 188.015C482.449 186.094 482.555 184.344 482.189 182.449C481.978 181.365 481.872 180.025 481.482 179.035L480.58 176.739L479.637 174.383C479.345 173.657 478.361 172.368 477.768 171.882L476.175 170.567L474.582 169.253L472.949 168.134L471.128 166.991C470.673 166.7 470.064 166.581 469.495 166.649C468.008 165.821 466.325 165.42 464.546 165.539L460.003 165.838C457.678 165.992 453.274 168.553 451.096 170.593C450.827 170.84 450.185 171.284 449.86 171.25C449.495 171.216 448.958 170.909 448.511 170.601L447.056 169.594L441.985 167.648C441.164 167.332 440.205 167.332 439.328 167.136C435.882 166.376 432.444 166.717 429.007 167.46C427.316 167.827 425.861 168.399 424.317 169.201L421.644 170.584L416.857 174.528L415.077 176.798C413.996 178.181 412.753 179.82 412.095 181.451L411.924 181.869C413.11 186.282 412.468 191.378 410.648 195.484C410.38 196.081 409.965 196.79 409.437 197.481L410.079 201.604C409.543 201.988 408.486 202.483 407.682 202.68L404.171 203.533L400.733 205.078C399.295 205.727 398.019 206.359 396.783 207.443L394.248 209.679L391.379 212.906L390.518 214.212C393.492 215.518 396.206 217.233 398.384 219.265C399.823 220.605 401.31 222.577 402.935 225.283C404.764 228.339 405.617 232.248 405.325 236.294C405.048 240.204 403.309 243.575 400.31 246.059C398.376 247.656 395.987 248.799 393.403 249.44L393.443 249.423ZM506.147 206.7C507.797 205.061 509.154 202.603 509.3 200.417L509.495 197.507C509.56 196.534 509.17 195.142 508.862 194.101C507.838 190.584 504.083 189.295 504.79 186.828C506.107 182.219 505.18 176.918 503.685 172.36C503.327 171.267 502.799 170.217 502.084 169.253L499.873 166.248C496.281 161.365 491.893 159.419 486.342 158.019C486.074 157.951 485.749 157.849 485.586 157.763C485.456 157.695 485.797 156.406 486.253 156.09C486.399 155.988 486.789 156.022 487.016 156.056L488.609 156.261C489.78 156.415 490.649 156.986 491.698 157.464C493.315 158.207 494.826 158.83 496.232 159.897L497.386 160.776C500.41 163.073 502.425 165.915 504.351 169.201C505.936 171.899 506.724 174.767 507.187 177.874C507.48 179.846 507.634 181.604 507.342 183.636L506.797 187.46L507.846 188.86C508.715 190.012 509.951 191.105 510.389 192.428L511.064 194.459L511.503 196.184C511.958 197.959 511.73 200.554 511.194 202.219C510.398 204.694 508.211 208.569 506.7 207.827C506.448 207.699 506.082 206.999 506.139 206.7H506.147ZM502.864 240.972C502.319 240.127 502.514 239.188 503.197 238.744C504.506 237.89 505.05 236.712 505.643 235.33C506.318 233.768 506.708 232.257 506.513 230.447C506.407 229.482 506.48 228.287 506.066 227.212C505.367 225.36 503.994 223.251 502.328 222.09C501.011 221.168 499.377 220.801 497.874 220.409C496.346 220.008 494.753 220.579 493.323 221.194L490.869 222.244L489.284 221.433C490.105 219.786 491.795 219.111 493.437 218.667C497.037 217.694 500.54 218.241 503.693 220.486C505.432 221.962 506.927 224.028 508.041 226.119L508.39 227.792C508.504 228.339 508.813 229.098 509.089 229.696L508.504 234.638L507.488 236.354L505.968 238.821L504.611 240.818L502.84 240.98L502.864 240.972ZM412.062 240.989C411.802 240.562 411.282 240.127 410.875 239.828C410.542 239.179 409.908 238.053 409.721 237.412L409.193 235.62L408.722 233.759C408.234 231.838 408.795 229.995 408.941 228.014C409.169 224.941 410.388 223.618 410.29 223.294C410.29 223.302 410.485 223.337 410.762 223.379L411.095 221.672L413.671 219.214C414.386 218.531 415.362 218.138 416.15 218.983L415.036 220.298L413.094 222.765C412.42 223.618 411.745 225.232 411.444 226.299L410.965 227.997C410.396 230.012 410.445 232.129 411.03 234.228C411.444 235.714 411.859 237.609 412.737 238.906C413.85 240.545 417.483 243.755 419.116 244.233L422.131 245.103C424.057 245.658 426.081 244.523 427.462 246.384L429.901 249.67C430.486 249.866 430.973 250.216 431.567 250.609L433.038 251.574C435.549 253.212 438.678 253.102 441.457 252.12L444.561 251.019L445.252 252.111C442.627 255.466 435.232 255.739 431.989 253.58L430.543 252.615L428.592 251.215C427.397 250.361 426.552 248.603 425.504 247.51C423.773 247.545 422.278 247.417 420.709 246.947L418.214 246.204C416.288 245.633 414.581 244.787 413.565 242.816C412.655 242.688 412.054 242.039 412.046 240.98L412.062 240.989Z" fill="#55FF00"/>
<path d="M510.56 139.028L512.754 140.906L513.046 141.214C512.827 141.256 512.543 141.265 512.185 141.214C510.137 140.957 508.845 138.969 508.073 137.15L508.341 137.287C509.162 137.705 509.844 138.405 510.568 139.02L510.56 139.028Z" fill="#55FF00"/>
<path d="M505.691 150.193C501.213 145.31 500.035 138.729 499.889 133.77C500.742 134.009 501.53 134.384 502.335 134.657L504.033 135.221C505.261 140.641 508.154 144.158 511.786 144.619C513.225 144.798 514.46 144.499 515.403 143.791L516.833 145.541C517.11 145.882 517.215 146.445 517.321 146.983C517.435 147.555 518.369 148.4 518.654 149.006C519.377 150.56 520.035 152.327 520.564 154.153C519.596 154.7 518.564 155.075 517.459 155.178C513.192 155.596 509.015 153.829 505.699 150.201L505.691 150.193Z" fill="#55FF00"/>
<path d="M142.413 52.9505C140.991 50.936 140.909 47.9057 142.657 46.3693C145.688 43.6975 153.603 49.4678 156.724 53.7785L160.081 58.6184C164.721 58.9257 168.955 58.3708 174.01 57.9611C171.491 62.6047 167.208 65.4472 162.649 67.3336C161.828 74.3502 155.489 80.0095 148.63 81.2558C141.754 82.502 134.985 81.5802 128.004 80.8461C126.289 80.829 124.371 83.0739 123.656 84.6872C120.966 90.7563 121.153 99.0192 126.224 103.133C130.401 105.182 134.773 105.925 139.349 106.275C149.434 107.034 159.325 104.841 168.069 99.3606C179.959 91.9087 184.136 77.9097 179.943 64.1241C176.367 52.37 167.655 40.7953 157.382 34.9737C154.221 33.1812 150.995 32.0459 147.386 31.4142C139.479 30.0314 129.783 34.0518 129.117 43.3048C128.873 46.6595 129.467 50.2873 131.263 53.2749C132.417 55.1954 133.904 57.4148 135.513 58.9257C143.981 66.8214 160.755 69.6639 169.687 60.8377C169.061 60.428 168.63 60.5902 167.826 60.7182C159.609 62.0242 147.126 59.6512 142.396 52.9505H142.413Z" fill="#55FF00"/>
<path d="M25.5398 157.678C18.4694 151.703 13.2194 135.57 20.9156 136.543C24.3614 136.979 26.4256 140.82 27.2871 144.653C29.0587 152.531 28.0835 160.427 24.9547 168.306C31.8788 164.038 34.6988 154.913 34.6501 146.616C34.6094 139.83 32.919 133.044 28.3761 128.084C24.8734 124.252 20.2167 122.118 15.2918 122.596C9.28599 123.185 4.80806 130.013 3.70281 136.45C2.32123 144.499 4.45861 152.403 8.18073 159.608C13.1381 169.211 20.5174 177.106 29.9121 181.673C41.8261 187.461 54.3903 184.191 63.013 173.863C71.6275 163.534 75.8372 150.005 75.1627 136.356C74.7888 128.75 65.7598 125.652 58.4781 126.94C56.6496 127.265 53.8539 128.776 53.6426 130.799C53.3663 133.522 53.22 136.006 52.6593 138.601L51.0014 146.3C49.0347 155.442 41.8667 163.628 33.0572 162.484C30.2046 166.829 26.515 170.423 21.517 171.993L24.9547 160.905C25.2472 159.975 25.361 158.694 25.5235 157.678H25.5398Z" fill="#55FF00"/>
<path d="M143.705 47.6846C143.965 47.4456 144.445 47.3517 145.07 47.4286C145.623 47.4969 146.241 47.6761 146.891 47.9493C146.972 50.0918 146.785 52.4563 146.444 54.6585C145.355 53.8562 144.428 52.9513 143.721 51.9441C142.73 50.5442 142.722 48.5553 143.697 47.6932L143.705 47.6846Z" fill="#55FF00"/>
<path d="M132.653 52.3702C131.19 49.9289 130.515 46.762 130.751 43.4415C130.962 40.471 132.238 38.0041 134.53 36.1091C136.448 34.53 139.016 33.48 141.738 33.0703L142.551 34.1629L145.014 38.6955C145.623 39.8223 145.883 41.0002 146.135 42.2465L146.42 43.6549L146.501 44.261C146.135 44.1671 145.769 44.0903 145.42 44.0476C143.486 43.8171 142.275 44.4829 141.6 45.0804C139.292 47.112 139.073 51.1068 141.096 53.9835C142.226 55.5882 143.778 56.971 145.591 58.1319L144.981 59.7879L143.762 62.3231C141.21 61.2134 138.764 59.6769 136.602 57.6625C135.391 56.5357 134.099 54.8114 132.644 52.3787L132.653 52.3702Z" fill="#55FF00"/>
<path d="M139.69 71.9183C140.82 71.1329 141.714 70.1342 142.283 68.888C143.315 68.2051 144.152 67.2918 144.542 66.1309C147.037 67.0101 149.67 67.6076 152.311 67.8551C153.798 67.9917 155.245 68.0173 156.651 67.9405L157.065 68.9563L158.008 72.4304L158.203 73.6681C155.855 76.6301 152.311 78.8665 148.362 79.5836C146.899 79.8482 145.444 80.0104 143.981 80.0957C143.835 79.9421 143.68 79.797 143.51 79.6604C142.925 78.1922 141.884 77.2874 140.657 76.5106L139.17 75.5716L137.073 74.4278C137.788 73.5059 138.707 72.6865 139.69 71.9268V71.9183Z" fill="#55FF00"/>
<path d="M127.662 78.6363L129.54 78.2265L131.71 77.3473C132.75 76.9291 133.896 76.1779 134.952 76.323C137.203 76.6389 138.739 77.9363 140.34 79.3192C140.665 79.6008 140.942 79.8825 141.186 80.1642C137.528 80.1642 133.839 79.763 130.011 79.3533L128.012 79.1484C127.248 79.1484 126.516 79.3789 125.842 79.763L125.826 79.5496C126.118 79.0801 127.045 78.7643 127.654 78.6363H127.662Z" fill="#55FF00"/>
<path d="M127.938 82.5631L129.685 82.7508C134.082 83.2203 138.576 83.6983 143.119 83.5362C143.331 83.963 143.517 84.3898 143.607 84.8422L144.363 88.7004C144.696 90.3991 144.062 92.1831 143.485 93.8135L144.533 95.128C146.029 94.9146 146.256 93.2672 146.598 91.9953C146.744 91.4661 147.093 91.0051 147.012 90.3905L146.313 85.1921C146.224 84.5093 146.094 83.9459 145.622 83.374C146.719 83.2715 147.808 83.1435 148.906 82.9472C152.563 82.2814 155.895 80.5656 158.52 78.2012C158.43 80.7193 157.975 83.5191 157.211 85.1324L154.416 91.0222L153.067 92.6355L149.97 95.9645C149.588 97.0827 150.832 98.0217 151.075 98.8241L151.734 100.967L152.392 103.818C148.223 104.654 143.883 104.927 139.47 104.586C138.243 104.492 137.113 104.372 136.041 104.227L136.016 104.04L135.594 102.204L131.815 97.1766L130.823 96.3999L129.287 95.0683C128.475 94.3598 124.696 94.2061 125.216 92.7635C125.476 92.0551 125.476 91.4661 125.476 90.8173L126.134 86.9164L126.102 83.9203C126.727 83.1776 127.459 82.6057 127.938 82.5716V82.5631Z" fill="#55FF00"/>
<path d="M155.155 64.4815L155.18 64.5412C152.287 64.6095 149.263 64.2083 146.322 63.2779C146.809 62.2877 147.159 61.2378 147.532 60.1452L147.793 59.377C149.385 60.1708 151.116 60.8195 152.912 61.3402C153.774 62.2707 154.692 63.4145 155.155 64.4815Z" fill="#55FF00"/>
<path d="M124.07 96.6728C124.355 96.229 124.721 95.9473 125.395 96.1009C126.403 96.3314 127.508 96.6728 128.435 97.2703L130.036 98.3032C131.295 99.5238 132.547 100.949 133.108 102.605L133.506 103.775C131.1 103.288 129.028 102.605 127.077 101.666C125.558 100.377 124.591 98.6276 124.062 96.6728H124.07Z" fill="#55FF00"/>
<path d="M73.3915 135.296C71.6848 134.767 70.092 133.811 68.7754 132.437C68.1334 131.771 67.4832 131.925 66.1748 128.92C68.0196 129.406 69.6694 130.2 70.9128 131.25C72.2456 132.368 73.0664 133.734 73.3915 135.296Z" fill="#55FF00"/>
<path d="M54.2525 138.969C54.7076 136.835 54.8945 134.837 55.0976 132.72C55.1545 132.149 55.2033 131.56 55.2683 130.971C55.3577 130.126 57.1863 128.888 58.7629 128.606C60.2989 128.333 61.8917 128.282 63.4277 128.427L63.8016 129.477C64.6305 131.781 66.5241 133.805 68.247 135.486C68.5314 135.734 69.2547 136.246 69.6042 136.391L72.9281 137.757C73.1475 137.851 73.3751 137.902 73.5945 137.97C73.7977 147.086 71.7984 155.861 67.8325 163.578C67.4262 163.638 67.0198 163.698 66.6135 163.732C59.9575 164.269 52.5621 162.024 47.4177 157.62C49.9533 154.487 51.7575 150.586 52.6027 146.668L54.2606 138.969H54.2525Z" fill="#55FF00"/>
<path d="M76.8367 138.234L78.8359 138.14C79.6404 138.097 80.3231 137.918 81.1114 137.568L82.9318 136.757C83.3626 136.561 84.3866 136.143 84.7604 136.416L86.784 138.55C87.8486 138.849 88.6044 139.258 89.5228 139.753C90.758 140.419 92.1071 140.641 93.3749 141.025C95.0003 141.512 96.6907 141.648 98.3811 141.478L100.77 141.247L102.908 140.675L104.403 140.146C105.11 139.898 106.321 139.361 106.931 138.857L111.197 135.323C111.571 135.016 112.189 134.256 112.384 133.838C113.042 132.438 113.928 131.798 114.846 129.425L115.578 127.521L116.057 124.346C116.236 123.159 116.106 121.751 115.391 120.778C115.228 120.556 114.57 120.496 114.367 120.667C114.164 120.846 113.928 121.401 113.912 121.683L113.757 124.047C113.538 127.402 111.986 130.714 109.808 133.232C105.451 138.26 100.145 139.677 93.8381 138.814C93.1067 138.712 92.7573 138.661 92.0665 138.166L90.1892 137.44L88.6288 136.527L87.1578 135.673C85.76 133.898 84.4109 132.72 82.6962 133.872C80.8432 135.118 78.779 135.733 76.7391 135.767C76.4791 132.942 75.1788 130.466 72.9439 128.58C70.904 126.864 68.1246 125.703 65.1014 125.208L65.0526 123.279C65.0039 121.358 65.4915 119.694 66.4505 118.004C66.6455 117.654 66.8812 116.74 67.2307 116.595C67.5801 116.45 68.1734 116.45 68.6447 116.442L70.5221 116.425C73.2283 116.049 75.6501 115.375 78.2101 114.436C79.039 114.128 79.9655 113.488 80.7213 112.933L83.0944 111.2L87.1903 113.044L90.2461 113.975L91.4976 114.419C92.0746 114.623 92.6191 114.743 93.2286 114.803L95.1141 115.008C97.2271 115.238 99.1775 115.358 101.266 114.939C102.355 114.717 103.582 114.7 104.671 114.316L108.141 113.078C111.571 111.858 114.35 109.28 117.235 107.009C117.983 106.42 118.43 105.746 119.015 105.038L120.795 102.895L121.608 101.452L122.071 100.539C122.843 102.033 123.883 103.373 125.24 104.483L125.549 104.679C128.426 106.087 131.368 106.881 134.099 107.351C134.131 109.434 133.709 111.542 132.709 113.275C132.303 113.975 130.791 115.597 131.726 116.518C131.921 116.715 132.473 116.612 132.799 116.493C133.936 116.066 134.253 115.221 134.847 114.325C135.562 113.232 136.025 112.361 135.984 111.038C136.196 110.475 136.513 109.587 136.513 108.947V107.709C137.471 107.829 138.398 107.914 139.259 107.974C143.884 108.324 148.435 108.051 152.815 107.189C152.896 108.836 152.685 110.492 152.311 112.114L151.572 115.383C151.247 116.834 150.905 118.046 150.133 119.284L147.882 122.878C144.355 128.051 139.308 131.533 133.229 132.395C132.79 132.455 131.775 132.95 131.645 133.394C131.198 135.716 130.425 137.935 129.45 140.044L128.337 142.459L127.11 144.815L125.622 146.838L124.436 148.366C123.721 149.288 123.03 150.406 122.16 151.217C120.592 152.677 119.023 154.085 117.252 155.297L114.976 156.859C113.952 157.559 112.766 158.183 111.628 158.635L109.125 159.625C106.841 160.53 104.59 161.17 102.16 161.477L98.5761 161.93L96.7638 161.99C91.8796 161.742 87.1091 161.016 82.5255 159.104C79.9574 158.029 80.6238 158.993 77.7631 160.436L75.8858 161.384C75.0975 161.785 74.2198 162.263 73.3258 162.451C72.8463 162.553 72.3587 162.664 71.8792 162.775C75.2925 155.238 77.0155 146.872 76.8692 138.217L76.8367 138.234Z" fill="#55FF00"/>
<path d="M139.447 30.0399C137.732 28.1023 135.594 26.7963 133.392 25.3537L131.604 24.1843C131.108 23.8599 130.548 23.9623 130.003 23.7319L127.459 22.6649L123.802 22.1527C122.396 21.9564 121.852 20.326 121.535 19.131L121.08 17.3896L120.275 15.4178C119.552 13.6594 118.317 11.7986 116.919 10.6291L114.448 8.56342C111.124 5.78069 105.785 4.04789 101.404 4.86734L96.7965 5.72947L95.3174 6.39528L92.1723 8.07687C90.49 8.97315 88.3364 11.9095 87.54 14.0691C87.1336 14.6837 85.8089 15.5544 85.1182 15.5202L82.2331 15.3751L77.9421 15.2727L72.8303 16.1775C71.9201 16.3397 70.8311 16.8519 70.0265 17.2872L68.1329 18.3115C67.5234 18.6359 66.2637 19.2163 65.7924 19.6858L62.8261 22.6478C62.2978 23.177 61.6883 24.2611 61.3145 24.9098L60.3799 26.506L59.3396 28.2218L58.3563 30.2704L56.1295 34.7262C54.9511 37.0907 52.3342 39.8734 50.2294 40.6416C48.8722 41.1367 46.7023 41.3501 45.3939 40.505C44.2398 39.7624 42.8583 37.9357 42.4113 36.6212C41.6311 34.3165 42.4601 31.7471 43.671 29.7241C44.3861 28.5291 45.597 27.2743 46.7511 26.3268L56.2677 18.5078L58.8276 17.0226L60.2905 16.408L61.9565 15.5715L64.8172 14.274L67.4259 13.1985L69.8721 11.4571C70.6929 10.8767 71.4487 10.4072 72.0826 9.64749L74.1062 7.2062C75.2927 5.77215 78.7467 2.9126 80.2014 2.41752L81.8755 1.85414C83.3384 1.35905 84.785 -0.0579182 84.1592 0.00183365L83.3709 0.0871934L80.1201 0.471312C78.8361 0.62496 77.5683 0.693248 76.4549 1.49563L75.3496 1.68342L71.0505 2.85285L66.7839 3.54426L64.3377 3.80888L59.3559 4.10764L55.4631 4.37225L52.0173 4.79052C50.5219 4.96977 48.8803 5.31975 47.4418 5.86605L45.2313 6.71111L43.0289 7.65007C41.2816 8.40124 36.5112 12.4814 35.0808 14.4789L33.0491 17.3043C31.9682 18.8066 31.1718 20.565 31.1637 22.3832L30.7329 22.332C30.7329 22.332 30.676 22.6392 30.6598 22.7587C30.5948 23.1087 29.904 23.5014 29.5383 23.4246C28.6443 23.2368 28.0429 23.4672 27.214 23.638C24.3127 24.2355 22.9717 24.944 20.5418 26.4463C19.8916 26.8475 19.3796 27.1206 18.8108 27.7694L17.0472 29.7839L15.3162 32.1569L14.154 34.1031C13.7396 34.803 13.4633 35.7164 13.2276 36.5102L12.8131 37.9613L12.2117 41.9818C12.0736 42.9207 12.3092 44.278 11.464 45.0206C9.84679 46.4376 8.00198 47.607 6.75043 49.3654C6.36034 49.9117 6.08403 50.4665 5.55578 50.9787C4.53179 51.9859 2.5407 57.0307 2.23188 59.2159L1.53296 64.1753C1.14287 66.958 2.27251 69.6639 3.07707 72.2162C3.41028 73.2747 2.92266 74.06 2.63822 74.9306L1.53296 78.3024L0.825922 80.9314L0.582114 82.0582L0.0945002 86.5908C-0.24683 89.8003 0.370815 94.4097 1.3948 97.5254L1.97994 99.3009C2.68698 101.443 3.33713 103.236 4.67807 105.037L8.0101 109.493C8.93657 110.731 9.85491 111.695 11.0089 112.754C11.204 113.786 11.1227 115.135 10.9602 116.245L11.0658 117.278C11.0658 118.754 11.2446 120.359 11.5534 121.989C12.7643 121.392 13.9834 121.025 15.1618 120.914C18.1931 120.615 21.1757 121.204 23.9307 122.587C23.5487 121.938 23.2074 121.247 23.2562 120.513C23.2806 120.163 24.0851 119.642 24.4021 119.727C25.8324 120.137 25.361 121.221 26.385 122.587C26.8401 123.202 26.9946 123.688 27.2871 124.371C27.3928 124.619 27.5309 124.858 27.6691 125.097C28.3192 125.651 28.9531 126.257 29.5545 126.915C30.3672 127.802 31.1149 128.767 31.7813 129.791C33.1954 131.191 34.6989 132.284 36.5762 133.018L40.2414 134.461C41.818 135.075 43.2646 134.554 43.5491 135.69C43.6628 136.134 43.1021 137.303 42.6632 137.354C42.0537 137.423 41.0622 137.192 40.4527 136.97L36.4543 135.493C35.5928 135.178 34.8208 134.776 34.0812 134.281C35.4709 137.807 36.2105 141.853 36.2755 146.308L38.1609 146.624C38.5104 146.684 39.0549 147.205 39.2093 147.461L41.0378 150.491C41.2979 150.926 41.5498 151.993 41.9562 152.412L44.4186 154.964L44.9875 155.476C46.9786 153.086 48.5796 149.911 49.4329 145.941L51.0908 138.242C51.5053 136.321 51.6841 134.426 51.871 132.42C51.9279 131.831 51.9848 131.242 52.0417 130.636C52.3505 127.64 55.8451 125.703 58.2262 125.276C59.6972 125.011 61.1926 124.926 62.6635 124.994C62.5741 123.876 62.5741 122.689 62.6635 121.844C62.9561 119.138 64.2158 117.491 64.3052 115.57C63.1837 115.57 62.5091 115.331 61.7858 114.87L60.388 114.546L58.7951 113.684L57.0966 112.515C56.2595 111.943 55.5525 110.824 54.7642 110.048C54.4554 109.749 53.602 109.382 53.3338 108.981L51.1477 105.703L50.5951 104.235C50.3269 103.518 49.7255 102.852 49.5223 102.314L49.0185 100.641L48.5715 98.968L48.0757 95.767C47.9945 95.2548 47.9945 94.2476 48.0676 93.6671L48.604 89.1687L49.0916 86.7274L49.823 84.9946C50.2863 84.4739 50.6276 83.8849 50.6682 83.313C51.741 82.2972 51.359 81.2558 50.8877 80.1291C50.5788 79.395 50.4244 78.7121 49.8637 78.0207C49.4086 77.4573 49.3029 76.8086 49.1647 76.1428L48.539 73.0101C48.1976 71.3029 48.2139 69.4079 48.4821 67.7604L49.1485 63.6632C49.4329 61.9389 50.1318 60.2488 50.8633 58.7379L52.513 56.3564C53.537 55.5625 54.2928 54.7516 54.878 53.6761L57.9337 51.397L60.2255 50.1251C60.77 49.8263 61.7858 49.391 62.4604 49.2374L67.369 48.1447C68.2467 47.9484 69.7908 48.0594 70.7254 48.2301L73.6267 48.7593C74.1143 48.8532 74.9189 48.9045 75.2196 48.6228C75.5528 48.324 75.8454 47.4704 76.1054 47.1119L77.3895 45.3364C78.2591 44.1414 79.8113 43.0488 81.0872 42.2208C82.3225 42.2208 82.8426 40.8806 84.9638 40.4624L88.5884 39.7453C90.7013 39.6344 92.7493 40.0697 94.7404 40.8465L97.2923 42.161L98.9339 43.2792C100.551 44.3889 103.233 48.085 103.924 50.1934L104.566 52.1225C104.883 53.0871 105.086 53.8809 105.062 54.9138L104.997 57.2953C104.948 59.0025 104.988 60.3597 106.338 61.7255C106.719 62.4084 107.199 63.8339 107.41 64.6533L107.849 66.352C107.955 66.7702 108.158 67.547 108.134 67.9568L108.069 69.4847C108.028 70.4578 107.987 71.8492 107.654 72.771L106.207 76.2367L105.07 77.8243C103.875 79.4974 102.071 80.7693 100.446 81.9558C99.2752 81.5887 99.2915 82.596 97.4548 82.9289L96.122 83.1679C94.9111 83.3898 93.7977 83.2276 92.6112 83.0057L90.7745 82.6557C90.0593 83.2447 89.6449 83.9361 89.076 84.6702C88.3608 85.6006 87.0849 86.7274 86.0853 87.103C83.4359 88.0931 80.6971 88.7675 78.129 87.9139L75.7966 87.1371L74.3094 86.2323L72.8953 85.4384L69.9534 81.4607L69.4983 80.0352L69.0675 78.6694C68.3199 76.3135 68.84 72.2333 69.7827 72.3272C70.376 72.3869 71.5056 73.232 71.5462 73.8636C70.953 74.888 70.8717 75.7501 71.2699 76.8598L71.6113 78.6523C71.7575 79.4206 72.0013 80.0352 72.3833 80.7693L72.5783 81.768C72.6352 82.0497 73.391 82.1692 73.5942 82.3826C74.1793 82.9971 74.9352 83.9532 75.6503 84.3629C77.9502 85.6945 80.0145 86.0957 82.4525 85.336L83.891 85.0543C85.1994 84.7982 87.6131 82.8947 88.3202 81.7167C88.7509 80.9997 89.2385 79.5315 90.4007 79.8986C91.7253 80.3254 93.0825 80.6668 94.5372 80.5644C96.0976 80.4534 97.7067 80.4278 99.1046 79.5145C100.194 78.806 101.86 78.6438 102.949 76.911L103.973 75.2892C104.704 74.1368 105.224 72.5064 105.509 71.1748C105.907 69.331 105.712 67.5812 105.192 65.8654L104.233 62.7071C103.932 61.7084 102.136 60.8975 102.42 58.9513C102.713 56.9453 102.884 54.9906 102.298 53.0359L101.746 51.1921L100.779 48.9642C100.21 47.6497 97.6092 45.0462 96.2683 44.4316C95.4231 44.0475 94.4153 43.0829 93.5783 42.9207L91.002 42.4171L88.8484 42.3061L86.1584 42.4769L84.6549 43.3049C83.9154 43.228 83.2083 43.5524 82.7126 44.167C81.1522 44.1072 80.4533 45.3364 79.7138 46.4119C79.1043 47.2997 78.3485 48.0594 77.8527 49.1093C77.3163 50.2361 76.8287 51.5762 75.4634 51.8238L73.3423 51.3201L71.2943 50.9189L69.0431 50.7226C68.1573 50.6458 67.3771 50.5604 66.4669 50.825L62.1597 52.0798L60.2742 52.9078C58.8764 53.5224 57.5436 54.7089 56.544 55.921L55.2437 57.4916L53.9596 58.994C53.0738 60.5902 52.2936 62.1096 51.7247 63.8083C51.4972 64.4911 51.489 65.4984 50.9364 66.0276L51.0421 66.941C51.0664 68.0506 50.7007 69.4506 50.8145 70.5175L51.1558 73.5051C51.2046 73.9575 51.3753 74.888 51.5134 75.3062L52.188 77.3378L53.3257 79.3352L53.984 81.1448C54.0084 81.6911 53.8133 82.852 53.6183 83.3642C51.6841 85.7201 50.977 88.4516 50.652 91.4478C50.4407 93.3684 50.335 95.1182 50.7007 97.0132C50.912 98.0973 51.0177 99.4374 51.4078 100.428L52.3099 102.724L53.2526 105.08C53.5451 105.805 54.5285 107.094 55.1218 107.581L56.7146 108.895L58.3075 110.21L59.941 111.328L61.7614 112.472C62.2165 112.762 62.8261 112.882 63.395 112.813C64.8822 113.641 66.5644 114.042 68.3442 113.923L72.8872 113.624C75.2115 113.471 79.6163 110.91 81.7943 108.87C82.0624 108.622 82.7045 108.178 83.0295 108.212C83.3953 108.247 83.9316 108.554 84.3786 108.861L85.8333 109.868L90.9045 111.815C91.7253 112.13 92.6843 112.13 93.562 112.327C97.0078 113.086 100.446 112.745 103.883 112.002C105.574 111.635 107.028 111.063 108.572 110.261L111.246 108.878L116.033 104.935L117.813 102.664C118.894 101.281 120.137 99.6423 120.795 98.0119L120.966 97.5937C119.779 93.1806 120.421 88.0846 122.242 83.9788C122.51 83.3813 122.925 82.6728 123.453 81.9814L122.811 77.8585C123.347 77.4744 124.404 76.9793 125.208 76.783L128.719 75.9294L132.157 74.3843C133.595 73.7356 134.871 73.1039 136.106 72.0199L138.642 69.7835L141.511 66.5569L142.372 65.2508C139.398 63.9448 136.683 62.2291 134.505 60.1975C133.067 58.8574 131.58 56.8856 129.954 54.1797C128.126 51.1238 127.272 47.2143 127.565 43.1683C127.841 39.2588 129.58 35.8871 132.579 33.4031C134.513 31.8069 136.903 30.6631 139.487 30.0229L139.447 30.0399ZM26.7507 72.7625C25.101 74.4014 23.7438 76.8598 23.5975 79.045L23.4025 81.9558C23.3374 82.9289 23.7275 84.3202 24.0364 85.3616C25.0603 88.8784 28.815 90.1674 28.1079 92.6343C26.7914 97.2437 27.7178 102.545 29.2132 107.103C29.5708 108.195 30.099 109.245 30.8142 110.21L33.0247 113.214C36.6168 118.097 41.0053 120.043 46.556 121.443C46.8242 121.511 47.1493 121.614 47.3118 121.699C47.4418 121.768 47.1005 123.056 46.6454 123.372C46.4991 123.475 46.109 123.441 45.8815 123.406L44.2886 123.202C43.1183 123.048 42.2488 122.476 41.2004 121.998C39.5831 121.255 38.0715 120.632 36.6656 119.565L35.5115 118.686C32.4883 116.39 30.4729 113.547 28.5468 110.261C26.962 107.564 26.1737 104.696 25.7105 101.589C25.4179 99.6167 25.2635 97.8583 25.5561 95.8267L26.1006 92.0026L25.0522 90.6027C24.1826 89.4503 22.9474 88.3577 22.5085 87.0347L21.834 85.0031L21.3951 83.2788C20.94 81.5033 21.1676 78.9084 21.7039 77.2439C22.5004 74.7685 24.6865 70.8931 26.1981 71.6358C26.4501 71.7638 26.8158 72.4637 26.7589 72.7625H26.7507ZM30.034 38.482C30.5785 39.3271 30.3835 40.266 29.7008 40.7099C28.3924 41.5635 27.8479 42.7415 27.2546 44.1243C26.5801 45.6864 26.19 47.1973 26.385 49.0069C26.4907 49.9714 26.4175 51.1665 26.832 52.242C27.5309 54.0943 28.9044 56.2027 30.5704 57.3636C31.8869 58.2855 33.5205 58.6525 35.0239 59.0452C36.5518 59.4464 38.1447 58.8745 39.575 58.2599L42.0293 57.21L43.6141 58.0209C42.7933 59.6683 41.1029 60.3427 39.4612 60.7865C35.861 61.7596 32.3583 61.2133 29.2051 58.9684C27.4659 57.4916 25.9706 55.4259 24.8572 53.3346L24.5077 51.6616C24.3939 51.1153 24.0851 50.3556 23.8088 49.758L24.3939 44.8157L25.4098 43.1L26.9295 40.6331L28.2867 38.6357L30.0584 38.4735L30.034 38.482ZM120.836 38.4649C121.096 38.8917 121.616 39.3271 122.022 39.6258C122.356 40.2746 122.99 41.4013 123.176 42.0415L123.705 43.8341L124.176 45.6949C124.664 47.6155 124.103 49.4593 123.957 51.4396C123.729 54.5126 122.51 55.8357 122.608 56.16C122.608 56.1515 122.413 56.1173 122.136 56.0747L121.803 57.7819L119.227 60.2402C118.512 60.9231 117.536 61.3158 116.748 60.4707L117.861 59.1562L119.804 56.6893C120.478 55.8357 121.153 54.2224 121.454 53.1554L121.933 51.4567C122.502 49.4422 122.453 47.3253 121.868 45.2254C121.454 43.7402 121.039 41.8452 120.161 40.5477C119.048 38.9088 115.415 35.6993 113.782 35.2213L110.767 34.3506C108.841 33.7958 106.817 34.9311 105.435 33.0702L102.997 29.7839C102.412 29.5875 101.925 29.2376 101.331 28.8449L99.8604 27.8803C97.3492 26.2414 94.2203 26.3524 91.4409 27.334L88.3364 28.4352L87.6456 27.3426C90.2706 23.9879 97.6661 23.7148 100.909 25.8744L102.355 26.8389L104.306 28.2388C105.5 29.0924 106.346 30.8509 107.394 31.9435C109.125 31.9093 110.62 32.0374 112.189 32.5068L114.684 33.2495C116.61 33.8214 118.317 34.6664 119.332 36.6383C120.243 36.7663 120.844 37.415 120.852 38.4735L120.836 38.4649Z" fill="#55FF00"/>
<path d="M22.3382 140.428L20.1439 138.55L19.8513 138.242C20.0707 138.2 20.3552 138.191 20.7128 138.242C22.7608 138.498 24.0529 140.487 24.825 142.305L24.5568 142.169C23.736 141.751 23.0533 141.051 22.33 140.436L22.3382 140.428Z" fill="#55FF00"/>
<path d="M27.206 129.262C31.6839 134.145 32.8623 140.726 33.0086 145.685C32.1553 145.446 31.367 145.071 30.5624 144.798L28.8639 144.234C27.6367 138.814 24.7435 135.297 21.1108 134.836C19.6723 134.657 18.437 134.956 17.4943 135.664L16.064 133.914C15.7877 133.573 15.682 133.009 15.5764 132.472C15.4626 131.9 14.528 131.055 14.2436 130.449C13.5203 128.895 12.862 127.128 12.3337 125.301C13.3008 124.755 14.333 124.38 15.4382 124.277C19.7048 123.859 23.8821 125.626 27.1978 129.254L27.206 129.262Z" fill="#55FF00"/>
</svg>
